<?xml version="1.0" encoding="utf-8"?>
<!-- Generator: Adobe Illustrator 21.1.0, SVG Export Plug-In . SVG Version: 6.00 Build 0)  -->
<svg version="1.1" id="Layer_1" xmlns="http://www.w3.org/2000/svg" xmlns:xlink="http://www.w3.org/1999/xlink" x="0px" y="0px"
	 viewBox="0 0 548 218" style="enable-background:new 0 0 548 218;" xml:space="preserve">
<style type="text/css">
	.st0{fill:#03102D;}
	.st1{fill:#333333;}
	.st2{fill:#C8ACEF;}
	.st3{fill:#171C30;}
	.st4{opacity:0.9;fill:#D63AA2;stroke:#D63AA2;stroke-width:1.3;stroke-miterlimit:10;enable-background:new    ;}
	.st5{fill:#F2CCE9;}
	.st6{fill:#2B3652;}
	.st7{fill:#E18042;}
	.st8{fill:none;}
	.st9{opacity:0.9;fill:#ED69CE;stroke:#D63AA2;stroke-width:1.3;stroke-miterlimit:10;enable-background:new    ;}
</style>
<title>car</title>
<g id="Layer_2">
	<g id="Layer_1-2">
		<g id="car">
			<path class="st0" d="M66,146.8c0,0-46.7,0.4-47,5c-0.2,3.7,31.3,7.4,31,11c-0.3,4.5-49.7,2.4-50,6c-0.2,2.9,32.4,9.6,69,12
				c33.5,2.2,57.6,0,58,3c0.5,3.7-35.2,8.3-35,13c0.3,6.9,77.2,4.3,188,13c71,5.6,72.1,9.2,105,8c81.6-3,164.2-28.6,163-45
				c-0.4-5.7-11-9.6-28-14c-76.6-19.8-146.2-14.6-173-13C253.5,151.5,159.7,146,66,146.8z"/>
			<ellipse class="st1" cx="97.5" cy="126.8" rx="19.5" ry="37"/>
			<ellipse class="st1" cx="281.2" cy="141.8" rx="28.2" ry="37"/>
			<path class="st2" d="M54,58.8c13.3-10.2,27.5,1.6,49-6c10.5-3.7,10.3-6.5,25-18c23.7-18.4,48.8-22.9,62-26
				c17.4-4.1,29.9-4.4,53-5c37.4-1,33.7,4.4,65,3c5.7-0.2,14.1-0.8,24,3c6.4,2.5,12.8,6.5,22,16c16.8,17.3,15,23.8,24,32
				c8.7,7.9,30.6,9,74,11c23.3,1.1,37.9,1,48,12c4.1,4.5,6.9,10,8,16c3.8,23.3-24.6,45-43,54c-2.6,1.3-15,7.2-34,9
				c-7.6,0.7-34.8,3.1-63-11c-26.5-13.2-25.7-26.9-62-48c-13.8-8-20.9-12-31-13c-25.6-2.4-31.1,17.1-59,23
				c-35.1,7.4-74.4-13.2-93-23c-12.3-6.4-19-11.7-32-13c-24.3-2.5-41.3,11.8-46,6C41.8,76.8,45.8,65.1,54,58.8z"/>
			<path class="st3" d="M93.8,111.2c-7.5,5.6-8.9,36.7,2.1,40.3s12.1-13.4,11.6-22.4C106.7,116.1,101.3,105.6,93.8,111.2z"/>
			<path class="st3" d="M266.2,132.2c-2,5.2-2.5,10.9-1.4,16.4c1.2,6,4.8,11.9,10.5,14.1c5,1.9,10.9,0.4,15.1-3s6.6-8.5,7.6-13.8
				c1.1-5.2,0.5-10.6-1.8-15.4C289.1,116.7,271.6,118.4,266.2,132.2z"/>
			<path class="st3" d="M380.4,99c-4.5,2.3-6.9,5.7-3.8,10.5c2,3.1,6,3.7,9.5,3.8c5.1,0.2,10.1,0.3,15.2,0.3
				c12.1,0,24.3-0.6,36.4-1.5c9.3-0.7,19.2-1.2,28.2-4c5.7-1.8,9.8-7.2,3.9-12.3c-4.3-3.7-13.8-3.2-19-3.4
				c-15-0.7-30.1-0.7-45.1,1.1C401.6,93.9,388,95,380.4,99z"/>
			<path class="st3" d="M417.1,124.5c-11.4,0.4-22.8,0.8-34.1,0.9c0.3,6.7,1.5,12.8,6.8,16.3c3.2,2.1,7.3,2.5,11.6,2.7
				c18.5,0.9,34.7,0.4,49.6-1.6c3.7-0.5,7.3-1.1,10.2-2.8c7.6-4.5,8.8-13.7,8.8-18.9l-3.1,0.4C450.4,123.3,433.8,123.9,417.1,124.5z
				"/>
			<path class="st3" d="M344.7,89.4c-7.2,0-13.1,6.9-13.1,15.4s6,15.3,13.2,15.3s13.1-6.9,13-15.4S352,89.4,344.7,89.4z
				 M352.1,112.6c-2.2,2.5-6,3.5-8.8,2.2c2.8-0.1,5.3-1.6,6.8-3.9c1.4-2.1,2-4.7,1.7-7.2c-0.2-2.5-1.3-4.9-3.1-6.7
				c-2-1.9-4.8-2.6-7.5-1.9c2.3-2,6.2-2.1,9-0.2s4.6,5,4.8,8.4C355.5,106.8,354.4,110.1,352.1,112.6z"/>
			<path class="st3" d="M507.1,82.7c-11-20.7-126.5-31.2-126.5-31.2s-21-37.1-50-44.6S207-2.4,183.5,3.7S97.8,50.6,97.8,50.6
				s-36.1-1.5-43.2,4.6c-2.7,2.5-4.9,5.5-6.6,8.8l41.3,0.5c8.6,0.2,17.7,0.7,26.1,4.4c4.2,1.8,7.8,4.6,11.2,6.9
				c3.4,2.3,7.2,4,11.2,4.9c4.1,0.8,8.3,1.4,12.6,1.6l12.9,0.9L189,85l51.4,3.6l-51.5-2l-25.8-1l-12.9-0.5
				c-4.4-0.1-8.7-0.5-13.1-1.2c-4.4-0.9-8.7-2.5-12.5-5c-3.8-2.3-7.2-4.8-10.9-6.2c-7.6-3.1-16-3.4-24.5-3.3l-44,0.9
				c-2.6,7.1-3.7,15-1.4,21c4.4,11.5,17.1,26.2,21.5,30.5s7.6,3.9,7.6,3.9s-2.1,23,7.8,33.9s18.1,10.3,31.8,10.2s21.3-2.8,24.6-9.4
				c2-4.3,3.1-9,3.2-13.7l105.1,7.2c0,0,2.2,25.7,19.3,32.5s49.5,6.6,57.1-4.4c4.7-7.1,7.8-15.1,8.9-23.6l79.3,1.3
				c0,0,0.1,18.6,26.4,20.7s33.3-6.7,36.6-12.8c1.8-3.2,3.1-6.7,3.8-10.4c0,0,13.7,3.2,21.2-17.6S514.5,96.6,507.1,82.7z
				 M92.6,159.2c-17.2-4.8-15-47.5-3.3-55.2s20.2,6.6,21.4,24.5C111.7,140.8,109.8,164,92.6,159.2z M70.2,106.5
				c0.2-5.1,1.8-10.1,4.7-14.4c1.5-2.2,3.3-4.2,5.4-5.7c2.1-1.6,4.5-2.8,7-3.6c2.5-0.8,5.2-1.3,7.8-1.3c2.7,0,5.3,0.6,7.8,1.5
				c4.8,1.9,9,5,12.1,9.1c-3.8-3.1-8.2-5.4-12.9-6.7c-4.5-1.2-9.3-1.1-13.7,0.5C83.9,87.3,80,90,77,93.7c-1.9,2.3-3.5,4.8-4.8,7.5
				 M72.2,101.2c-0.8,1.7-1.5,3.5-2,5.4 M216.2,65.2c-2.6,1.5-56.6,2.2-72.6-3.1S123,46.4,123,46.4s12.6-10.7,23.4-17.4
				c27-16.5,44.1-17.8,52.3-13S219.2,63.4,216.2,65.2L216.2,65.2z M221.3,137.7l-11.2-0.4l-22.3-1l-22.3-1.1
				c-7.4-0.4-14.9-0.7-22.4-1.3c7.5-0.8,14.9-1.1,22.4-1.2s15,0,22.4,0.3s14.9,0.9,22.4,1.7l11.1,1.4c3.7,0.6,7.4,1.1,11.1,1.9
				C228.8,137.9,225,137.7,221.3,137.7L221.3,137.7z M244.5,114.6c-2.1,5.7-3,11.7-2.7,17.8c-1.7-6.1-1.6-12.6,0.2-18.6
				c1.9-6.1,5.5-11.7,10.3-15.9c4.8-4.4,11.2-6.9,17.8-6.8c6.4,0.2,12.5,2.6,17.3,6.7c-5.3-3-11.3-4.5-17.3-4.2
				c-5.8,0.4-11.4,2.8-15.6,6.7C250,104.2,246.6,109.1,244.5,114.6L244.5,114.6z M284.1,175c-21.9,2.8-31.5-23.4-26.6-46.8
				c4.3-20.5,22.5-20.8,22.5-20.8s6.6,3.2,14.3,13.3c4.9,6.6,9.2,13.6,12.7,21C307,141.8,304.8,172.3,284.1,175z M487.9,116.3
				c-4.4,2-9,3.4-13.8,4.1c0.2,10.5-3.7,18.9-10.8,23.1c-3.6,2.1-7.6,2.8-11.7,3.4c-10.6,1.4-21.2,2.1-31.8,2.1
				c-5.9,0-12.1-0.1-18.5-0.4c-4.7-0.2-9.6-0.7-13.7-3.4c-6.8-4.5-8.3-12-8.7-19.7c-8,0-16,0-24-0.4c-6.7-0.3-13.5-0.8-19.6-3.3
				s-11.6-7.7-13-14.2c-1.5-7.3,2.5-12.5,8-16.1c-1-3.8-3.4-7.2-6.7-9.3c-4.3-2.8-9.5-4.1-14.9-5.2c-26.3-5.6-81.8-10.2-82.1-11.1
				l0,0l-9.8-36.5c0,0-4.2-13.5,7.7-18.9s85.9-3.7,103.6,2.4s41.2,39.8,41.2,39.8s-44.3,0.5-80.4,3.9c-19.4,1.9-38.9,5-50.8,7.2
				c24.1,1.2,47.6,5,71.3,10.1c5.7,1.2,11.3,2.6,16,5.7c3.7,2.4,6.5,6,7.9,10.3c2.9-1.5,5.9-2.6,9-3.5c9.4-2.6,18.9-4.3,28.6-5.3
				c19.3-2,41-2.6,60.4-2.5s37.1-1.5,56.5,1.3c2.7,0.4,5.4,1.3,7.8,2.8c1.8,1.1,3.4,2.6,4.6,4.3c-1.6-1-3.4-1.6-5.2-1.6
				c-6,0-10.8,5.7-10.7,12.6s4.9,12.6,10.9,12.5c0.7,0,1.3-0.1,2-0.2C494.4,112.5,491.3,114.7,487.9,116.3L487.9,116.3z
				 M502.1,105.3c-2.1,2.4-5.8,3.4-8.5,2.1c2.7-0.1,5.1-1.5,6.5-3.8c1.3-2.1,1.9-4.5,1.7-7c-0.2-2.4-1.3-4.7-3-6.4
				c-1.9-1.8-4.7-2.5-7.2-1.8c2.2-2,6.1-2.1,8.8-0.2c2.7,1.9,4.4,4.9,4.7,8.2C505.4,99.6,504.3,102.8,502.1,105.3L502.1,105.3z"/>
			<path class="st3" d="M93.8,111.2c-7.5,5.6-8.9,36.7,2.1,40.3s12.1-13.4,11.6-22.4C106.7,116.1,101.3,105.6,93.8,111.2z"/>
			<path class="st3" d="M266.2,132.2c-2,5.2-2.5,10.9-1.4,16.4c1.2,6,4.8,11.9,10.5,14.1c5,1.9,10.9,0.4,15.1-3s6.6-8.5,7.6-13.8
				c1.1-5.2,0.5-10.6-1.8-15.4C289.1,116.7,271.6,118.4,266.2,132.2z"/>
			<path class="st3" d="M380.4,99c-4.5,2.3-6.9,5.7-3.8,10.5c2,3.1,6,3.7,9.5,3.8c5.1,0.2,10.1,0.3,15.2,0.3
				c12.1,0,24.3-0.6,36.4-1.5c9.3-0.7,19.2-1.2,28.2-4c5.7-1.8,9.8-7.2,3.9-12.3c-4.3-3.7-13.8-3.2-19-3.4
				c-15-0.7-30.1-0.7-45.1,1.1C401.6,93.9,388,95,380.4,99z"/>
			<path class="st3" d="M417.1,124.5c-11.4,0.4-22.8,0.8-34.1,0.9c0.3,6.7,1.5,12.8,6.8,16.3c3.2,2.1,7.3,2.5,11.6,2.7
				c18.5,0.9,34.7,0.4,49.6-1.6c3.7-0.5,7.3-1.1,10.2-2.8c7.6-4.5,8.8-13.7,8.8-18.9l-3.1,0.4C450.4,123.3,433.8,123.9,417.1,124.5z
				"/>
			<path class="st3" d="M344.7,89.4c-7.2,0-13.1,6.9-13.1,15.4s6,15.3,13.2,15.3s13.1-6.9,13-15.4S352,89.4,344.7,89.4z
				 M352.1,112.6c-2.2,2.5-6,3.5-8.8,2.2c2.8-0.1,5.3-1.6,6.8-3.9c1.4-2.1,2-4.7,1.7-7.2c-0.2-2.5-1.3-4.9-3.1-6.7
				c-2-1.9-4.8-2.6-7.5-1.9c2.3-2,6.2-2.1,9-0.2s4.6,5,4.8,8.4C355.5,106.8,354.4,110.1,352.1,112.6z"/>
			<path class="st0" d="M507.1,82.7c-11-20.7-126.5-31.2-126.5-31.2s-21-37.1-50-44.6S207-2.4,183.5,3.7S97.8,50.6,97.8,50.6
				s-36.1-1.5-43.2,4.6c-2.7,2.5-4.9,5.5-6.6,8.8l41.3,0.5c8.6,0.2,17.7,0.7,26.1,4.4c4.2,1.8,7.8,4.6,11.2,6.9
				c3.4,2.3,7.2,4,11.2,4.9c4.1,0.8,8.3,1.4,12.6,1.6l12.9,0.9L189,85l51.4,3.6l-51.5-2l-25.8-1l-12.9-0.5
				c-4.4-0.1-8.7-0.5-13.1-1.2c-4.4-0.9-8.7-2.5-12.5-5c-3.8-2.3-7.2-4.8-10.9-6.2c-7.6-3.1-16-3.4-24.5-3.3l-44,0.9
				c-2.6,7.1-3.7,15-1.4,21c4.4,11.5,17.1,26.2,21.5,30.5s7.6,3.9,7.6,3.9s-2.1,23,7.8,33.9s18.1,10.3,31.8,10.2s21.3-2.8,24.6-9.4
				c2-4.3,3.1-9,3.2-13.7l105.1,7.2c0,0,2.2,25.7,19.3,32.5s49.5,6.6,57.1-4.4c4.7-7.1,7.8-15.1,8.9-23.6l79.3,1.3
				c0,0,0.1,18.6,26.4,20.7s33.3-6.7,36.6-12.8c1.8-3.2,3.1-6.7,3.8-10.4c0,0,13.7,3.2,21.2-17.6S514.5,96.6,507.1,82.7z
				 M92.6,159.2c-17.2-4.8-15-47.5-3.3-55.2s20.2,6.6,21.4,24.5C111.7,140.8,109.8,164,92.6,159.2z M70.2,106.5
				c0.2-5.1,1.8-10.1,4.7-14.4c1.5-2.2,3.3-4.2,5.4-5.7c2.1-1.6,4.5-2.8,7-3.6c2.5-0.8,5.2-1.3,7.8-1.3c2.7,0,5.3,0.6,7.8,1.5
				c4.8,1.9,9,5,12.1,9.1c-3.8-3.1-8.2-5.4-12.9-6.7c-4.5-1.2-9.3-1.1-13.7,0.5C83.9,87.3,80,90,77,93.7c-1.9,2.3-3.5,4.8-4.8,7.5
				 M72.2,101.2c-0.8,1.7-1.5,3.5-2,5.4 M216.2,65.2c-2.6,1.5-56.6,2.2-72.6-3.1S123,46.4,123,46.4s12.6-10.7,23.4-17.4
				c27-16.5,44.1-17.8,52.3-13S219.2,63.4,216.2,65.2L216.2,65.2z M221.3,137.7l-11.2-0.4l-22.3-1l-22.3-1.1
				c-7.4-0.4-14.9-0.7-22.4-1.3c7.5-0.8,14.9-1.1,22.4-1.2s15,0,22.4,0.3s14.9,0.9,22.4,1.7l11.1,1.4c3.7,0.6,7.4,1.1,11.1,1.9
				C228.8,137.9,225,137.7,221.3,137.7L221.3,137.7z M244.5,114.6c-2.1,5.7-3,11.7-2.7,17.8c-1.7-6.1-1.6-12.6,0.2-18.6
				c1.9-6.1,5.5-11.7,10.3-15.9c4.8-4.4,11.2-6.9,17.8-6.8c6.4,0.2,12.5,2.6,17.3,6.7c-5.3-3-11.3-4.5-17.3-4.2
				c-5.8,0.4-11.4,2.8-15.6,6.7C250,104.2,246.6,109.1,244.5,114.6L244.5,114.6z M284.1,175c-21.9,2.8-31.5-23.4-26.6-46.8
				c4.3-20.5,22.5-20.8,22.5-20.8s6.6,3.2,14.3,13.3c4.9,6.6,9.2,13.6,12.7,21C307,141.8,304.8,172.3,284.1,175z M487.9,116.3
				c-4.4,2-9,3.4-13.8,4.1c0.2,10.5-3.7,18.9-10.8,23.1c-3.6,2.1-7.6,2.8-11.7,3.4c-10.6,1.4-21.2,2.1-31.8,2.1
				c-5.9,0-12.1-0.1-18.5-0.4c-4.7-0.2-9.6-0.7-13.7-3.4c-6.8-4.5-8.3-12-8.7-19.7c-8,0-16,0-24-0.4c-6.7-0.3-13.5-0.8-19.6-3.3
				s-11.6-7.7-13-14.2c-1.5-7.3,2.5-12.5,8-16.1c-1-3.8-3.4-7.2-6.7-9.3c-4.3-2.8-9.5-4.1-14.9-5.2c-26.3-5.6-81.8-10.2-82.1-11.1
				l0,0l-9.8-36.5c0,0-4.2-13.5,7.7-18.9s85.9-3.7,103.6,2.4s41.2,39.8,41.2,39.8s-44.3,0.5-80.4,3.9c-19.4,1.9-38.9,5-50.8,7.2
				c24.1,1.2,47.6,5,71.3,10.1c5.7,1.2,11.3,2.6,16,5.7c3.7,2.4,6.5,6,7.9,10.3c2.9-1.5,5.9-2.6,9-3.5c9.4-2.6,18.9-4.3,28.6-5.3
				c19.3-2,41-2.6,60.4-2.5s37.1-1.5,56.5,1.3c2.7,0.4,5.4,1.3,7.8,2.8c1.8,1.1,3.4,2.6,4.6,4.3c-1.6-1-3.4-1.6-5.2-1.6
				c-6,0-10.8,5.7-10.7,12.6s4.9,12.6,10.9,12.5c0.7,0,1.3-0.1,2-0.2C494.4,112.5,491.3,114.7,487.9,116.3L487.9,116.3z
				 M502.1,105.3c-2.1,2.4-5.8,3.4-8.5,2.1c2.7-0.1,5.1-1.5,6.5-3.8c1.3-2.1,1.9-4.5,1.7-7c-0.2-2.4-1.3-4.7-3-6.4
				c-1.9-1.8-4.7-2.5-7.2-1.8c2.2-2,6.1-2.1,8.8-0.2c2.7,1.9,4.4,4.9,4.7,8.2C505.4,99.6,504.3,102.8,502.1,105.3L502.1,105.3z"/>
			<path class="st4" d="M48,72.8c-1.6,3.8-2.3,7.9-2,12c0.2,2.3,0.9,7.7,11,22c2.5,3.6,6.2,8.4,11,14c-0.7-2.9-3.2-15.2,4-27
				c1.6-2.6,6.3-10.2,15-13c14.2-4.5,28.3,7.2,34,12c15.8,13.2,20.5,31.1,22,39c32-2.4,64.3-1,96,4c-3.8-17.7,1.9-34.6,14-42
				c14.2-8.7,31.4-0.6,37,2c15.4,7.2,23.3,20.3,31,33c5,8.2,9,16.9,12,26c6.3,0.3,15.7,0.8,27,1c20.4,0.4,23.6-0.2,39,0
				c19.1,0.2,37.8-0.2,75-1c2.4-0.1,8.1-0.2,13-4c2.6-2.1,4.7-4.9,6-8c6.2-13.4,12.8-33.4,14-37c-7.7,9.1-18.3,15.1-30,17
				c-0.4,5.2-1.9,14.6-9,21c-5.6,5-11.6,5.4-29,6c-43.7,1.5-49.8,0.2-55-5c-2.6-2.6-6.5-7.6-8-17c-16.6,2.6-38.3,3.2-51-10
				c-4.5-4.7-3.5-6.6-9-13c-13.1-15.3-33.8-21.6-51-21c-10.4,0.4-9.8,3.5-25,7c-27.7,6.4-32.8-3.9-67-1c-10,0.7-20.1,0.4-30-1
				c-4.1-0.5-8.1-1.5-12-3c-7.9-3.2-10.2-6.8-16-10c-4.9-2.7-9.5-4.1-21-4C80.5,71.9,65.2,72.2,48,72.8z"/>
			<path class="st4" d="M144,136.8c-0.7,2.3-1.3,4.7-2,7l103,7c-0.7-3.3-1.3-6.7-2-10L144,136.8z"/>
			<ellipse class="st5" cx="98" cy="131.3" rx="7" ry="18.5"/>
			<ellipse class="st5" cx="281.5" cy="142.3" rx="12.5" ry="17.5"/>
			<path class="st5" d="M231.1,19.2c-6.1,8.1-3.6,24.5,5.5,32.2c11,9.4,24.3-0.6,61.7-2.8c33.1-1.8,49.8,4.5,52.5-1.8
				c2.7-6.6-12.2-20.7-27.6-27.6c-7.4-3.3-12.7-3.9-47.8-4.6C240,13.9,234.7,14.4,231.1,19.2z"/>
			<path class="st5" d="M186.9,20.4c-5.5-1.6-13.1,2.2-28.2,9.7c-19.1,9.6-20.3,12.9-20.3,15c0.1,4,5.2,6.8,8.8,8.8
				c8.6,4.8,14,3.3,36.1,4.4c12.5,0.6,16.6,1.4,19.4-1.8c3.6-4.1,1.9-11.1,0.9-15C202.9,38.5,198.7,23.8,186.9,20.4z"/>
			<path class="st6" d="M481,99.8c-1.3-6.8,1.4-13.8,7-18c-45.7-3.4-91.7-1.3-137,6c9.2,3.1,14.2,13,11.1,22.3
				c-1.6,4.9-5.3,8.8-10.1,10.7c26.2,3,52.7,3.4,79,1c19.9-1.8,39.6-5.1,59-10C489,111.2,482.6,107.5,481,99.8z M470,108.5
				c-9.8,3.1-20.8,3.7-31,4.4c-13.3,1-26.7,1.7-40,1.7c-5.6,0-11.1-0.1-16.7-0.3c-3.8-0.2-8.2-0.8-10.4-4.2
				c-3.4-5.2-0.8-8.9,4.2-11.5c8.3-4.4,23.3-5.6,27.7-6.2c16.5-2,33.1-2,49.6-1.2c5.8,0.3,16.1-0.3,20.9,3.8
				C480.8,100.6,476.3,106.5,470,108.5z"/>
			<path class="st5" d="M379,103.8c28.7-7.5,58.5-9.5,88-6"/>
			<path class="st6" d="M379,103.8c7.1-2.1,14.3-3.7,21.6-5c7.3-1.3,14.7-2.1,22.1-2.7s14.8-0.6,22.2-0.4c3.7,0.1,7.4,0.4,11.1,0.7
				c3.7,0.3,7.4,0.8,11,1.3c-3.7-0.3-7.4-0.6-11.1-0.8s-7.4-0.3-11.1-0.4c-7.4-0.1-14.8,0-22.1,0.6s-14.7,1.3-22,2.4
				S386.2,102.2,379,103.8z"/>
			<path class="st5" d="M378.5,106.3c14.4-1.6,29.4-2.9,45-4c15.5-1,30.6-1.7,45-2"/>
			<path class="st5" d="M378.5,106.3c7.5-1,14.9-1.9,22.4-2.6s15-1.3,22.5-1.9s15-0.9,22.5-1.1l11.3-0.3c3.8,0,7.5-0.1,11.3-0.1
				l-22.5,1.1c-7.5,0.4-15,0.8-22.5,1.4s-15,1-22.5,1.6L378.5,106.3z"/>
			<path class="st5" d="M381.5,109.3c13.2,0.3,27.6,0.1,43-1s29.9-2.9,43-5"/>
			<path class="st6" d="M381.5,109.3c7.2,0,14.4-0.1,21.6-0.4s14.4-0.6,21.5-1.1s14.3-1.1,21.5-1.9c3.6-0.4,7.1-0.8,10.7-1.2
				s7.1-0.9,10.7-1.4c-3.5,0.7-7.1,1.3-10.6,1.9s-7.1,1-10.7,1.5c-7.1,0.9-14.3,1.6-21.5,2.1s-14.4,0.8-21.6,0.9
				S388.7,109.7,381.5,109.3z"/>
			<path class="st5" d="M385.5,127.3c14.7,0.9,29.3,0.9,44,0c13.4-0.8,25.8-2.2,37-4"/>
			<path class="st5" d="M385.5,127.3c6.8,0.2,13.5,0.3,20.3,0.2s13.5-0.2,20.3-0.6s13.5-0.8,20.2-1.4c3.4-0.3,6.7-0.6,10.1-1
				s6.7-0.8,10.1-1.2c-3.3,0.6-6.7,1.2-10,1.7s-6.7,0.9-10.1,1.3c-6.7,0.8-13.5,1.3-20.3,1.7s-13.5,0.4-20.3,0.3
				c-3.4-0.1-6.8-0.2-10.2-0.3S388.9,127.6,385.5,127.3z"/>
			<path class="st5" d="M387.5,132.3c14.3,1.1,28.7,1.1,43,0c11.8-0.9,23.5-2.6,35-5"/>
			<path class="st1" d="M387.5,132.3c6.5,0.3,13.1,0.5,19.6,0.4s13-0.2,19.6-0.7s13-1,19.5-1.8c3.2-0.4,6.5-0.8,9.7-1.4
				c3.2-0.5,6.5-1,9.7-1.6c-3.2,0.8-6.4,1.4-9.6,2.1s-6.4,1.1-9.7,1.6c-6.5,1-13,1.6-19.5,2.1s-13.1,0.6-19.6,0.4
				S394,133,387.5,132.3z"/>
			<path class="st5" d="M391.5,137.4c13.5,1,27.1,1,40.6,0c11.1-0.9,22.2-2.4,33.1-4.7"/>
			<path class="st1" d="M391.5,137.4c6.2,0.3,12.4,0.4,18.5,0.4s12.3-0.2,18.5-0.6s12.3-1,18.4-1.7c3.1-0.4,6.1-0.8,9.2-1.3
				c3.1-0.4,6.1-1,9.1-1.5c-3,0.7-6,1.4-9.1,2s-6.1,1.1-9.1,1.6c-6.1,0.9-12.3,1.5-18.5,2s-12.4,0.5-18.6,0.4
				S397.6,138.1,391.5,137.4z"/>
			<path class="st1" d="M392.5,141.8c12.3,0.7,24.7,0.7,37,0c10.1-0.6,20.2-1.7,30.1-3.4"/>
			<path class="st5" d="M392.5,141.8c5.6,0.1,11.2,0.2,16.8,0.2s11.2-0.2,16.8-0.5s11.2-0.7,16.8-1.2c2.8-0.2,5.6-0.5,8.4-0.9
				c2.8-0.3,5.6-0.6,8.4-1c-2.8,0.6-5.5,1-8.3,1.5s-5.6,0.8-8.4,1.1c-5.6,0.7-11.2,1.1-16.8,1.4s-11.2,0.4-16.9,0.3
				S398.1,142.4,392.5,141.8z"/>
			<path class="st7" d="M386,98.8c0.3,4,0.7,8,1,12"/>
			<path class="st6" d="M386,98.8c1,3.9,1.3,8,1,12C386,106.9,385.7,102.8,386,98.8z"/>
			<path class="st7" d="M390.5,97.3c0.3,4.7,0.7,9.3,1,14"/>
			<path class="st6" d="M390.5,97.3c1,4.6,1.3,9.3,1,14C390.5,106.7,390.2,102,390.5,97.3z"/>
			<line class="st8" x1="396.5" y1="97.3" x2="396.5" y2="111.3"/>
			<path class="st6" d="M396.5,97.3c0.4,2.3,0.5,4.7,0.5,7s-0.1,4.7-0.5,7c-0.4-2.3-0.5-4.7-0.5-7S396.1,99.6,396.5,97.3z"/>
			<path class="st7" d="M402.5,96.4c0.4,4.9,0.8,9.7,1.2,14.6"/>
			<path class="st6" d="M402.5,96.4c1.1,4.8,1.5,9.7,1.2,14.6c-0.6-2.4-0.9-4.8-1.1-7.3C402.4,101.3,402.4,98.9,402.5,96.4z"/>
			<path class="st7" d="M408,94.6c0.4,5.7,0.8,11.3,1.2,17"/>
			<path class="st6" d="M408,94.6c0.6,2.8,0.9,5.6,1.1,8.5c0.2,2.8,0.3,5.7,0.1,8.6c-0.6-2.8-0.9-5.6-1.1-8.5
				C407.9,100.3,407.8,97.4,408,94.6z"/>
			<line class="st8" x1="415.3" y1="94.6" x2="415.3" y2="111.6"/>
			<path class="st6" d="M415.3,94.6c0.4,2.8,0.5,5.7,0.5,8.5s-0.1,5.7-0.5,8.5c-0.4-2.8-0.5-5.7-0.5-8.5
				C414.8,100.3,414.9,97.4,415.3,94.6z"/>
			<path class="st7" d="M464.9,95.2c0,4,0,8,0,12"/>
			<path class="st6" d="M464.9,95.2c0.3,2,0.5,4,0.5,6s-0.2,4-0.5,6c-0.3-2-0.5-4-0.5-6S464.6,97.2,464.9,95.2z"/>
			<path class="st7" d="M460.3,94.1c0,4.7,0,9.3,0.1,14"/>
			<path class="st6" d="M460.3,94.1c0.4,2.3,0.6,4.7,0.5,7c0,2.3-0.1,4.7-0.5,7C459.7,103.5,459.7,98.7,460.3,94.1L460.3,94.1z"/>
			<line class="st8" x1="454.3" y1="94.6" x2="455.4" y2="108.5"/>
			<path class="st6" d="M454.3,94.6c1,4.6,1.4,9.3,1.1,14c-0.5-2.3-0.9-4.6-1-6.9C454.2,99.3,454.2,96.9,454.3,94.6z"/>
			<path class="st7" d="M448.3,94.2l-0.1,14.7"/>
			<path class="st6" d="M448.3,94.2c0.4,2.4,0.5,4.9,0.5,7.3c0,2.5-0.2,4.9-0.5,7.3c-0.3-2.4-0.5-4.9-0.5-7.3
				C447.7,99,447.9,96.6,448.3,94.2z"/>
			<path class="st7" d="M442.7,92.8c0,5.7,0.1,11.4,0.1,17.1"/>
			<path class="st6" d="M442.7,92.8c0.4,2.8,0.6,5.7,0.6,8.5c0,2.9-0.1,5.7-0.4,8.5c-0.4-2.8-0.6-5.7-0.6-8.5
				C442.2,98.4,442.3,95.6,442.7,92.8z"/>
			<line class="st8" x1="435.4" y1="93.3" x2="436.7" y2="110.3"/>
			<path class="st6" d="M438,93.3c0.7,5.7,0.8,11.4,0.1,17.1c-0.4-2.8-0.6-5.7-0.6-8.5C437.5,99,437.7,96.1,438,93.3z"/>
			<path class="st7" d="M432.3,95.2l-0.1,14.7"/>
			<path class="st6" d="M432.3,95.2c0.4,2.4,0.5,4.9,0.5,7.3c0,2.5-0.2,4.9-0.5,7.3c-0.3-2.4-0.5-4.9-0.5-7.3
				C431.7,100,431.9,97.6,432.3,95.2z"/>
			<path class="st7" d="M426.7,93.8c0,5.7,0.1,11.4,0.1,17.1"/>
			<path class="st6" d="M426.7,93.8c0.4,2.8,0.6,5.7,0.6,8.5c0,2.9-0.1,5.7-0.4,8.5c-0.4-2.8-0.6-5.7-0.6-8.5
				C426.2,99.4,426.3,96.6,426.7,93.8z"/>
			<line class="st8" x1="419.4" y1="94.3" x2="420.7" y2="111.3"/>
			<path class="st6" d="M419.4,94.3c1.1,5.6,1.6,11.3,1.3,17c-0.6-2.8-1-5.6-1.2-8.4C419.3,100,419.3,97.2,419.4,94.3z"/>
			<path class="st9" d="M141,107.8c-0.5,1,0.4,3.6,2,9c1.4,4.6,2.9,8.4,4,11c29-2.2,58.2-1.2,87,3c-0.9-2.9-1.2-6-1-9
				c0.5-7.3,3.9-9.8,3-12c-2.2-5.2-23.5,3.8-49,3C162.6,112.1,143.6,102.6,141,107.8z"/>
			<path class="st9" d="M325,129.8c-0.8,1.2,3.6,4.3,7,12c1.4,3.2,2.4,6.6,3,10l50,1c-3-2.3-5.7-5-8-8c-3-3.9-3-5.5-5-7
				c-4.5-3.5-10.3,0.3-18,1C338.4,140.2,326.5,127.7,325,129.8z"/>
		</g>
	</g>
</g>
</svg>
