<?xml version="1.0" encoding="utf-8"?>
<!-- Generator: Adobe Illustrator 23.0.0, SVG Export Plug-In . SVG Version: 6.00 Build 0)  -->
<svg version="1.1" id="Layer_1" xmlns="http://www.w3.org/2000/svg" xmlns:xlink="http://www.w3.org/1999/xlink" x="0px" y="0px"
	 viewBox="0 0 1399.5 694" style="enable-background:new 0 0 1399.5 694;" xml:space="preserve">
<style type="text/css">
	.st0{fill:#121E3A;}
	.st1{fill:#04123A;stroke:#C8ACEF;stroke-width:7;stroke-miterlimit:10;}
	.st2{fill:none;}
	.st3{fill:#C8ACEF;}
	.st4{fill:#F2CCE9;}
	.st5{fill:#7371AF;}
	.st6{clip-path:url(#SVGID_3_);}
	.st7{fill:#2B3652;}
	.st8{fill:#04123A;}
	.st9{fill:none;stroke:#C8ACEF;stroke-width:2;stroke-miterlimit:10;}
	.st10{opacity:0.4;fill:#020D21;enable-background:new    ;}
	.st11{fill:#D63AA2;}
	.st12{fill:#AF0ACC;}
	.st13{enable-background:new    ;}
	.st14{fill:#D63AA2;stroke:#D63AA2;stroke-width:1.3;stroke-miterlimit:10;}
	.st15{fill:none;stroke:#C8ACEF;stroke-width:4;stroke-miterlimit:10;}
</style>
<title>club</title>
<rect x="102.5" y="473" class="st0" width="15" height="146"/>
<polyline class="st1" points="862.4,694 859.7,423.5 726.1,425.5 726.1,693.5 "/>
<line class="st2" x1="110" y1="494.5" x2="110" y2="632.5"/>
<path class="st3" d="M833.7,445.4c11.9,3.4,4,43.4,4.7,125.2c0.5,67.5,6.5,105.7-6.6,110.1c-7.7,2.6-17.5-7.8-20.9-11.4
	c-21.1-22.3-10.2-46.6-12.3-126.2c-0.9-32.9-3.3-52.1,9.5-74C809.3,467.1,823.9,442.6,833.7,445.4z"/>
<path class="st3" d="M780.4,445.8c11.7,3.4,4,42.5,4.7,122.7c0.6,66.1,6.4,103.5-6.5,107.9c-7.5,2.5-17.1-7.7-20.5-11.2
	c-20.7-21.9-10-45.7-12.1-123.7c-0.8-32.2-3.3-51,9.3-72.5C756.5,467,770.8,443,780.4,445.8z"/>
<path class="st3" d="M125.5,506c-5.4,5.9-3.4,11-3,51c0.4,34.5-1.2,39.4,4,45c6.9,7.5,15.4,4.9,55,5c41.6,0.1,49,3.1,56-4
	c5.5-5.6,4.2-10.7,5-53c0.6-34.1,1.7-38.8-3-44c-6.9-7.8-15.9-5.2-57-5C140.3,501.2,132.3,498.6,125.5,506z"/>
<path class="st3" d="M273.5,507c-5.8,7-2.5,13.3-3,51c-0.4,30-2.5,34.5,2,41c7.7,10.9,22.8,10.6,58,11c81.5,0.9,94.4,3.6,103-8
	c3.6-4.8,4.1-20,5-50c0.8-27.1,1.2-40.7-2-45c-11.9-16.3-36.9-2.3-106-5C297.2,500.7,282.1,496.6,273.5,507z"/>
<path class="st4" d="M336.6,506c-1.3,2,0.2,3.3-1,6s-3.5,3-7.5,6c-2.9,2.2-7,5.3-6.5,7.5c0.9,4,16.3,3.6,19.9,3.5
	c6-0.2,16.1-0.5,17-4c0.7-2.9-4.9-7.2-6-8c-3.8-2.8-6-2.6-7-5c-1.4-3.3,1.9-6.2,0.5-8S338.6,502.9,336.6,506z"/>
<path class="st3" d="M475.5,511c-5.2,7.4-1.4,12.9,0,47c1.3,32.3-1.6,38,4,45c8.6,10.7,24.1,8.1,56,7c73.2-2.5,95.4,7.9,105-7
	c5.4-8.4-1-12.7-1-50c0-31.7,4.6-34.7,0-42c-8.7-13.7-27.9-8.6-104-9C497.8,501.8,482.9,500.4,475.5,511z"/>
<path class="st3" d="M674.5,500c3.2-1.4,4.8,0.8,19,1c11.1,0.2,11.7-1.1,14,0c9.6,4.5,1.8,27.9,3,65c0.9,27.4,6.1,44.4-2,49
	c-2.1,1.2-7.7,0.8-19,0c-9.5-0.7-14.3-1-16-2c-8.9-5.2-4.9-22.3-4-51C670.6,524.9,665.5,503.9,674.5,500z"/>
<g>
	<g>
		<g>
			<path id="SVGID_1_" class="st5" d="M97.3,635.3c4.6,0.2,9.2,0.4,13.8,0.4c1.1-0.1,2.1-0.8,2.6-1.8c2.3-8.3,4.4-16.7,6.4-25
				c0.3-2.1,0.3-4.2-0.3-6.2c-2.4-11.7-5-23.3-7.5-34.9c5.6-0.8,6.7-0.2,7.7,4.2c1.6,6.9,3.2,13.9,4.9,20.9c3-3,6-5.7,8.7-8.6
				c0.7-1,1.1-2.1,1.2-3.3c0.6-5.3,1.3-10.8-2.2-15.5c-1.6-2.2-0.5-3.4,0.4-4.5c2.8-3.8,3.6-7.9,3.6-12.4c0.1-6.4,7.7-10,14.1-6.7
				c0.6,0.3,1.5,0.8,1.6,1.3c0.8,2.7,1.5,5.5,2,8.3c0.4,2.3,0.4,4.3-3.3,4.5c-0.9,0.1-1.6,2.3-2.6,3.9c4.6,0.9,6.1,3.4,6.8,7
				c0.4,2,2.6,3.7,4,5.5c-2.5,1.8-3.9,8.9-1.7,11c1.4,1.3,3.9,2,6,2.1c9,0.5,17.9,0.8,26.8,1.1c1,0,2.9-1,2.9-1.6
				c-0.1-2.2-0.5-4.3-1-6.4c-0.4-1.4-0.8-2.9-0.9-4.4c0-0.5,1.4-1.2,2.2-1.3c1,0,2.8,0.5,3,1c0.4,1.4,0.8,3.7,0,4.2
				c-2.3,1.5-2.1,3.5-1.8,5.5c0.2,1,1.2,2.9,1.9,2.9c1.9,0,3.8-0.5,3.6-2.9c-0.2-2.6-0.2-5.2,0-7.8c0.2-1.7,1.2-3.3,1.5-5
				c0.4-2,0.6-4,1-6.9c0.9,0.9,1.8,1.5,1.9,2.1c1.1,6.1,2.1,12.2,3.1,18.9c3.6-0.1,7.8,0,11.8-0.5c0.9-0.1,1.5-2.2,2.8-4.4
				c-3.1-0.1-5.1-0.2-7.1-0.3c-0.3,0-0.9-0.1-1-0.3c-0.8-1.8-1.4-3.7-1.8-5.7c-0.1-0.7,1.4-1.5,2.4-2.5c-1.4-1.8-0.5-3.9,1.6-5.2
				c0.8-0.5,3.9,0.6,4,1.2c0.2,1.9-0.4,3.8-0.6,5.7h-1.1l4.1,2.7c0.3-2,0.4-4,0.5-6c-0.1-3.2,1.2-5.5,4.3-7c1.2-0.6,2.6-1.9,2.7-3
				c0.2-2.5-2.4-1.3-3.7-1.8c-0.2-0.1-0.3-0.2-0.5-0.3c-0.4-2.2-0.9-4.3-1.3-6.2l3.8-9.6c4.2-0.4,9.6-2.1,13.3,3
				c3.2,4.5,0.1,8.2-2.9,12.4c2.6,1.7,5.1,3.4,7.7,5c1.5,0.9,3.1,1.6,4.6,2.5c2.4,1.6,3.4,3.7,2.5,6.2c-2.2,6.3-2.8,12.7-0.2,19.2
				c0.4,1.1-0.1,2.4,0.5,3.8c1.2-5.4,2.4-10.7,3.6-16.1c1-4.2,2-4.8,7.3-3.5c-2.1,10.4-4.4,20.8-6.3,31.3c-0.5,2.7-0.4,5.6,0.2,8.3
				c1.8,8,4,15.9,5.8,23.8c0.5,2.3,1.6,3,4,3c8.8-0.1,6.7,1.5,8.6-6c1.9-7.2,3.9-14.5,5.2-21.8c0.6-3.2,0.4-6.6-0.6-9.7
				c-3.2-9.6-7-19.1-10.6-28.7c5.8-0.8,6.7-0.3,8.7,4.3c1.6,3.9,3.4,7.7,5.5,11.3c0-1.4-0.1-2.8,0-4.2c0.6-6.7,1.3-13.5,2.1-20.2
				c0.1-0.8,0.9-1.5,1.1-2.3c0.3-1.1,0.8-2.5,0.4-3.5c-1.8-4.6,0.1-8.4,2.5-12c0.9-1,2.1-1.6,3.5-1.5c3,0.6,6,1.4,8.9,2.4
				c0.7,0.3,1.3,0.9,1.5,1.7c0.2,2.4,0.2,4.8,0,7.2c-0.5,3.8-0.7,3.7-4.3,3.7c-1.1,1.1-2.1,2.3-3,3.7c-0.4,1-0.3,2,0.2,2.9
				c1.6,2.9,3.4,5.7,5.2,8.5c2.1,3.1,2,4.4-1,6.4c-2.8,1.9-0.9,3.8,0.5,5.1c2.3,2,5.2,3.5,8.3,5.7c0.2-3.1,0.4-5.4,0.6-8.1
				c4.2,0.2,8.4,0.5,12.6,0.4c2,0,5.2-0.2,5.6-1.2c1.2-2.4,0.4-5.4-1.9-6.9c-0.5-0.4-0.9-0.9-1.3-1.5l6.1,0.2
				c-0.9,2.4-1.6,4.8-2.2,7.2c-0.1,0.6,1.3,2.1,2.1,2.2c2.8,0.4,5.6,0.3,8.7,0.4l-0.1-7.9l-3.2-1.3c0-5.5,0-11-0.2-16.5
				c-0.1-1.3-0.7-2.6-1.7-3.5c-2.4-1.8-3.7-4.7-3.5-7.8c0.3-5.1,0.9-10.3,1.4-15.4c0.3-3.3,2.1-5.3,5.4-6.8c3.1-1.6,6-3.5,8.7-5.7
				c1.7-1.3,2-2.9,0.5-5c-2-2.7,0.2-8.8,3.3-10.1c3.5-1.6,10.2,0.6,11,4.1c0.5,2.3-1,5-1.7,7.4c-0.4,0.8-0.8,1.7-1.3,2.4
				c-2,4-1.6,5.3,3,7.2c4.3,1.9,7.2,4.5,7.9,8.9c0.1,0.9,1.3,1.6,1.6,2.5c1.4,4.2,3.1,8.4,3.6,12.7c0.4,2.9-3.9,4.8-7.2,3.9
				c-0.6-0.2-1.3-0.4-2.3-0.7c-0.1,1.8-0.4,3.3-0.4,4.8c-0.1,2.5,0,5.1,0.5,7.6c1.6,6.3-1.4,11.9-1.7,17.9c0,0.6-0.1,1.2-0.2,2.6
				c2.6-0.4,6.2,0,6.9-1.2c1.6-2.9,0.4-6.1-3.7-8.6l6.8,0.3c-0.7,2.1-1.6,4.4-2.2,6.7c-0.5,1.9,0.9,2.7,2.7,2.8
				c5.9,0.3,11.9,0.5,17.5,0.7c1-4.8,1.8-9.3,2.9-13.8c0.8-3.5,3.8-6,7.4-6.2v-0.8c-1.1-0.2-2.3-0.2-3.4-0.1
				c-2.2,0.5-3.3-0.4-3.3-2.3c0-3.2-0.2-6.5,0.5-9.5c0.3-1.3,2.7-2.5,4.4-2.9c3.1-0.6,6.6-0.7,8.7,2.5c1.1,1.8,1.9,3.8,2.2,5.9
				c0.5,2.9,1.5,5.2,4.6,6.5c2,0.7,3.1,2.9,2.4,5c0,0.1-0.1,0.2-0.1,0.3c-0.8,2.2-0.1,4.1,0.5,6.2c1.5,5,2.6,10.1,3.9,15.5
				c1.3-3.4,2.6-6.7,3.9-10.1c1.8-4.6,2.1-4.8,8.1-3.9c-0.3,1.2-0.6,2.3-1,3.4c-2.7,8.1-5.5,16.2-8,24.4c-0.8,2.6-0.9,5.3-0.4,7.9
				c1.8,8.8,4.1,17.5,6.1,26.2c0.4,1.8,1.2,2.4,3.1,2.5c8.4,0.4,8.4,0.5,10.2-7.2c1.5-6.3,3.1-12.6,4.2-19c0.5-2.8,0.3-5.7-0.6-8.5
				c-3.3-9.8-7.1-19.5-10.7-29.2c4.7-1.2,6.2-0.5,7.9,3.6c3,7.4,6.1,14.7,9.2,22.1c0.5,1,1.1,2,1.8,2.9l1.1-0.4
				c-0.6-2.1-1.1-4.3-1.5-6.5c-0.3-2.4-0.3-4.9,0-7.3c0.4-3,1.4-6,1.9-9c1.2-7,5-12.4,10.1-17.2c1.4-1.3,1.6-2.1,0.3-3.9
				c-3.5-4.7-2.7-8.8,2.2-11.8c1.9-1.2,10.1,0.7,11.2,2.6c0.2,0.4,0.2,0.8,0.2,1.2c-0.3,3.5-0.4,3.5,1.5,5.7l-1.8,6.3h-2.2
				c-1.6,0-3.6,2.4-2.9,3.8c2.4,4.4,4.9,8.7,7.2,12.6c7.6,0.4,10.4-6.1,16.1-8.5c-2.9-1.4-3.6-3.5-2.4-5.6c0.4-0.7,3-1.1,3.7-0.6
				c2,1.5,2.6,3.6,0.7,5.6c3.6,1.4,1.5,4.2,1.9,6.3c0,0.2-1.9,0.8-2.9,1c-1.5,0-2.8,0.7-3.7,1.9c-1.8,2.5-4.4,4.5-7.2,7.2l20.5,0.8
				l0.3,0.7l-2,0.2l0.7,0.9l29,1.1l-1.7-1.5L557,596l-1.5,1.5l6,0.2c0.3,1.5,0.6,2.8,1,4.4l3.9-0.2l0.4-0.6
				c-4.2-2.9-5.7-8.4-10.9-10.7c-0.1-0.5-0.4-1.4-0.6-2.3c-0.2-0.6-0.4-1.2-0.4-1.9c0.3-2,0.9-3.9,1.7-5.7c0.6-1,1.7-1.6,2.9-1.7
				c1.8,0,2.8,1.1,2.5,3.1c-0.2,1.3-0.3,2.6-0.4,3.9c-0.6,5.3,1,7.7,6.7,9.7c-0.7-1.1-1.3-2.3-1.8-3.5c-0.2-1-0.1-2.5,0.5-2.9
				c1.7-1.1,2-2.5,1.7-4.4c-0.7-3.6,1.8-4.4,5-4.9l-1.9-4.7c-4.3-0.1-5.6-2.3-4.3-6.3c0.3-1.3,0.2-2.6-0.3-3.8
				c-0.7-2.2,0.2-3.6,2.1-3.9c2.5-0.4,5.1-0.5,7.6-0.1c2.5,0.3,4.4,2.5,4.3,5c0.1,2.7,0,5.3-0.4,8c-0.1,0.8-1.2,1.4-2.3,2.5l4.5,9.4
				l4.9,0.4c-2.7,8-5,15.8-8.1,23.4c-2.4,5.7-2.7,12.1-0.7,18c1.9,6.2,3.2,12.5,4.7,18.8c0.4,1.9,1.3,2.4,3.2,2.5
				c8.8,0.3,8.8,0.4,10.5-8c1.2-5.9,2.7-11.7,3.5-17.6c0.5-3.1,0.2-6.2-0.7-9.2c-3-9.2-6.6-18.3-9.9-27.5c4.9-0.7,5.6-0.3,7.3,3.8
				c1.4,3.5,2.9,7,4.7,10.6c1.2-10.6,5-19.7,13.2-26.3c-1.7-2.4-3.3-4.4-4.7-6.5c-1.8-2.8-0.7-5,2.4-5.3c0.5-0.1,0.9-0.2,1.3-0.5
				c3.6-2,6.8-1.8,10.2,0.9c0.9,0.7,1.5,1.6,1.7,2.8c0,3.1-0.2,6.3-0.6,9.4c-0.4,0.9-1.3,1.5-2.2,1.5c-1.8-0.5-3.8,0.4-4.6,2.1
				c2.8,5.6,5.4,10.7,8.3,16.5c1-2.8,1.9-5.6,2.7-8.4c0.9-4.4,3-6.8,8-6.3l-1.1,1.4l0.4,0.9l5.3-1.4c-0.1,0.7-0.3,1.4-0.5,2.7
				c-1.8,0.1-4.1,0.4-6.4,0.3c-1.9,0-2.7,0.8-2.9,2.5c-0.4,3.2-0.8,6.5-1.3,9.7c-0.4,1.9-1,3.8-1.6,5.6c0.8,0.1,1.7,0.3,2.6,0.3
				c11.7,0.4,23.3,0.9,34.9,1.2c1.6,0,3.1-0.6,4.3-1.6c3.9-3.8,8.5-7,11-12c0.9-1.5,1.5-3.1,1.8-4.8c0.5-3,1.6-5.3,4.7-6.3
				c1-0.3,1.6-1.4,2.9-2.7c-1-0.2-2-0.4-3-0.5c-1.9,0-2.7-0.5-2.7-2.8c-0.1-2.1-0.5-4.2,0-6.2c0.6-2.7,1.8-4.9,4.8-5.5
				c2.5-0.5,5.2-1.1,7.2,1.4s2.8,5.3,1.2,8c-1.8,3,0.4,5,2.3,6.1c7.1,4.2,8.7,10,7.4,17.3c-0.7,4-0.6,8.3-0.8,12.4l1,0.2
				c1.5-4,3-8,4.5-12s2-4.2,6.8-3.2c-1.7,5.2-3.4,10.5-5.1,15.7c-1.2,3.9-2.8,7.7-3.7,11.6c-0.6,2.4-0.7,5-0.3,7.5
				c1.7,7.9,3.8,15.7,5.7,23.5c0.4,1.7,1.1,2.5,3,2.5c2.7-0.1,5.5,0,8.2,0.1l0.2,7.7L97.2,644.3L97.3,635.3L97.3,635.3z
				 M490.9,604.3c6.8,1.3,6.8,6.8,7.8,11.2c1.4,6,2,12.2,2.9,18.4c0.4,3.4,2.4,6.5,5.4,8.2c2.2,1.2,5.5,1.5,6.8,3.2
				c2.6,3.2,5.2,1.2,7.9,2l-0.6-41.8L490.9,604.3z M195,616.8c1.1,4.7-5.6,5.2-4.9,9.6c0.6,3.7,0.1,7.5,0.2,11.6
				c5.1,0.1,9.7,0,14.2,0.5c4.7,0.5,9.3-0.3,13.6-2.2c2.3-1,4.9-2.1,2.6-5.3c-1.3-1.7-2.5-3.6-3.5-5.5c-2.5-4.9-4.9-9.8-7.3-14.7
				c-3-6.1-2-8.3,4.7-10.7c3.2-1.1,6.4-2.1,10.6-3.4l-34.6-1.2l0.1,21.4L195,616.8z M277.7,640l39.2,1.1c-0.4-2.9-1-5.3-1.2-7.7
				c-0.3-4-0.1-8-0.6-12c-0.5-3.8-3.1-6-7.3-6.3c-5.2-0.3-10.4-0.5-15.6-0.5c-4.2,0-7.5,1.8-8.7,5.5
				C281.5,626.6,279.7,633.2,277.7,640z M431.5,644.5c-1.9-6.9-3.5-13.5-5.5-19.9c-1.2-3.8-4.3-5.7-8.3-5.9c-5-0.3-10-0.5-15-0.5
				c-3.2,0-6,1.2-6.5,4.2c-1.1,6.9-1.6,14-2.4,21.1L431.5,644.5z M548.2,647.6l35.1,1c-1.9-6.5-3.6-12.7-5.7-18.8
				c-1.1-3.3-4.1-5-7.6-5.2c-4.6-0.3-9.2-0.4-13.8-0.5c-3.5,0-5.8,1.8-6.3,5C549.2,635.2,548.7,641.3,548.2,647.6L548.2,647.6z
				 M630.5,650c-0.7-6.6-1.3-12.8-2.1-19c-0.2-3-2.7-5.4-5.8-5.5c-4.5-0.3-9-0.4-13.5-0.4c-3.1,0-5.8,1.4-6.6,4.3
				c-1.9,6.4-3.3,12.9-5,19.7L630.5,650z M716.9,652.4c-1.7-6-3.3-11.7-4.9-17.3c-1.2-4.3-3.7-6.3-8.2-6.6c-2.7-0.2-5.3-0.2-8-0.3
				c-8.2-0.3-9.9,1.3-9.9,9.5c0.1,1.6,0.3,3.2,0.7,4.7c0.1,0.8,0.2,1.6,0.3,2.3c0,2.2-0.2,4.4-0.2,6.8L716.9,652.4z M157.1,634.5
				l-1.8,1.2v-17.4l-5.4,0.4l-0.8-5.5l-13.5-0.4c-13.1-0.4-13.7,0-17.1,11.2c-1.2,3.8-2.3,7.7-3.5,11.7l42.2,1.2L157.1,634.5z
				 M474.3,645.7c0.1-2.5-0.1-4.7,0.4-6.8c0.9-3.4,2.1-6.6,3.5-9.8c1.7-4.3,0-7.2-5-7.5c-4.8-0.3-9.5-0.5-14.3-0.5
				c-4.5,0-7.3,2.2-8.5,6.2c-1.4,5-2.7,9.9-4.1,14.9c-0.2,0.8-0.3,1.7-0.5,2.7L474.3,645.7z M187.8,637.9
				c-0.3-5.8,0.4-11.2-0.4-16.5h-1.2v3c-1.3-3.7-6.4-6.4-4.1-11c0.1-0.3-0.2-0.9-0.5-1.2c-2.6-3.2-5.2-6.3-8.2-10
				c-2.1,4.4-4,8-5.5,11.7c-1.7,3.9-3.1,7.9-4.2,12c-1.2,5.2,2.8,11.1,7.6,11.5C176.4,637.8,181.8,637.7,187.8,637.9L187.8,637.9z
				 M323.3,595.7c0.8,0.9,1.2,1.7,1.8,1.9c3,0.9,3.8,3.2,4.5,5.7c2.9,10.2,6.1,20.2,8.5,30.5c1,4.1,2.8,6.7,7.4,8.4
				c0.4-1.2,1.2-2.4,1.1-3.6c0-2.3-0.7-4.6-0.9-6.8c-0.5-7.1-1-14.2-1.5-21.3c-0.3-4.6-0.7-9.2-1.1-13.9L323.3,595.7z M385.1,598.3
				l-0.1-0.5c-6.3-0.2-12.7-0.5-19-0.6c-0.7,0-1.8,1.3-1.9,2.1c-1.2,9.4-2.3,18.8-3.2,28.2c-0.5,3.9,0.9,7.7,3.8,10.3
				c0.4-0.5,0.7-1,1-1.5c3.5-8.2,7.1-16.3,10.4-24.6c0.6-1.9,0.7-4,0.4-6c-0.5-3.5,0.2-5.1,3.8-6.2
				C381.8,599,383.5,598.7,385.1,598.3L385.1,598.3z M242.2,639.1l21.8,0.6c-2-6.7-3.6-13.1-5.9-19.4c-1-2.3-2.9-4-5.2-4.9
				c-3.6-1-7.5-0.9-10.8-1.2l0.1,12.6L242.2,639.1L242.2,639.1z M653.4,641.7l-0.3,0.2c-0.8-1.1-1.7-2.2-2.7-3.2
				c-1.8-1.5-2.4-3.1-1.5-5.3c0.3-1.1,0.1-2.2-0.5-3.1c-2.2-2.9-4.5-5.6-7.1-8.7c-0.2,5.3-0.7,10.2-0.5,15.1c0,3,0.6,6,1.7,8.8
				c0.9,2,3.1,4.5,5,4.9c4.6,0.8,9.4,0.5,14.1,0.6l-0.2-11.4c-2.2,1.9-3.9,1.7-5.8-0.2c-0.8-0.8-2.3-1-4-1.8L653.4,641.7z
				 M644.4,612.2c1.6,4.3,3.1,8.3,4.7,12.2c1.8,4.5,5.3,7.7,9,10.7c0.8,0.6,1.9,0.7,3.1,1.1l-0.4-23.4L644.4,612.2z M535.3,606
				l-11-0.4l0.6,38.9c4.3-4.3,5.6-9.1,6.1-14.2s1-10.1,1.8-15.1C533.5,612.1,534.3,609,535.3,606z M371.8,633.7l1,0.1
				c0.2,1.8,0.2,3.6,0,5.4c-0.5,2.7,0.1,3.7,3.1,3.9c5.4,0.5,9.9-3.6,9.1-9c-0.7-4.7-2.4-9.4-3.7-14.6L371.8,633.7z M664,649.3
				c1.5-0.6,3-1.2,4.5-2c0.7-0.5,1-1.3,1-2.1c-0.6-4.7-1.7-9.4-2-14.2c-0.5-6-1.8-12.2,0.8-17.8l-5-0.2L664,649.3z M630.9,619.4
				c-1.4,10.2,0.9,20.3,0.9,30.5l3.8,0.1c-0.5-1.7-0.9-3.4-1.2-5.2c-0.1-1.2,0-2.8,0.8-3.4c1.8-1.3,1.8-2.8,1.4-4.7
				c-1-4.6-2.8-9.2-1.6-14C636,619.2,635.3,618.7,630.9,619.4L630.9,619.4z M495.3,646c0-1-0.1-1.9-0.2-2.9
				c-1.2-5.4-2.5-10.9-3.7-16.3c-0.2-0.8-0.4-1.5-0.8-3c-2.1,4.4-4.7,7.3-5.4,11.9c-0.7,5.1,1.2,6.7,5.4,8.3
				C492.1,644.5,493.5,645.2,495.3,646z M620.7,593.5c-0.9,0.9-1.5,2-2.3,2.2c-3.3,0.9-3.6,3.5-4,6.2c-0.4,2.5,1.3,4.9,3.8,5.4
				c0.5,0.1,1.1,0.1,1.6,0c1.3-0.2,2.6-0.4,3.9-0.7c1.8-0.3,3.3-3.6,2.3-5.2C624.4,598.8,622.6,596.3,620.7,593.5z M405.1,584.8
				c-2.2,1.8-4.3,3.5-6.4,5.3c-0.4,0.4-0.7,0.9-0.7,1.5c0.4,2,0.9,4,1.4,6.1c4.5-0.2,9.6,1.2,11.1-3.7
				C411.9,589.9,409.7,586.5,405.1,584.8L405.1,584.8z M386.7,611.4c0.8,6.4,1.5,12.7,2.3,19c0.5,4.3,4.6,8,2.5,12.8
				c0.6-1.1,0.9-2.4,0.9-3.7c0.3-7.3,0.6-14.6,0.8-21.9C393.4,612,392.8,611.5,386.7,611.4z M233,634.2l1.2-0.2
				c-2.7-6.5,0.5-13.4-3.4-19.8c-5.6,1-6.8,3.2-4.4,7.7C228.6,626,230.8,630.1,233,634.2z M330.4,640.5c-0.1-3.5-2.4-7.1,1.3-9.7
				c0.1-0.1-0.1-0.8-0.3-1.2c-1.9-3-3.8-6.1-6-9.7c-0.5,3.8-1.4,7-1.2,10.2C324.4,634.1,324.4,638.7,330.4,640.5L330.4,640.5z
				 M186.8,611.5l0.6-0.3l-0.1-15.8l-9.9-0.3C180.7,600.8,183.8,606.2,186.8,611.5L186.8,611.5z M538.2,625.3
				c-1.2,2.9-2.2,5.8-3.5,8.6c-0.8,1.8-0.8,3.3,0.8,5c0.7,0.7,0.5,2.4,0.4,3.6c-0.2,0.9-0.6,1.8-1.1,2.6l0.9,0.3
				C540.8,639.6,539.4,632.5,538.2,625.3L538.2,625.3z M546.8,639.3c1.3-16.6,1-20.2-1.2-21.2c-0.6,4.8-1,9.9-2,14.9
				C543,635.9,543.8,637.8,546.8,639.3L546.8,639.3z M483.3,593.7l-4.2-3.2l-1.9,11.3l4.3,0.8C482.1,599.6,482.7,596.8,483.3,593.7z
				 M405.1,573.7l-0.4-1.2c-1.1,0-2.2,0.1-3.2,0.4c-4.3,2-3.1,5.8-2.5,9.6C401.1,579.5,403.1,576.6,405.1,573.7L405.1,573.7z
				 M158.5,622.7l5.7-20.1c-0.7,0.5-2,1-2.4,1.8c-0.5,1.3-0.9,2.7-1.1,4.1C159.6,612.9,156.5,617,158.5,622.7L158.5,622.7z
				 M229,596.6c1.7-1.3,3.4-1.9,3.6-2.8c0.6-2.7-1.8-7.1-4.2-7.9C228.6,589.1,228.8,592.3,229,596.6L229,596.6z M150.8,579.6
				c-3.9,3.1-4.9,6.2-2.9,9l0.7-3.2l3.2-0.6C151.4,583,151.2,581.5,150.8,579.6L150.8,579.6z M688.2,599l-5.1,5.5
				C686.6,605,688.2,603.5,688.2,599z M332.3,637l-0.8,0.4v4.3l4,0.1C334.2,639.9,333.3,638.4,332.3,637z M544.5,643.6l-0.8-0.3
				l-2.9,4.2l3.8,0.1L544.5,643.6z M533.6,643l-3.9,4C533.8,648.1,534,646.2,533.6,643z M481.8,619.5l1,0.4l3.2-5.2
				C481.5,614.8,483.6,618.4,481.8,619.5z M636.7,646.2l-0.6,0.3l0.1,3.7l3.5-0.1C638.4,648.5,637.5,647.3,636.7,646.2z"/>
		</g>
		<g>
			<g>
				<g>
					<g>
						<g>
							<g>
								<defs>
									<path id="SVGID_2_" d="M97.3,635.3c4.6,0.2,9.2,0.4,13.8,0.4c1.1-0.1,2.1-0.8,2.6-1.8c2.3-8.3,4.4-16.7,6.4-25
										c0.3-2.1,0.3-4.2-0.3-6.2c-2.4-11.7-5-23.3-7.5-34.9c5.6-0.8,6.7-0.2,7.7,4.2c1.6,6.9,3.2,13.9,4.9,20.9c3-3,6-5.7,8.7-8.6
										c0.7-1,1.1-2.1,1.2-3.3c0.6-5.3,1.3-10.8-2.2-15.5c-1.6-2.2-0.5-3.4,0.4-4.5c2.8-3.8,3.6-7.9,3.6-12.4
										c0.1-6.4,7.7-10,14.1-6.7c0.6,0.3,1.5,0.8,1.6,1.3c0.8,2.7,1.5,5.5,2,8.3c0.4,2.3,0.4,4.3-3.3,4.5
										c-0.9,0.1-1.6,2.3-2.6,3.9c4.6,0.9,6.1,3.4,6.8,7c0.4,2,2.6,3.7,4,5.5c-2.5,1.8-3.9,8.9-1.7,11c1.4,1.3,3.9,2,6,2.1
										c9,0.5,17.9,0.8,26.8,1.1c1,0,2.9-1,2.9-1.6c-0.1-2.2-0.5-4.3-1-6.4c-0.4-1.4-0.8-2.9-0.9-4.4c0-0.5,1.4-1.2,2.2-1.3
										c1,0,2.8,0.5,3,1c0.4,1.4,0.8,3.7,0,4.2c-2.3,1.5-2.1,3.5-1.8,5.5c0.2,1,1.2,2.9,1.9,2.9c1.9,0,3.8-0.5,3.6-2.9
										c-0.2-2.6-0.2-5.2,0-7.8c0.2-1.7,1.2-3.3,1.5-5c0.4-2,0.6-4,1-6.9c0.9,0.9,1.8,1.5,1.9,2.1c1.1,6.1,2.1,12.2,3.1,18.9
										c3.6-0.1,7.8,0,11.8-0.5c0.9-0.1,1.5-2.2,2.8-4.4c-3.1-0.1-5.1-0.2-7.1-0.3c-0.3,0-0.9-0.1-1-0.3c-0.8-1.8-1.4-3.7-1.8-5.7
										c-0.1-0.7,1.4-1.5,2.4-2.5c-1.4-1.8-0.5-3.9,1.6-5.2c0.8-0.5,3.9,0.6,4,1.2c0.2,1.9-0.4,3.8-0.6,5.7h-1.1l4.1,2.7
										c0.3-2,0.4-4,0.5-6c-0.1-3.2,1.2-5.5,4.3-7c1.2-0.6,2.6-1.9,2.7-3c0.2-2.5-2.4-1.3-3.7-1.8c-0.2-0.1-0.3-0.2-0.5-0.3
										c-0.4-2.2-0.9-4.3-1.3-6.2l3.8-9.6c4.2-0.4,9.6-2.1,13.3,3c3.2,4.5,0.1,8.2-2.9,12.4c2.6,1.7,5.1,3.4,7.7,5
										c1.5,0.9,3.1,1.6,4.6,2.5c2.4,1.6,3.4,3.7,2.5,6.2c-2.2,6.3-2.8,12.7-0.2,19.2c0.4,1.1-0.1,2.4,0.5,3.8
										c1.2-5.4,2.4-10.7,3.6-16.1c1-4.2,2-4.8,7.3-3.5c-2.1,10.4-4.4,20.8-6.3,31.3c-0.5,2.7-0.4,5.6,0.2,8.3
										c1.8,8,4,15.9,5.8,23.8c0.5,2.3,1.6,3,4,3c8.8-0.1,6.7,1.5,8.6-6c1.9-7.2,3.9-14.5,5.2-21.8c0.6-3.2,0.4-6.6-0.6-9.7
										c-3.2-9.6-7-19.1-10.6-28.7c5.8-0.8,6.7-0.3,8.7,4.3c1.6,3.9,3.4,7.7,5.5,11.3c0-1.4-0.1-2.8,0-4.2
										c0.6-6.7,1.3-13.5,2.1-20.2c0.1-0.8,0.9-1.5,1.1-2.3c0.3-1.1,0.8-2.5,0.4-3.5c-1.8-4.6,0.1-8.4,2.5-12
										c0.9-1,2.1-1.6,3.5-1.5c3,0.6,6,1.4,8.9,2.4c0.7,0.3,1.3,0.9,1.5,1.7c0.2,2.4,0.2,4.8,0,7.2c-0.5,3.8-0.7,3.7-4.3,3.7
										c-1.1,1.1-2.1,2.3-3,3.7c-0.4,1-0.3,2,0.2,2.9c1.6,2.9,3.4,5.7,5.2,8.5c2.1,3.1,2,4.4-1,6.4c-2.8,1.9-0.9,3.8,0.5,5.1
										c2.3,2,5.2,3.5,8.3,5.7c0.2-3.1,0.4-5.4,0.6-8.1c4.2,0.2,8.4,0.5,12.6,0.4c2,0,5.2-0.2,5.6-1.2c1.2-2.4,0.4-5.4-1.9-6.9
										c-0.5-0.4-0.9-0.9-1.3-1.5l6.1,0.2c-0.9,2.4-1.6,4.8-2.2,7.2c-0.1,0.6,1.3,2.1,2.1,2.2c2.8,0.4,5.6,0.3,8.7,0.4l-0.1-7.9
										l-3.2-1.3c0-5.5,0-11-0.2-16.5c-0.1-1.3-0.7-2.6-1.7-3.5c-2.4-1.8-3.7-4.7-3.5-7.8c0.3-5.1,0.9-10.3,1.4-15.4
										c0.3-3.3,2.1-5.3,5.4-6.8c3.1-1.6,6-3.5,8.7-5.7c1.7-1.3,2-2.9,0.5-5c-2-2.7,0.2-8.8,3.3-10.1c3.5-1.6,10.2,0.6,11,4.1
										c0.5,2.3-1,5-1.7,7.4c-0.4,0.8-0.8,1.7-1.3,2.4c-2,4-1.6,5.3,3,7.2c4.3,1.9,7.2,4.5,7.9,8.9c0.1,0.9,1.3,1.6,1.6,2.5
										c1.4,4.2,3.1,8.4,3.6,12.7c0.4,2.9-3.9,4.8-7.2,3.9c-0.6-0.2-1.3-0.4-2.3-0.7c-0.1,1.8-0.4,3.3-0.4,4.8
										c-0.1,2.5,0,5.1,0.5,7.6c1.6,6.3-1.4,11.9-1.7,17.9c0,0.6-0.1,1.2-0.2,2.6c2.6-0.4,6.2,0,6.9-1.2c1.6-2.9,0.4-6.1-3.7-8.6
										l6.8,0.3c-0.7,2.1-1.6,4.4-2.2,6.7c-0.5,1.9,0.9,2.7,2.7,2.8c5.9,0.3,11.9,0.5,17.5,0.7c1-4.8,1.8-9.3,2.9-13.8
										c0.8-3.5,3.8-6,7.4-6.2v-0.8c-1.1-0.2-2.3-0.2-3.4-0.1c-2.2,0.5-3.3-0.4-3.3-2.3c0-3.2-0.2-6.5,0.5-9.5
										c0.3-1.3,2.7-2.5,4.4-2.9c3.1-0.6,6.6-0.7,8.7,2.5c1.1,1.8,1.9,3.8,2.2,5.9c0.5,2.9,1.5,5.2,4.6,6.5c2,0.7,3.1,2.9,2.4,5
										c0,0.1-0.1,0.2-0.1,0.3c-0.8,2.2-0.1,4.1,0.5,6.2c1.5,5,2.6,10.1,3.9,15.5c1.3-3.4,2.6-6.7,3.9-10.1
										c1.8-4.6,2.1-4.8,8.1-3.9c-0.3,1.2-0.6,2.3-1,3.4c-2.7,8.1-5.5,16.2-8,24.4c-0.8,2.6-0.9,5.3-0.4,7.9
										c1.8,8.8,4.1,17.5,6.1,26.2c0.4,1.8,1.2,2.4,3.1,2.5c8.4,0.4,8.4,0.5,10.2-7.2c1.5-6.3,3.1-12.6,4.2-19
										c0.5-2.8,0.3-5.7-0.6-8.5c-3.3-9.8-7.1-19.5-10.7-29.2c4.7-1.2,6.2-0.5,7.9,3.6c3,7.4,6.1,14.7,9.2,22.1
										c0.5,1,1.1,2,1.8,2.9l1.1-0.4c-0.6-2.1-1.1-4.3-1.5-6.5c-0.3-2.4-0.3-4.9,0-7.3c0.4-3,1.4-6,1.9-9c1.2-7,5-12.4,10.1-17.2
										c1.4-1.3,1.6-2.1,0.3-3.9c-3.5-4.7-2.7-8.8,2.2-11.8c1.9-1.2,10.1,0.7,11.2,2.6c0.2,0.4,0.2,0.8,0.2,1.2
										c-0.3,3.5-0.4,3.5,1.5,5.7l-1.8,6.3h-2.2c-1.6,0-3.6,2.4-2.9,3.8c2.4,4.4,4.9,8.7,7.2,12.6c7.6,0.4,10.4-6.1,16.1-8.5
										c-2.9-1.4-3.6-3.5-2.4-5.6c0.4-0.7,3-1.1,3.7-0.6c2,1.5,2.6,3.6,0.7,5.6c3.6,1.4,1.5,4.2,1.9,6.3c0,0.2-1.9,0.8-2.9,1
										c-1.5,0-2.8,0.7-3.7,1.9c-1.8,2.5-4.4,4.5-7.2,7.2l20.5,0.8l0.3,0.7l-2,0.2l0.7,0.9l29,1.1l-1.7-1.5L557,596l-1.5,1.5
										l6,0.2c0.3,1.5,0.6,2.8,1,4.4l3.9-0.2l0.4-0.6c-4.2-2.9-5.7-8.4-10.9-10.7c-0.1-0.5-0.4-1.4-0.6-2.3
										c-0.2-0.6-0.4-1.2-0.4-1.9c0.3-2,0.9-3.9,1.7-5.7c0.6-1,1.7-1.6,2.9-1.7c1.8,0,2.8,1.1,2.5,3.1c-0.2,1.3-0.3,2.6-0.4,3.9
										c-0.6,5.3,1,7.7,6.7,9.7c-0.7-1.1-1.3-2.3-1.8-3.5c-0.2-1-0.1-2.5,0.5-2.9c1.7-1.1,2-2.5,1.7-4.4c-0.7-3.6,1.8-4.4,5-4.9
										l-1.9-4.7c-4.3-0.1-5.6-2.3-4.3-6.3c0.3-1.3,0.2-2.6-0.3-3.8c-0.7-2.2,0.2-3.6,2.1-3.9c2.5-0.4,5.1-0.5,7.6-0.1
										c2.5,0.3,4.4,2.5,4.3,5c0.1,2.7,0,5.3-0.4,8c-0.1,0.8-1.2,1.4-2.3,2.5l4.5,9.4l4.9,0.4c-2.7,8-5,15.8-8.1,23.4
										c-2.4,5.7-2.7,12.1-0.7,18c1.9,6.2,3.2,12.5,4.7,18.8c0.4,1.9,1.3,2.4,3.2,2.5c8.8,0.3,8.8,0.4,10.5-8
										c1.2-5.9,2.7-11.7,3.5-17.6c0.5-3.1,0.2-6.2-0.7-9.2c-3-9.2-6.6-18.3-9.9-27.5c4.9-0.7,5.6-0.3,7.3,3.8
										c1.4,3.5,2.9,7,4.7,10.6c1.2-10.6,5-19.7,13.2-26.3c-1.7-2.4-3.3-4.4-4.7-6.5c-1.8-2.8-0.7-5,2.4-5.3
										c0.5-0.1,0.9-0.2,1.3-0.5c3.6-2,6.8-1.8,10.2,0.9c0.9,0.7,1.5,1.6,1.7,2.8c0,3.1-0.2,6.3-0.6,9.4c-0.4,0.9-1.3,1.5-2.2,1.5
										c-1.8-0.5-3.8,0.4-4.6,2.1c2.8,5.6,5.4,10.7,8.3,16.5c1-2.8,1.9-5.6,2.7-8.4c0.9-4.4,3-6.8,8-6.3l-1.1,1.4l0.4,0.9l5.3-1.4
										c-0.1,0.7-0.3,1.4-0.5,2.7c-1.8,0.1-4.1,0.4-6.4,0.3c-1.9,0-2.7,0.8-2.9,2.5c-0.4,3.2-0.8,6.5-1.3,9.7
										c-0.4,1.9-1,3.8-1.6,5.6c0.8,0.1,1.7,0.3,2.6,0.3c11.7,0.4,23.3,0.9,34.9,1.2c1.6,0,3.1-0.6,4.3-1.6c3.9-3.8,8.5-7,11-12
										c0.9-1.5,1.5-3.1,1.8-4.8c0.5-3,1.6-5.3,4.7-6.3c1-0.3,1.6-1.4,2.9-2.7c-1-0.2-2-0.4-3-0.5c-1.9,0-2.7-0.5-2.7-2.8
										c-0.1-2.1-0.5-4.2,0-6.2c0.6-2.7,1.8-4.9,4.8-5.5c2.5-0.5,5.2-1.1,7.2,1.4s2.8,5.3,1.2,8c-1.8,3,0.4,5,2.3,6.1
										c7.1,4.2,8.7,10,7.4,17.3c-0.7,4-0.6,8.3-0.8,12.4l1,0.2c1.5-4,3-8,4.5-12s2-4.2,6.8-3.2c-1.7,5.2-3.4,10.5-5.1,15.7
										c-1.2,3.9-2.8,7.7-3.7,11.6c-0.6,2.4-0.7,5-0.3,7.5c1.7,7.9,3.8,15.7,5.7,23.5c0.4,1.7,1.1,2.5,3,2.5
										c2.7-0.1,5.5,0,8.2,0.1l0.2,7.7L97.2,644.3L97.3,635.3L97.3,635.3z M490.9,604.3c6.8,1.3,6.8,6.8,7.8,11.2
										c1.4,6,2,12.2,2.9,18.4c0.4,3.4,2.4,6.5,5.4,8.2c2.2,1.2,5.5,1.5,6.8,3.2c2.6,3.2,5.2,1.2,7.9,2l-0.6-41.8L490.9,604.3z
										 M195,616.8c1.1,4.7-5.6,5.2-4.9,9.6c0.6,3.7,0.1,7.5,0.2,11.6c5.1,0.1,9.7,0,14.2,0.5c4.7,0.5,9.3-0.3,13.6-2.2
										c2.3-1,4.9-2.1,2.6-5.3c-1.3-1.7-2.5-3.6-3.5-5.5c-2.5-4.9-4.9-9.8-7.3-14.7c-3-6.1-2-8.3,4.7-10.7
										c3.2-1.1,6.4-2.1,10.6-3.4l-34.6-1.2l0.1,21.4L195,616.8z M277.7,640l39.2,1.1c-0.4-2.9-1-5.3-1.2-7.7c-0.3-4-0.1-8-0.6-12
										c-0.5-3.8-3.1-6-7.3-6.3c-5.2-0.3-10.4-0.5-15.6-0.5c-4.2,0-7.5,1.8-8.7,5.5C281.5,626.6,279.7,633.2,277.7,640z
										 M431.5,644.5c-1.9-6.9-3.5-13.5-5.5-19.9c-1.2-3.8-4.3-5.7-8.3-5.9c-5-0.3-10-0.5-15-0.5c-3.2,0-6,1.2-6.5,4.2
										c-1.1,6.9-1.6,14-2.4,21.1L431.5,644.5z M548.2,647.6l35.1,1c-1.9-6.5-3.6-12.7-5.7-18.8c-1.1-3.3-4.1-5-7.6-5.2
										c-4.6-0.3-9.2-0.4-13.8-0.5c-3.5,0-5.8,1.8-6.3,5C549.2,635.2,548.7,641.3,548.2,647.6L548.2,647.6z M630.5,650
										c-0.7-6.6-1.3-12.8-2.1-19c-0.2-3-2.7-5.4-5.8-5.5c-4.5-0.3-9-0.4-13.5-0.4c-3.1,0-5.8,1.4-6.6,4.3
										c-1.9,6.4-3.3,12.9-5,19.7L630.5,650z M716.9,652.4c-1.7-6-3.3-11.7-4.9-17.3c-1.2-4.3-3.7-6.3-8.2-6.6
										c-2.7-0.2-5.3-0.2-8-0.3c-8.2-0.3-9.9,1.3-9.9,9.5c0.1,1.6,0.3,3.2,0.7,4.7c0.1,0.8,0.2,1.6,0.3,2.3c0,2.2-0.2,4.4-0.2,6.8
										L716.9,652.4z M157.1,634.5l-1.8,1.2v-17.4l-5.4,0.4l-0.8-5.5l-13.5-0.4c-13.1-0.4-13.7,0-17.1,11.2
										c-1.2,3.8-2.3,7.7-3.5,11.7l42.2,1.2L157.1,634.5z M474.3,645.7c0.1-2.5-0.1-4.7,0.4-6.8c0.9-3.4,2.1-6.6,3.5-9.8
										c1.7-4.3,0-7.2-5-7.5c-4.8-0.3-9.5-0.5-14.3-0.5c-4.5,0-7.3,2.2-8.5,6.2c-1.4,5-2.7,9.9-4.1,14.9c-0.2,0.8-0.3,1.7-0.5,2.7
										L474.3,645.7z M187.8,637.9c-0.3-5.8,0.4-11.2-0.4-16.5h-1.2v3c-1.3-3.7-6.4-6.4-4.1-11c0.1-0.3-0.2-0.9-0.5-1.2
										c-2.6-3.2-5.2-6.3-8.2-10c-2.1,4.4-4,8-5.5,11.7c-1.7,3.9-3.1,7.9-4.2,12c-1.2,5.2,2.8,11.1,7.6,11.5
										C176.4,637.8,181.8,637.7,187.8,637.9L187.8,637.9z M323.3,595.7c0.8,0.9,1.2,1.7,1.8,1.9c3,0.9,3.8,3.2,4.5,5.7
										c2.9,10.2,6.1,20.2,8.5,30.5c1,4.1,2.8,6.7,7.4,8.4c0.4-1.2,1.2-2.4,1.1-3.6c0-2.3-0.7-4.6-0.9-6.8
										c-0.5-7.1-1-14.2-1.5-21.3c-0.3-4.6-0.7-9.2-1.1-13.9L323.3,595.7z M385.1,598.3l-0.1-0.5c-6.3-0.2-12.7-0.5-19-0.6
										c-0.7,0-1.8,1.3-1.9,2.1c-1.2,9.4-2.3,18.8-3.2,28.2c-0.5,3.9,0.9,7.7,3.8,10.3c0.4-0.5,0.7-1,1-1.5
										c3.5-8.2,7.1-16.3,10.4-24.6c0.6-1.9,0.7-4,0.4-6c-0.5-3.5,0.2-5.1,3.8-6.2C381.8,599,383.5,598.7,385.1,598.3L385.1,598.3
										z M242.2,639.1l21.8,0.6c-2-6.7-3.6-13.1-5.9-19.4c-1-2.3-2.9-4-5.2-4.9c-3.6-1-7.5-0.9-10.8-1.2l0.1,12.6L242.2,639.1
										L242.2,639.1z M653.4,641.7l-0.3,0.2c-0.8-1.1-1.7-2.2-2.7-3.2c-1.8-1.5-2.4-3.1-1.5-5.3c0.3-1.1,0.1-2.2-0.5-3.1
										c-2.2-2.9-4.5-5.6-7.1-8.7c-0.2,5.3-0.7,10.2-0.5,15.1c0,3,0.6,6,1.7,8.8c0.9,2,3.1,4.5,5,4.9c4.6,0.8,9.4,0.5,14.1,0.6
										l-0.2-11.4c-2.2,1.9-3.9,1.7-5.8-0.2c-0.8-0.8-2.3-1-4-1.8L653.4,641.7z M644.4,612.2c1.6,4.3,3.1,8.3,4.7,12.2
										c1.8,4.5,5.3,7.7,9,10.7c0.8,0.6,1.9,0.7,3.1,1.1l-0.4-23.4L644.4,612.2z M535.3,606l-11-0.4l0.6,38.9
										c4.3-4.3,5.6-9.1,6.1-14.2s1-10.1,1.8-15.1C533.5,612.1,534.3,609,535.3,606z M371.8,633.7l1,0.1c0.2,1.8,0.2,3.6,0,5.4
										c-0.5,2.7,0.1,3.7,3.1,3.9c5.4,0.5,9.9-3.6,9.1-9c-0.7-4.7-2.4-9.4-3.7-14.6L371.8,633.7z M664,649.3c1.5-0.6,3-1.2,4.5-2
										c0.7-0.5,1-1.3,1-2.1c-0.6-4.7-1.7-9.4-2-14.2c-0.5-6-1.8-12.2,0.8-17.8l-5-0.2L664,649.3z M630.9,619.4
										c-1.4,10.2,0.9,20.3,0.9,30.5l3.8,0.1c-0.5-1.7-0.9-3.4-1.2-5.2c-0.1-1.2,0-2.8,0.8-3.4c1.8-1.3,1.8-2.8,1.4-4.7
										c-1-4.6-2.8-9.2-1.6-14C636,619.2,635.3,618.7,630.9,619.4L630.9,619.4z M495.3,646c0-1-0.1-1.9-0.2-2.9
										c-1.2-5.4-2.5-10.9-3.7-16.3c-0.2-0.8-0.4-1.5-0.8-3c-2.1,4.4-4.7,7.3-5.4,11.9c-0.7,5.1,1.2,6.7,5.4,8.3
										C492.1,644.5,493.5,645.2,495.3,646z M620.7,593.5c-0.9,0.9-1.5,2-2.3,2.2c-3.3,0.9-3.6,3.5-4,6.2
										c-0.4,2.5,1.3,4.9,3.8,5.4c0.5,0.1,1.1,0.1,1.6,0c1.3-0.2,2.6-0.4,3.9-0.7c1.8-0.3,3.3-3.6,2.3-5.2
										C624.4,598.8,622.6,596.3,620.7,593.5z M405.1,584.8c-2.2,1.8-4.3,3.5-6.4,5.3c-0.4,0.4-0.7,0.9-0.7,1.5
										c0.4,2,0.9,4,1.4,6.1c4.5-0.2,9.6,1.2,11.1-3.7C411.9,589.9,409.7,586.5,405.1,584.8L405.1,584.8z M386.7,611.4
										c0.8,6.4,1.5,12.7,2.3,19c0.5,4.3,4.6,8,2.5,12.8c0.6-1.1,0.9-2.4,0.9-3.7c0.3-7.3,0.6-14.6,0.8-21.9
										C393.4,612,392.8,611.5,386.7,611.4z M233,634.2l1.2-0.2c-2.7-6.5,0.5-13.4-3.4-19.8c-5.6,1-6.8,3.2-4.4,7.7
										C228.6,626,230.8,630.1,233,634.2z M330.4,640.5c-0.1-3.5-2.4-7.1,1.3-9.7c0.1-0.1-0.1-0.8-0.3-1.2c-1.9-3-3.8-6.1-6-9.7
										c-0.5,3.8-1.4,7-1.2,10.2C324.4,634.1,324.4,638.7,330.4,640.5L330.4,640.5z M186.8,611.5l0.6-0.3l-0.1-15.8l-9.9-0.3
										C180.7,600.8,183.8,606.2,186.8,611.5L186.8,611.5z M538.2,625.3c-1.2,2.9-2.2,5.8-3.5,8.6c-0.8,1.8-0.8,3.3,0.8,5
										c0.7,0.7,0.5,2.4,0.4,3.6c-0.2,0.9-0.6,1.8-1.1,2.6l0.9,0.3C540.8,639.6,539.4,632.5,538.2,625.3L538.2,625.3z
										 M546.8,639.3c1.3-16.6,1-20.2-1.2-21.2c-0.6,4.8-1,9.9-2,14.9C543,635.9,543.8,637.8,546.8,639.3L546.8,639.3z
										 M483.3,593.7l-4.2-3.2l-1.9,11.3l4.3,0.8C482.1,599.6,482.7,596.8,483.3,593.7z M405.1,573.7l-0.4-1.2
										c-1.1,0-2.2,0.1-3.2,0.4c-4.3,2-3.1,5.8-2.5,9.6C401.1,579.5,403.1,576.6,405.1,573.7L405.1,573.7z M158.5,622.7l5.7-20.1
										c-0.7,0.5-2,1-2.4,1.8c-0.5,1.3-0.9,2.7-1.1,4.1C159.6,612.9,156.5,617,158.5,622.7L158.5,622.7z M229,596.6
										c1.7-1.3,3.4-1.9,3.6-2.8c0.6-2.7-1.8-7.1-4.2-7.9C228.6,589.1,228.8,592.3,229,596.6L229,596.6z M150.8,579.6
										c-3.9,3.1-4.9,6.2-2.9,9l0.7-3.2l3.2-0.6C151.4,583,151.2,581.5,150.8,579.6L150.8,579.6z M688.2,599l-5.1,5.5
										C686.6,605,688.2,603.5,688.2,599z M332.3,637l-0.8,0.4v4.3l4,0.1C334.2,639.9,333.3,638.4,332.3,637z M544.5,643.6
										l-0.8-0.3l-2.9,4.2l3.8,0.1L544.5,643.6z M533.6,643l-3.9,4C533.8,648.1,534,646.2,533.6,643z M481.8,619.5l1,0.4l3.2-5.2
										C481.5,614.8,483.6,618.4,481.8,619.5z M636.7,646.2l-0.6,0.3l0.1,3.7l3.5-0.1C638.4,648.5,637.5,647.3,636.7,646.2z"/>
								</defs>
								<clipPath id="SVGID_3_">
									<use xlink:href="#SVGID_2_"  style="overflow:visible;"/>
								</clipPath>
								<g class="st6">
									<path class="st5" d="M120.5,506c-5.4,5.9-3.4,11-3,51c0.4,34.5-1.2,39.4,4,45c6.9,7.5,15.4,4.9,55,5c41.6,0.1,49,3.1,56-4
										c5.5-5.6,4.2-10.7,5-53c0.6-34.1,1.7-38.8-3-44c-6.9-7.8-15.9-5.2-57-5C135.3,501.2,127.3,498.6,120.5,506z"/>
									<path class="st5" d="M268.5,507c-5.8,7-2.5,13.3-3,51c-0.4,30-2.5,34.5,2,41c7.7,10.9,22.8,10.6,58,11
										c81.5,0.9,94.4,3.6,103-8c3.6-4.8,4.1-20,5-50c0.8-27.1,1.2-40.7-2-45c-11.9-16.3-36.9-2.3-106-5
										C292.2,500.7,277.1,496.6,268.5,507z"/>
									<path class="st5" d="M470.5,511c-5.2,7.4-1.4,12.9,0,47c1.3,32.3-1.6,38,4,45c8.6,10.7,24.1,8.1,56,7
										c73.2-2.5,95.4,7.9,105-7c5.4-8.4-1-12.7-1-50c0-31.7,4.6-34.7,0-42c-8.7-13.7-27.9-8.6-104-9
										C492.8,501.8,477.9,500.4,470.5,511z"/>
									<path class="st5" d="M669.5,500c3.2-1.4,4.8,0.8,19,1c11.1,0.2,11.7-1.1,14,0c9.6,4.5,1.8,27.9,3,65
										c0.9,27.4,6.1,44.4-2,49c-2.1,1.2-7.7,0.8-19,0c-9.5-0.7-14.3-1-16-2c-8.9-5.2-4.9-22.3-4-51
										C665.6,524.9,660.5,503.9,669.5,500z"/>
								</g>
							</g>
						</g>
					</g>
				</g>
			</g>
		</g>
	</g>
</g>
<path class="st7" d="M110.5,448v185h607V448H110.5z M242.5,550c-0.8,42.3,0.5,47.4-5,53c-7,7.1-14.4,4.1-56,4
	c-39.6-0.1-48.1,2.5-55-5c-5.2-5.6-3.6-10.5-4-45c-0.4-40-2.4-45.1,3-51c6.8-7.4,14.8-4.8,57-5c41.1-0.2,50.1-2.8,57,5
	C244.2,511.2,243.1,515.9,242.5,550z M438.5,552c-0.9,30-1.4,45.2-5,50c-8.6,11.6-21.5,8.9-103,8c-35.2-0.4-50.3-0.1-58-11
	c-4.5-6.5-2.4-11-2-41c0.5-37.7-2.8-44,3-51c8.6-10.4,23.7-6.3,57-5c69.1,2.7,94.1-11.3,106,5C439.7,511.3,439.3,524.9,438.5,552z
	 M640.5,603c-9.6,14.9-31.8,4.5-105,7c-31.9,1.1-47.4,3.7-56-7c-5.6-7-2.7-12.7-4-45c-1.4-34.1-5.2-39.6,0-47
	c7.4-10.6,22.3-9.2,60-9c76.1,0.4,95.3-4.7,104,9c4.6,7.3,0,10.3,0,42C639.5,590.3,645.9,594.6,640.5,603z M708.5,615
	c-2.1,1.2-7.7,0.8-19,0c-9.5-0.7-14.3-1-16-2c-8.9-5.2-4.9-22.3-4-51c1.1-37.1-4-58.1,5-62c3.2-1.4,4.8,0.8,19,1
	c11.1,0.2,11.7-1.1,14,0c9.6,4.5,1.8,27.9,3,65C711.4,593.4,716.6,610.4,708.5,615z"/>
<path class="st4" d="M180.6,505c-1.3,2,0.2,3.3-1,6s-3.5,3-7.5,6c-2.9,2.2-7,5.3-6.5,7.5c0.9,4,16.3,3.6,19.9,3.5
	c6-0.2,16.1-0.5,17-4c0.7-2.9-4.9-7.2-6-8c-3.8-2.8-6-2.6-7-5c-1.4-3.3,1.9-6.2,0.5-8S182.6,501.9,180.6,505z"/>
<path class="st4" d="M538.6,505c-1.3,2,0.2,3.3-1,6s-3.5,3-7.5,6c-2.9,2.2-7,5.3-6.5,7.5c0.9,4,16.3,3.6,19.9,3.5
	c6-0.2,16.1-0.5,17-4c0.7-2.9-4.9-7.2-6-8c-3.8-2.8-6-2.6-7-5c-1.4-3.3,1.9-6.2,0.5-8S540.6,501.9,538.6,505z"/>
<rect x="716.6" y="483" class="st8" width="16.6" height="207"/>
<path class="st3" d="M884.5,499.8c-13.8,4-8.5,25.3-9,62s-6.3,56.4,7.5,60.9c2.1,0.7,2.7,0.4,30.5-0.3c21.5-0.5,21.9-0.4,23.5-1
	c14.4-5.5,2.4-26.8,2.5-63.7c0.1-29.6,7.9-46.3-6-52.4c-5.9-2.7-16.5-3.6-29-4.8C893.2,499.4,887.6,498.9,884.5,499.8z"/>
<path class="st3" d="M970.6,499.8c-13.2,3.9-8.2,24.5-8.6,60.1c-0.4,35.6-6,54.8,7.2,59.2c2,0.7,2.6,0.4,29.1-0.3
	c20.5-0.5,20.9-0.4,22.4-1c13.8-5.4,2.3-26,2.4-61.8c0.1-28.7,7.6-44.9-5.7-50.9c-5.7-2.5-15.8-3.5-27.7-4.6
	C978.9,499.4,973.6,498.9,970.6,499.8z"/>
<path class="st5" d="M1025.7,633.4c-0.3-1-0.6-2-0.9-3.3c3.2-0.1,5.8-0.1,8.4-0.2c0.7,0,1.3-0.7,1.9-1c-0.7-0.4-1.3-1-2-1.1
	c-1.8-0.1-3.6,0-5.8,0.1c3-3.4,3.5-5.2,2.3-8.8c-0.8-2.4-1.9-4.7-2.4-7.1c-0.7-2.3-0.9-4.6-0.8-7c0.6-6,1.6-12,2.4-17.7l1.7,0.6
	c-0.7-1.7-1.8-3.6-2-5.4c-0.2-2.6,0.4-5.2,0.6-7.9c0.4-4.9-1.6-8.9-6.2-12.1c-3.8-2.7-8.6-1.3-9.5,2.7c-0.1,0.5-0.7,1-0.9,1.5
	c-1.4,4.1-3.4,8.2-0.2,12.6c4.8,0.2,5.7,0.6,5.9,3.8c0,1.4-0.5,2.9-1.4,4c-1.5,1.7-3.1,3.3-4.8,4.8c-2.8,2.5-2.9,3.3-0.7,6.3
	c0.7,1.1,1.2,2.3,1.7,3.6c-5.1-0.4-9.7-0.8-14.3-1.2c-0.7-0.1-1.3-0.4-1.9-0.8c-1.9-1.2-3.7-2.5-6.1-4.1c0.3,4,2.5,5.4,5.7,6.2
	c5.1,1.3,10.1,2.7,15.1,4.1c0.7,0.1,1.4,0.4,2,0.9c3,3.9-0.4,10.6-5.7,10.8c-5.6,0.2-11.4-1.6-17.1,1.2c-0.6-1.8-1.1-3.1-1.7-4.9
	c4.9,0,9.3,0,13.7,0c1.7,0.1,3.4,0,5.1-0.2c0.7-0.1,1.8-1,1.7-1.4c-0.3-0.8-0.9-1.4-1.7-1.8c-0.9-0.2-1.8-0.3-2.7-0.2
	c-6.3,0-12.7,0-19.2-0.1c-1.1,0-2.2-0.2-3.3-0.2c0.9-2,1.6-3.6,2.4-5.5l-9.6-0.1c0.8,2,1.4,3.7,2.1,5.3c-4.4,1-8.3,0.5-9.1-1.1
	c-1,1.7-11.8,2.3-16.2,0.8c0.7-1.7,1.4-3.4,2.1-5.2l-10.4-0.1l2.8,5.8c-1.4,0.1-2.6,0.2-3.8,0.2c-4.7,0-9.4-0.2-14.2,0
	c-1.4,0.1-2.7,1.2-4.1,1.8c1.3,0.8,2.7,1.5,4.2,2c1.6,0.2,3.2,0.2,4.8,0.1h13.9l-2.6,7c-5-1.3-9.7-2.8-14.5-3.9
	c-5.6-1.2-7.4-2.9-7.5-7.6c0-1.7,0.6-2.5,2.7-2.8c2.9-0.4,5.7-1.1,8.8-1.8c-0.8-2.1-0.9-4.9-2.5-5.6c-2.3-1.1-5.8-0.9-9.2-1.2
	c5.2-7.2,5.5-14-3.1-20c0.3,1.5,0.5,3.2,0.8,4.9l-1,0.1l-2.7-3.6c0.2,2.1,0.3,3.5,0.5,5.8l-17.9-16.7c-0.4,0.5-1.8,1.4-1.6,2.1
	c0.9,3.1-3,3-4.5,4.5s-3.3,3-3.2,4.5c0.2,6.6,0.8,13.3,1.8,19.8c1.1,6.2,1.2,12.2-2.1,18.1c-0.8,1.5-1.5,3.1-2,4.7
	c-1.7,4.8-1.7,4.8,4.2,6.9c0.5,0.2,1,0.5,1.9,0.9c-0.8,0.2-1.2,0.3-1.5,0.4l-3.8,1.6c1.3,0.5,2.6,0.9,4,1.1
	c3.5,0.1,7.1-0.1,11.1-0.2c-5.7,15.3-11.3,30.2-17,45.4l4.1-0.3c4.6-15,9.2-29.8,13.8-44.7l9.3,2.1c1.1-1,1.9-2.3,3.1-2.6
	c2.7-0.6,4.9-0.5,5.7,2.5c2,7.6,4.6,15.1,6.7,22.6c0.3,1.4,0.3,2.9-0.2,4.3c-1.5,4.4-3.2,8.8-4.8,13.3l3.7-0.3c1-2.9,2-5.7,3-8.6
	l0.8-0.1l2.8,8.2l3.6-0.3c-1.6-4.1-4-8.2-4.5-12.5c-0.4-3.4,1.5-7.1,2.9-10.7c4.8,7.5,5.9,16.5,13.7,22.2l2.8-0.2l3.8-3.4
	c4.3,1.1,8.8,0.3,12.5-2.1c1.6-1,3-2.1,4.5-3.2l-0.4-0.9l-13.1,0.9c-0.1-1.4-0.4-2.8-0.8-4.2c-2.5-5.3-5.5-10.5-7.5-16
	c-2.4-6.3-4.2-12.9-5.3-19.5c-0.5-3.2,1.8-6.8,3-10.1c0.1-0.3,1.4-0.5,2.1-0.5c11.3,0,22.3-0.1,33,0c1.1,0.1,2,0.7,2.6,1.6
	c1.4,2.7,1.6,5.9,0.5,8.7c-2.3,6.8-4.4,13.8-6.7,20.7c-0.8,2.2-1.9,4.2-3.2,6.1c-3.5,5.5-7,7.6-14.2,8.4c-0.1,0.2-0.3,0.5-0.4,0.7
	c2.2,0.5,4.5,1.6,6.7,1.4s4.5-1.8,7.3-3c-0.3,1.7-0.5,2.6-0.7,3.9c2.7-2.1,4.5-3.9,4.7-7.2c0.2-3.1,2.5-6.2,4.1-9.1
	c1.1-1.6,2.3-3,3.6-4.4c1.6,5.7,2.1,10.9,1.1,16.1c-0.8,3-2,5.8-3.8,8.4c-0.8,1.3-2.8,2-4.2,3.1c-0.4,0.5-0.8,1.1-1.1,1.7l5.8-0.5
	l5.3-5.4l1,0.3v4.5h0.6c1.8-4.1,1.6-7.8,0.6-12c-0.9-3.9,1.1-8.4,2.1-12.6c3.5,3.7,5,11.8,3.6,16.2c-0.9,2.7-1.7,5.4-2.5,8.2
	l3.1-0.2c0.6-2.4,1.2-4.9,1.8-7.3l0.8-0.1c0.8,2.3,1.5,4.7,2.3,7l3-0.2c-1.2-3.6-2.5-7.2-3.6-10.9c-0.4-1.2-0.5-2.6-0.2-3.8
	c1.8-7.2,3.8-14.4,5.7-21.6c0.4-1.5,1-2.3,2.9-2.2c2.9,0.1,5.9-0.2,8.7-0.1c0.9,0.1,1.7,0.6,2.2,1.3c3.2,11.6,6.2,23.2,9.2,34.7
	c0,0.2,0,0.5,0,0.8l2.8-0.2c-0.2-1.1-0.4-2.1-0.7-3.1C1032.3,653.6,1029,643.6,1025.7,633.4z"/>
<path class="st3" d="M1048.5,499.8c-11.4,4-7,25.3-7.4,61.9c-0.4,36.7-5.2,56.5,6.2,60.9c1.7,0.7,2.2,0.4,25-0.4
	c17.6-0.5,17.9-0.4,19.3-1.1c11.8-5.5,2-26.8,2.1-63.6c0.1-29.5,6.5-46.3-4.9-52.4c-4.9-2.6-13.6-3.6-23.8-4.8
	C1055.7,499.4,1051.1,498.9,1048.5,499.8z"/>
<path class="st3" d="M1120.7,502.3c-10.1,3.9-6.2,24.4-6.6,60s-4.6,54.7,5.5,59c1.5,0.7,2,0.4,22.3-0.3c15.7-0.6,16-0.4,17.2-1
	c10.6-5.3,1.8-25.9,1.8-61.6c0.1-28.6,5.8-44.7-4.4-50.7c-4.3-2.5-12.1-3.5-21.2-4.6C1127.1,502,1123,501.5,1120.7,502.3z"/>
<path class="st5" d="M1149.4,657.9c-0.2-0.8-0.2-1.7-0.5-2.4c-2.1-7.8-4.2-15.5-6.3-23.4c-0.4-1.5-0.8-3.1-1.2-4.9
	c1.8,0,3.3,0,4.8-0.2c0.9-0.2,1.7-0.5,2.5-0.9l-2.1-1.5c0.4-1.1,0.7-2.3,0.9-3.5c0.1-3.4,0.5-7-0.2-10.3c-1.3-5.5-2.8-11-4.6-16.4
	c-0.7-2.2-1.8-4.3-3.1-6.3c-1.7-2.5-4.6-4.3-1.8-8c0.6-0.9-0.1-3-0.3-4.6c-0.2-0.6-0.4-1.2-0.8-1.8c-0.9-2.2-3.2-3.4-6-3.2
	c-2.1,0.1-3.8,1.7-4.1,3.7c-0.3,1.4-0.1,2.2,1.6,2.2c1.4,0.1,2.9,0.2,4.3,0.5v0.6l-7.3,0.9c0.2,2,0.5,4.2,0.8,6.6
	c0.5,0.2,1.1,0.5,1.5,0.9c1.2,1.7,2.6,1.2,4,0.7c1.3-0.4,2.6-0.8,3.8-1.2l0.1,0.3l-7.7,7.5c-1.5-1.3,2.9-2.3,0-3.8
	c-1.4,4.1-2.8,8.2-4.2,12.6l-5.8-5.7l-5.5,4.4l9.3,9.8h-9c0.2-1.6,0.4-3.1,0.6-4.7h-3.5c0.3,1.7,0.5,3.2,0.7,4.7h-8.4
	c0.3-1.7,0.5-3.2,0.8-4.7h-3.7c0.2,1.7,0.4,3.3,0.6,4.9h-7.4c-0.4,0-0.7-0.1-1.1-0.2c0.2-0.5,0.3-0.9,0.5-1.2
	c1.6-1.5,1.3-3.1,0.4-4.8s-2.2-3.3-2.1-4.9c0-2.5-1-3.8-3-5c-0.2-0.2-0.4-0.4-0.5-0.7c-2-4-1.2-9,1.5-11.5c-0.2-1.4-0.3-2.9-0.2-4.3
	c0.2-2.3-0.2-4.3-2.2-5.9c-2.3-1.9-5.1-2.9-7.8-2.2c-5.1,1.3-5.8,7.8-3.9,12.2c-1.4,0.9-2.8,1.8-4.3,2.7c-2,1.1-3.9,2.2-5.7,3.5
	c-4.4,3.5-6,8.8-8,13.8c-0.8,1.6-1.2,3.4-1.1,5.2c0.3,3.3,0.9,6.5-0.1,9.9c-1,3.6,0.3,7,4,9.7c-1,0-2.1,0.1-3.1,0.2
	c-1.2,0.2-2.3,0.7-3.4,1c1.1,0.5,2.3,0.8,3.5,1c1.9,0.1,3.8,0,6-0.1c-0.3,1.2-0.5,2-0.7,2.9c-2,6.7-4.1,13.3-6.1,20.1
	c-1.3,4.5-2.6,9-3.8,13.6l2.6-0.2c0.9-4,1.8-8,2.7-12c1.8-7.5,3.8-15,5.5-22.4c0.3-1.5,0.9-2.1,2.5-2c2.5,0,5.1-0.2,7.5-0.1
	c0.8,0.1,1.6,0.7,1.9,1.5c1,3.3,1.8,6.6,2.4,9.9c0.1,1-0.2,1.9-0.9,2.6c-1.7,1.9-3.7,3.7-5.8,5.2c-2.4,1.6-2.6,4.1-4,6.1
	c-0.2,0.3,0.2,1.4,0.6,1.7c1,0.7,2.1,1.2,3.2,1.7l0.5-0.7c0.4,0.6,1.2,1.2,1.3,1.9c0.7,4,3.6,4.4,7,4.2c0.4,0,0.7,0.1,1.1,0.3
	l4.8-0.4c-2-4.5-0.8-9.2,0.6-13.8c0.4-1,0.9-1.9,1.4-2.8l0.6,0.1c0.9,2.6,1.8,5.2,2.6,7.7c0.1,0.4,0,0.8-0.3,1.1
	c-1.9,1.8-1.3,3.7-1,6l2.6-0.1l0.5-2.6c4.4,2.3,9.5,2.8,14.3,1.5l-9.2-4.3l4.5-3c-1.8-4.5-3.5-8.8-5.1-13.3c-0.3-1.1-0.3-2.4,0-3.5
	c0.3-1.8,1.1-3.5,1.2-5.3c0.2-2.9-2-4.3-4.1-5.6c-1.6-0.7-2.3-2.6-1.5-4.2c0,0,0,0,0-0.1c0.8-2.3,0.7-5.4,2.2-6.6s4.4-0.4,6.7-0.4
	c3.8,0,7.5,0.1,11.2-0.1c1.6,0,2.3,0.5,2.5,2.1c0.2,1.2,0.6,2.3,0.8,3.5c0.1,0.6,0.3,1.4,0,1.7c-2.4,2.5-1.4,5.4-1,8.1
	c1.2,7.1,2.6,14.1,3.9,21.1c0.2,0.8,0,1.7,0.2,2.4c0.3,0.9,0.6,1.8,1.1,2.6l-8.3,4.1c0.1,0.3,0.2,0.6,0.2,1c3.5-0.3,7,0.2,10.5-1.1
	c1-0.4,1.8-0.7,1.7,0.9l2.5-0.2c0.2-0.2,0.4-0.5,0.7-0.5c1-0.3,2.5,0.3,2.7-1.7c0.1-1.1,0.3-2.3,0.6-3.4c0.6-2.6-0.7-4.7-1.3-6.9
	c-0.1-0.7-0.1-1.4,0.1-2.2c1.2-5.3,2.4-10.6,3.5-15.9c0.3-1.5,0.9-1.9,2.2-1.9c1.9,0,3.9-0.1,5.8,0c0.6,0.1,1.2,0.4,1.6,1
	c2.2,9.9,4.3,19.8,6.5,29.6c0,0.1,0,0.1,0,0.2L1149.4,657.9z"/>
<g id="side-stills">
	<polygon class="st0" points="869.5,447.5 866.5,690 861.5,447.5 	"/>
	<polygon class="st0" points="956.5,447.7 953.5,682 948.5,447.8 	"/>
	<polygon class="st0" points="1037.5,447.5 1034.5,677 1029.5,447.6 	"/>
	<polygon class="st0" points="1173.5,447.7 1170.5,667 1165.5,447.9 	"/>
	<polygon class="st0" points="1107.5,447.7 1104.5,672 1099.5,447.9 	"/>
</g>
<path class="st5" d="M904.5,565.1c0.3,0.3,0.8,0.8,0.7,1c-0.8,2.4,1.7,2.9,3.6,3.8c1.7,0.8,3.4,1.5,5.1,2.2
	c-0.1-0.2-0.1-0.5-0.2-0.7l6.7-1.5c-0.2-0.8-0.3-1.7-0.1-2.6c0.4-1,1.6-1.7,2.2-2.7c0.3-0.5-0.1-1.2-0.3-1.9
	c-0.3-1.3-0.6-2.6-0.9-3.9c-0.5-2.1-0.4-4.5-1.8-6.3c-1.8-2.4-9.3-3.4-12.6-2.2c-1,0.4-2.4,0.6-2.8,1.2
	C901.3,555.7,898.3,560.3,904.5,565.1z"/>
<path class="st5" d="M945,592.5l-3.1,3l-0.8-0.4l0.3-2.3c-1.4,1.3-2.8,2.5-4.3,3.6c-2.6,1.7-3.2,3.6-1.2,5.9
	C943,600.5,946.7,596.3,945,592.5z"/>
<g>
	<rect x="447.5" y="479" class="st0" width="15" height="146"/>
	<rect x="247.5" y="476" class="st0" width="15" height="146"/>
	<line class="st9" x1="254.5" y1="494.6" x2="254.5" y2="618.8"/>
	<rect x="649.5" y="484" class="st0" width="15" height="146"/>
	<line class="st9" x1="454.5" y1="491" x2="454.5" y2="615.2"/>
	<line class="st9" x1="657.5" y1="491" x2="657.5" y2="615.2"/>
</g>
<path class="st5" d="M1115.9,595.8c0-2.8-2-3.6-4.3-4.6l1.3,2.9l-0.4,0.2l-3.7-3.5l-0.6,0.5c0.7,1.2,1.4,2.4,2.1,3.6
	C1112.2,598.2,1113.5,598.4,1115.9,595.8z"/>
<path class="st4" d="M990.6,504c-1.3,2,0.2,3.3-1,6s-3.5,3-7.5,6c-2.9,2.2-7,5.3-6.5,7.5c0.9,4,16.3,3.6,19.9,3.5
	c6-0.2,16.1-0.5,17-4c0.7-2.9-4.9-7.2-6-8c-3.8-2.9-6-2.6-7-5c-1.4-3.3,1.9-6.2,0.5-8S992.6,500.9,990.6,504z"/>
<path class="st4" d="M905.1,504.3c-1.4,2.3,0.2,3.7-1.1,6.7s-3.8,3.3-8.3,6.7c-3.3,2.5-7.8,5.9-7.2,8.3c1,4.5,18.2,4,22.2,3.9
	c6.7-0.2,17.9-0.5,18.9-4.4c0.8-3.2-5.5-8-6.7-8.9c-4.2-3.2-6.6-2.9-7.8-5.5c-1.6-3.7,2.2-6.9,0.6-8.9
	C913.9,499.9,907.3,500.8,905.1,504.3z"/>
<path class="st7" d="M857,448v205.8l301.5,16.2l38-5l45.5-24.5V446.9L857,448z M937,621.3c-1.6,0.6-2,0.5-23.5,1
	c-27.8,0.7-28.4,1-30.5,0.3c-13.8-4.5-8-24.2-7.5-60.9s-4.8-57.9,9-62c3.1-0.9,8.7-0.3,20,0.7c12.5,1.2,23.1,2.1,29,4.8
	c13.9,6.1,6.1,22.9,6,52.4C939.4,594.6,951.4,615.8,937,621.3z M1020.7,617.7c-1.5,0.6-1.9,0.5-22.4,1c-26.5,0.7-27.1,1-29.1,0.3
	c-13.2-4.4-7.6-23.6-7.2-59.2c0.4-35.6-4.6-56.2,8.6-60.1c3-0.8,8.3-0.3,19.1,0.7c11.9,1.1,22,2.1,27.7,4.6
	c13.3,6,5.8,22.2,5.7,50.9C1023,591.7,1034.5,612.3,1020.7,617.7z M1091.6,621.2c-1.4,0.6-1.7,0.5-19.3,1.1
	c-22.8,0.7-23.3,1.1-25,0.4c-11.4-4.4-6.6-24.3-6.2-60.9c0.4-36.7-4-57.9,7.4-61.9c2.6-0.9,7.2-0.4,16.5,0.6
	c10.2,1.2,18.9,2.2,23.8,4.8c11.4,6.1,5,22.9,4.9,52.4C1093.6,594.4,1103.4,615.7,1091.6,621.2z M1159.1,620.1
	c-1.2,0.6-1.5,0.4-17.2,1c-20.3,0.7-20.8,1-22.3,0.3c-10.1-4.3-5.9-23.4-5.5-59s-3.5-56.1,6.6-60c2.3-0.9,6.4-0.4,14.6,0.8
	c9.1,1.2,16.9,2.1,21.2,4.6c10.2,6,4.5,22.1,4.4,50.7C1160.9,594.1,1169.7,614.8,1159.1,620.1z"/>
<path class="st4" d="M1065.1,503.5c-1.1,1.7,0.1,2.8-0.8,5s-2.9,2.5-6.3,5c-2.5,1.9-5.9,4.4-5.5,6.3c0.7,3.4,13.7,3,16.8,3
	c5.1-0.1,13.6-0.4,14.3-3.4c0.6-2.4-4.1-6-5-6.7c-3.2-2.4-5-2.2-5.9-4.2c-1.2-2.8,1.6-5.2,0.4-6.7S1066.7,500.9,1065.1,503.5z"/>
<path class="st4" d="M1137.1,505.9c-0.8,1.3,0.1,2.2-0.7,3.9s-2.3,1.9-4.9,4c-1.9,1.5-4.6,3.5-4.3,4.9c0.6,2.7,10.8,2.4,13.1,2.3
	c4-0.1,10.6-0.3,11.2-2.6c0.5-1.9-3.2-4.7-3.9-5.2c-2.5-1.9-3.9-1.7-4.6-3.3c-0.9-2.2,1.3-4.1,0.3-5.2S1138.4,503.9,1137.1,505.9z"
	/>
<path class="st8" d="M83.9,614.3c1.4,26.6,2.8,53.1,4.1,79.7c215.2-0.1,430.5-0.1,645.7-0.2c-0.3-25.9-0.5-51.9-0.8-77.8
	C516.6,615.4,300.2,614.9,83.9,614.3z"/>
<path class="st10" d="M212.7,628.7L92,626.9c-2.5-0.1-4.5-2.1-4.6-4.6l0,0c0-2.4,1.9-4.4,4.3-4.4c0.1,0,0.1,0,0.2,0l120.6,1.7
	c2.5,0.1,4.5,2.1,4.6,4.6l0,0c0,2.4-1.9,4.4-4.3,4.4C212.8,628.7,212.7,628.7,212.7,628.7z"/>
<path class="st0" d="M1181.1,412c0.3,94,0.6,188,0.9,282c32.9,0,65.8,0,98.7,0c0.3-116.2,0.6-232.5,0.9-348.7
	C1248.1,367.5,1214.6,389.7,1181.1,412z"/>
<path class="st0" d="M855.4,617.7c-0.1,25.4-0.3,50.9-0.4,76.3c109,0,218,0,327,0c0.1-24.9,0.2-49.8,0.2-74.7
	C1073.3,618.8,964.4,618.2,855.4,617.7z"/>
<path class="st10" d="M268.6,629.9l-44.3-1c-0.9,0-1.7-2.1-1.8-4.5l0,0c-0.1-2.5,0.6-4.5,1.5-4.5l44.3,1c0.9,0,1.7,2,1.8,4.5l0,0
	C270.2,627.9,269.5,629.9,268.6,629.9z"/>
<path class="st10" d="M252.6,654.9l-44.3-1c-0.9,0-1.7-2.1-1.8-4.5l0,0c-0.1-2.5,0.6-4.5,1.5-4.5l44.3,1c0.9,0,1.7,2,1.8,4.5l0,0
	C254.2,652.9,253.5,654.9,252.6,654.9z"/>
<path class="st10" d="M142.3,655.6l-30.9-0.6c-0.6,0-1.2-2-1.4-4.5l0,0c-0.1-2.5,0.3-4.5,0.9-4.5l30.9,0.6c0.6,0,1.2,2,1.4,4.5l0,0
	C143.4,653.6,143,655.6,142.3,655.6z"/>
<path class="st10" d="M630.7,634.9l-30.9-0.6c-0.6,0-1.2-2-1.4-4.5l0,0c-0.1-2.5,0.3-4.5,0.9-4.5l30.9,0.6c0.6,0,1.2,2,1.4,4.5l0,0
	C631.8,632.9,631.4,634.9,630.7,634.9z"/>
<path class="st10" d="M865.8,634h41.3c1.8,0,3.3,1.5,3.3,3.3l0,0l0,0c0,1.8-1.4,3.2-3.2,3.3l-41.3,2.2c-1.8,0.1-3.4-1.3-3.5-3.1
	c0-0.1,0-0.1,0-0.2v-2.2C862.5,635.5,863.9,634,865.8,634L865.8,634z"/>
<path class="st10" d="M1045.8,664h41.3c1.8,0,3.3,1.5,3.3,3.3l0,0c0,1.8-1.4,3.2-3.2,3.3l-41.3,2.2c-1.8,0.1-3.4-1.3-3.5-3.1
	c0-0.1,0-0.1,0-0.2v-2.2C1042.5,665.5,1043.9,664,1045.8,664L1045.8,664z"/>
<path class="st10" d="M899.4,646h36.1c1.6,0,2.9,1.3,2.9,2.9l0,0c0,1.5-1.2,2.8-2.8,2.9l-36.1,1.9c-1.6,0.1-3-1.2-3.1-2.8
	c0-0.1,0-0.1,0-0.2V649C896.5,647.4,897.7,646.1,899.4,646C899.3,646,899.4,646,899.4,646z"/>
<path class="st10" d="M404,636.8h36.1c1.6,0,2.9,1.3,2.9,2.9l0,0c0,1.5-1.2,2.8-2.8,2.9l-36.1,1.9c-1.6,0.1-3-1.2-3.1-2.8
	c0-0.1,0-0.1,0-0.2v-1.7C401.1,638.2,402.3,636.9,404,636.8C403.9,636.8,404,636.8,404,636.8z"/>
<path class="st10" d="M1098.7,662.8h34.9c1.6,0,2.8,1.3,2.8,2.8l0,0c0,1.5-1.2,2.7-2.7,2.8l-34.9,1.8c-1.6,0.1-2.9-1.1-3-2.6
	c0-0.1,0-0.1,0-0.2v-1.8C1095.9,664.1,1097.1,662.8,1098.7,662.8L1098.7,662.8z"/>
<path class="st10" d="M1232,552.5l33.1,0.4c1.5,0,2.7,1.2,2.6,2.7l0,0l0,0c0,1.4-1.1,2.6-2.6,2.6l-33.1,1.3
	c-1.5,0.1-2.7-1.1-2.8-2.6v-0.1v-1.7C1229.3,553.7,1230.5,552.5,1232,552.5L1232,552.5z"/>
<path class="st10" d="M384.5,650.2l33.1,0.4c1.5,0,2.7,1.2,2.6,2.7l0,0l0,0c0,1.4-1.1,2.6-2.6,2.6l-33.1,1.3
	c-1.5,0.1-2.7-1.1-2.8-2.6v-0.1v-1.7C381.8,651.4,383,650.2,384.5,650.2L384.5,650.2z"/>
<path class="st10" d="M1032.1,639.9l-109.4,1.5c-2.8,0-5.2-1.7-5.2-3.9l0,0c0-2.2,2.2-4,5-4l109.5,0.2c1.7,0,3.1,1.4,3.2,3.1l0,0
	C1035.2,638.5,1033.8,639.9,1032.1,639.9L1032.1,639.9z"/>
<path class="st10" d="M709.6,679.2l-109.4,1.5c-2.8,0-5.2-1.7-5.2-3.9l0,0c0-2.2,2.2-4,5-4l109.5,0.2c1.7,0,3.1,1.4,3.2,3.1l0,0
	C712.7,677.8,711.3,679.2,709.6,679.2L709.6,679.2z"/>
<path class="st10" d="M1235,590.7l-40,0.3c-3.5,0-6.5-2-6.5-4.5v-9.8c0-2.5,3-4.2,6.5-3.8l40,4.8c1.7,0.2,3.1,1.7,3.1,3.4v6.6
	C1238.1,589.4,1236.7,590.7,1235,590.7z"/>
<path class="st10" d="M548.9,658.5l-56,0.3c-4.9,0-9.1-2-9.1-4.5v-9.8c0-2.5,4.2-4.2,9.1-3.8l56,4.8c2.4,0.2,4.3,1.7,4.3,3.4v6.6
	C553.2,657.2,551.2,658.5,548.9,658.5z"/>
<path class="st10" d="M705.3,651.4l-49.7,0.3c-4.4,0-8.1-2-8.1-4.5v-9.8c0-2.5,3.7-4.2,8.1-3.8l49.7,4.8c2.1,0.2,3.9,1.7,3.9,3.4
	v6.6C709.2,650.1,707.4,651.4,705.3,651.4z"/>
<path class="st10" d="M1268.1,609.8l-28.4,3c-2.5,0.3-4.7-1-4.7-2.7v-6.9c0-1.8,2.1-3.2,4.6-3.1l28.5,0.6c1.2,0,2.2,1,2.2,2.2v4.6
	C1270.3,608.6,1269.4,609.6,1268.1,609.8z"/>
<path class="st10" d="M387.3,643l-28.4,3c-2.5,0.3-4.7-1-4.7-2.7v-6.9c0-1.8,2.1-3.2,4.6-3.1l28.5,0.6c1.2,0,2.2,1,2.2,2.2v4.6
	C389.5,641.8,388.6,642.8,387.3,643z"/>
<path class="st10" d="M1263.2,649.5l-77.3,6.6c-3.1,0.3-5.6-1.3-5.6-3.5l0,0c0-2.2,2.6-4.1,5.6-4.2l77.3-3c0.8,0,1.5,0.8,1.5,2l0,0
	C1264.8,648.4,1264.2,649.2,1263.2,649.5z"/>
<path class="st0" d="M1312.5,491.5L21.4,497.3c-4.8,0-8.5-2.2-8.5-5c0-0.4,0-0.8,0.2-1.1l78-205.4c0.9-2.2,3.9-3.7,7.7-3.9
	l1274.7-52.4c5.6-0.2,10.6,2.3,10.9,5.6c0,0.4,0,0.9-0.2,1.3l-63.5,250.8C1320.4,489.5,1316.8,491.5,1312.5,491.5z"/>
<path class="st11" d="M1268.1,471.5L56.2,475.7c-4.3,0.1-7.9-1.8-8-4.2c0-0.4,0-0.7,0.2-1l73.4-172.8c0.9-1.9,3.8-3.2,7.3-3.3
	L1325.6,251c5.1-0.3,9.7,1.8,10.2,4.7c0,0.4,0,0.7,0,1.2L1276.1,468C1275.4,470.1,1272,471.6,1268.1,471.5z"/>
<path class="st3" d="M1258.1,461L70.9,466.5c-4.8,0-8.6-4.1-7.6-6.4l70.3-153.4c0.9-1.7,3.6-2.9,6.9-2.9l1176.1-40.3
	c5.9-0.2,7.1,4.2,6.2,7l-57.1,187.3C1265,459.7,1261.7,461,1258.1,461z"/>
<path class="st0" d="M1236.3,450.2L81.6,457c-4.9,0-8.7-1.9-7.6-4l68.9-136c1.1-1.5,3.9-2.6,6.9-2.6l1142.9-37.7
	c5.8-0.2,10.6,2,9.7,4.5l-58.5,166C1243.2,448.9,1240.1,450.2,1236.3,450.2z"/>
<path class="st10" d="M129.9,429.4l273.1-2.9c5.6,0,10.2,3.1,10.4,7.1l0,0c0,4-4.4,7.2-10.1,7.3l-273.1,2.9
	c-5.6,0-10.2-3.1-10.4-7.1l0,0C119.8,432.7,124.3,429.5,129.9,429.4z"/>
<path class="st10" d="M433.2,426.7l21-0.2c5.6,0,10.2,3.1,10.4,7.1l0,0c0,4-4.4,7.2-10.1,7.3l-21,0.2c-5.6,0-10.2-3.1-10.4-7.1l0,0
	C423.1,430.1,427.6,426.8,433.2,426.7z"/>
<path class="st10" d="M922.6,294.7l272.9-7.8c5.6-0.1,10.4,2.8,10.6,6.5l0,0c0.2,3.8-4.1,7-9.7,7.1l-272.9,7.8
	c-5.6,0.1-10.4-2.8-10.6-6.5l0,0C912.5,298.1,916.9,294.9,922.6,294.7z"/>
<path class="st10" d="M1090.7,311.5l138.9-4c5.6-0.1,10.4,2.8,10.6,6.5l0,0c0.2,3.8-4.1,7-9.7,7.1l-138.9,4
	c-5.6,0.1-10.4-2.8-10.6-6.5l0,0C1080.6,314.9,1085.1,311.6,1090.7,311.5z"/>
<path class="st10" d="M841.5,321.9l138.9-4c5.6-0.1,10.4,2.8,10.6,6.5l0,0c0.2,3.8-4.1,7-9.7,7.1l-138.9,4
	c-5.6,0.1-10.4-2.8-10.6-6.5l0,0C831.4,325.2,835.9,322,841.5,321.9z"/>
<path class="st10" d="M332.8,399.6l138.9-4.2c5.6-0.1,10.4,2.9,10.6,6.8l0,0c0.2,4-4.1,7.3-9.7,7.4l-138.9,4.2
	c-5.6,0.1-10.4-2.9-10.6-6.8l0,0C322.8,403,327.2,399.7,332.8,399.6z"/>
<path class="st10" d="M1225.7,286.5l21-0.6c5.6-0.1,10.4,2.8,10.6,6.5l0,0c0.2,3.8-4.1,7-9.7,7.1l-21,0.6
	c-5.6,0.1-10.4-2.8-10.6-6.5l0,0C1215.7,290,1220.1,286.8,1225.7,286.5z"/>
<line class="st2" x1="1357.1" y1="259.7" x2="1302.5" y2="466.1"/>
<g>
	<rect x="1008.3" y="493" class="st12" width="5.2" height="31.8"/>
	<rect x="936" y="493" class="st12" width="5.2" height="31.8"/>
	<g>
		<g>
			<path class="st0" d="M1043.9,563.6l-150.1,1c-0.6,0-1-0.5-1-1.1c0-0.1,0-0.2,0-0.2l9.1-43.4c0.1-0.5,0.5-0.8,0.9-0.8l148.2-10.9
				c0.7,0,1.2,0.5,1.3,1.2c0,0.1,0,0.2,0,0.3l-7.4,53.1C1044.9,563.2,1044.4,563.6,1043.9,563.6z"/>
		</g>
	</g>
	<g class="st13">
		
			<image style="overflow:visible;opacity:0.7;enable-background:new    ;" width="229" height="120" xlink:href="13B47F1C.png"  transform="matrix(1 0 0 1 859 481)">
		</image>
		<g>
			<g>
				<g>
					<g class="st13">
						<path class="st11" d="M915.4,532.7l1.3,10.8l5.5-10.8h3.7l2,10.8l4.7-10.8h4.8l-7.9,16.7h-4.7l-1.9-9.7l-5,9.7h-4.7l-2.6-16.7
							H915.4z"/>
						<path class="st11" d="M948.8,536.3h-5.5l-0.4,2.8h5.2l-0.6,3.7h-5.2l-0.5,2.9h5.5l-0.6,3.7h-10l2.6-16.7h10L948.8,536.3z"/>
						<path class="st11" d="M957.3,532.7l-2.1,13h5.5l-0.6,3.7H950l2.6-16.7H957.3z"/>
						<path class="st11" d="M976.6,538.2c-0.9-1.2-2.1-1.8-3.6-1.8c-0.7,0-1.3,0.1-2,0.4c-0.6,0.2-1.2,0.6-1.7,1s-0.9,0.9-1.2,1.4
							c-0.3,0.6-0.5,1.2-0.7,1.8c-0.1,0.7-0.1,1.3,0.1,1.8c0.2,0.6,0.4,1,0.8,1.5c0.4,0.4,0.8,0.7,1.4,1c0.5,0.2,1.1,0.4,1.8,0.4
							c1.5,0,2.9-0.6,4.2-1.8l-0.8,5.1l-0.5,0.2c-0.7,0.2-1.4,0.4-2,0.5s-1.2,0.2-1.8,0.2c-1.2,0-2.3-0.2-3.4-0.7
							c-1-0.4-1.9-1-2.7-1.8c-0.7-0.8-1.3-1.7-1.6-2.8s-0.4-2.3-0.2-3.5c0.2-1.3,0.6-2.5,1.3-3.5c0.7-1.1,1.5-2,2.5-2.8
							s2.1-1.4,3.2-1.8c1.2-0.4,2.4-0.7,3.6-0.7c0.7,0,1.4,0.1,2,0.2c0.7,0.1,1.3,0.4,2,0.7L976.6,538.2z"/>
						<path class="st11" d="M978.5,541c0.2-1.2,0.6-2.4,1.3-3.5s1.5-2,2.5-2.8s2.1-1.4,3.4-1.9s2.6-0.7,4.1-0.7
							c1.4,0,2.7,0.2,3.8,0.7c1.1,0.4,2.1,1.1,2.8,1.9c0.7,0.8,1.3,1.7,1.6,2.8s0.4,2.2,0.2,3.5c-0.2,1.2-0.6,2.4-1.3,3.5
							s-1.5,2-2.5,2.8s-2.1,1.4-3.4,1.9c-1.3,0.4-2.6,0.7-4,0.7s-2.7-0.2-3.8-0.7c-1.1-0.4-2.1-1.1-2.8-1.9
							c-0.7-0.8-1.3-1.7-1.6-2.8C978.4,543.4,978.3,542.2,978.5,541z M983.3,541c-0.1,0.7-0.1,1.3,0.1,1.8s0.5,1,0.8,1.5
							c0.4,0.4,0.9,0.7,1.4,1c0.6,0.2,1.2,0.3,1.9,0.3s1.3-0.1,2-0.3c0.6-0.2,1.2-0.5,1.7-1c0.5-0.4,1-0.9,1.3-1.5
							c0.4-0.6,0.6-1.2,0.7-1.8c0.1-0.7,0.1-1.3-0.1-1.8c-0.2-0.6-0.5-1-0.9-1.5c-0.4-0.4-0.9-0.7-1.4-1c-0.6-0.2-1.2-0.3-1.9-0.3
							s-1.3,0.1-2,0.3c-0.6,0.2-1.2,0.5-1.7,1c-0.5,0.4-1,0.9-1.3,1.5C983.6,539.7,983.4,540.3,983.3,541z"/>
						<path class="st11" d="M998.8,549.3l5.6-16.7h4.5l2.1,8.9l4.9-8.9h4.5l0.4,16.7h-4.6v-9.6l-5.7,9.6h-1.8l-2.4-9.6l-3,9.6H998.8
							z"/>
						<path class="st11" d="M1036,536.3h-5.5l-0.4,2.8h5.2l-0.6,3.7h-5.2l-0.5,2.9h5.5l-0.6,3.7h-10l2.6-16.7h10L1036,536.3z"/>
					</g>
				</g>
			</g>
		</g>
	</g>
</g>
<rect x="855" y="475.7" class="st0" width="10.5" height="153.8"/>
<path class="st14" d="M712.8,641.1H106.9c-1.7,0-3-1.3-3-3V638c0-1.7,1.3-3,3-3h605.9c1.7,0,3,1.3,3,3v0.1
	C715.8,639.8,714.5,641.1,712.8,641.1z"/>
<path class="st14" d="M110.1,638.1l2.1,34.7c0.1,1.7-1.2,3.1-2.8,3.2h-0.7c-1.7,0.1-3.1-1.2-3.2-2.8l-2.1-34.7
	c-0.1-1.7,1.2-3.1,2.8-3.2h0.7C108.5,635.2,110,636.5,110.1,638.1z"/>
<path class="st14" d="M1263,640.8v20.3c0,1.7-1.3,3-3,3h-0.7c-1.7,0-3-1.3-3-3v-20.3c0-1.7,1.3-3,3-3h0.7
	C1261.7,637.8,1263,639.2,1263,640.8z"/>
<path class="st14" d="M1259.5,643.5H880.9c-1.7,0-3-1.3-3-3l0,0c0-1.7,1.3-3,3-3h378.6c1.7,0,3,1.3,3,3l0,0
	C1262.5,642.2,1261.1,643.5,1259.5,643.5z"/>
<line class="st15" x1="726.1" y1="494.3" x2="726.1" y2="693.6"/>
<line class="st15" x1="862.4" y1="694" x2="859.8" y2="493.8"/>
<g>
	
		<image style="overflow:visible;opacity:0.7;enable-background:new    ;" width="737" height="197" xlink:href="13B47F1D.png"  transform="matrix(1 0 0 1 307 263)">
	</image>
	<g>
		<g class="st13">
			<path class="st11" d="M373.1,367.4c-3.1,0-6-1.3-8.5-3.9c-2.5-2.6-3.8-5.8-3.8-9.6c0-2.6,0.6-5.3,1.7-8.1
				c1.2-2.8,2.9-5.5,5.2-8.2c2.3-2.7,5.1-5,8.3-7.1c3.2-2.1,7-3.8,11.5-5.1c4.5-1.3,9.4-1.9,14.5-1.9c7.6,0,13.9,1.7,18.9,5.2
				c5,3.5,7.5,8.1,7.5,13.8c0,4.5-1.7,8.3-5.1,11.3c-3.4,3-7.8,5-13.1,5.9c2.3,1.2,3.5,3.3,3.5,6.5c0,1.2-0.2,2.6-0.5,4.4
				c-0.3,1.8-0.6,3.4-0.9,4.8c-0.3,1.5-0.6,2.9-0.8,4.3c-0.2,1.4-0.2,2.5,0,3.3c0.2,0.8,0.7,1.2,1.4,1.2c1.7,0,4.1-1.8,7.1-5.3
				c3.1-3.5,5.8-7.3,8.3-11.3c0.1-0.2,0.2-0.2,0.4,0l1.8,1.9c0.2,0.1,0.2,0.3,0,0.5c-8,13.1-14.9,19.6-20.6,19.6
				c-5.1,0-7.6-2.6-7.6-7.7c0-2.2,0.7-5.5,2.1-9.8c1.4-4.3,2.1-7.2,2.1-8.9c0-1.8-0.6-2.8-1.8-3.1c-0.4,0-0.7,0-0.7,0
				c-1.2,0-1.9-0.6-2.4-1.8c-0.3-0.9-0.2-1.3,0.3-1.3c5.5,0,9.9-1.5,13.1-4.5c3.2-3,4.8-6.8,4.8-11.3c0-4.2-1.4-7.7-4.1-10.3
				c-2.8-2.7-7.1-4-12.9-4c-4.2,0-8.1,0.6-11.7,1.8c-3.6,1.2-6.7,2.8-9.2,4.8c-2.5,1.9-4.6,4.1-6.4,6.5c-1.8,2.4-3.1,4.8-4,7.2
				c-0.8,2.4-1.3,4.6-1.3,6.7c0,2.1,0.5,3.7,1.4,5c0.9,1.2,2.2,1.8,3.9,1.8c2.2,0,4.3-1,6.1-2.9c1.8-1.9,2.7-3.7,2.7-5.4
				c0-0.5,0.4-0.6,1.1-0.2c1,0.5,1.6,1.5,1.6,2.7c0,2.6-1.3,5.3-4,8.1C380.1,366,376.9,367.4,373.1,367.4z M415,334.8
				c-1.9,0-3.7,1-5.5,3c-1.8,2-3.5,4.6-5.1,7.8c-1.5,3.2-3.1,6.7-4.6,10.6c-1.6,3.9-3.2,7.8-4.8,11.6c-1.7,3.9-3.4,7.4-5.2,10.6
				c-1.8,3.2-3.8,5.8-6,7.8c-2.2,2-4.6,3-7.1,3c-2.1,0-4-0.9-5.5-2.5c-1.6-1.7-2.3-3.4-2.3-5c0-0.7,0.1-1.2,0.3-1.6
				c0.2-0.4,0.4-0.7,0.7-0.7c0.1,0,0.2,0.1,0.6,0.4c0.3,0.3,0.7,0.4,1.1,0.4c1.1,0,2.1-0.1,3-0.4c0.9-0.3,2.1-0.9,3.4-2
				c1.3-1,2.7-2.5,4-4.3c1.4-1.8,3-4.4,4.8-7.6c1.8-3.3,3.8-7.2,5.9-11.7c3.4-7.5,6.8-12.9,10.1-16.3c3.3-3.4,6.8-5.1,10.3-5.1
				c1.3,0,2.1,0.4,2.4,1.3C415.5,334.5,415.4,334.8,415,334.8z"/>
			<path class="st11" d="M452.9,359c0,2.5-1.1,4.7-3.4,6.7c-2.2,2-4.8,3.5-7.6,4.5s-5.4,1.5-7.8,1.6c-0.2,1-0.3,1.9-0.3,2.9
				c0,1.6,0.3,2.9,1,3.9c0.7,1,1.7,1.5,3,1.5c1,0,2.1-0.2,3.2-0.5c1.2-0.3,2.6-0.8,4.2-1.6c1.6-0.8,3.4-2.1,5.2-3.9
				c1.8-1.8,3.5-3.9,5.1-6.4c0.1-0.2,0.2-0.2,0.4-0.1l1.6,1.9c0.1,0.2,0.1,0.3,0,0.5c-1.7,2.7-3.4,5.1-5.2,7.1
				c-1.8,2-3.4,3.5-4.8,4.4c-1.4,1-2.9,1.8-4.5,2.3c-1.6,0.6-2.9,0.9-3.8,1c-0.9,0.1-2,0.2-3.3,0.2c-3.2,0-5.7-1.1-7.3-3.2
				c-1.6-2.1-2.4-4.8-2.4-8c0-3,0.9-6.1,2.6-9.3c1.8-3.2,4.1-5.8,7.1-8c3-2.1,6-3.2,9.2-3.2c2.4,0,4.2,0.5,5.5,1.4
				C452.2,355.7,452.9,357.1,452.9,359z M446,356.6c-1.8,0-3.7,1.2-5.9,3.7c-2.2,2.5-3.9,5.3-5.1,8.5c5-1.3,8.7-3.8,10.8-7.5
				c1.3-2.1,1.6-3.6,0.9-4.5C446.6,356.7,446.3,356.6,446,356.6z"/>
			<path class="st11" d="M468.9,378.5c0-1.4,0.2-2.8,0.6-4.1c0.4-1.3,1.4-3.6,3-6.9c2.7-6.4,3.2-9.7,1.4-9.9c-1.1,0-2.5,0.7-4.4,2.2
				c-1.8,1.5-3.6,3.5-5.3,6.3l-8.4,18c-0.2,0.3-0.4,0.5-0.7,0.5h-6.6c-0.2,0-0.3-0.1-0.4-0.2c-0.1-0.1-0.1-0.3,0-0.5l13.5-28.9
				c0.2-0.3,0.4-0.5,0.8-0.5h6.6c0.2,0,0.3,0.1,0.4,0.2c0.1,0.1,0.1,0.3,0,0.5l-1,2.2c1.1-0.9,2.2-1.6,3.4-2.1
				c1.2-0.5,2.1-0.8,2.8-0.9c0.7-0.1,1.5-0.1,2.6-0.1c1.9,0,3.3,0.5,4.4,1.6c1.1,1.1,1.6,2.3,1.6,3.8c0,1.5-0.3,3-1,4.7
				c-2.2,4.8-3.8,8.1-4.6,10.1c-0.8,2-1.2,3.4-1.2,4.3c0,1,0.4,1.5,1.1,1.5c1.1,0,2.8-1.2,5.2-3.7c2.4-2.5,4.6-5.4,6.7-8.7
				c0.1-0.2,0.2-0.2,0.4-0.1l1.7,1.9c0.1,0.2,0.1,0.3,0,0.5c-2,3.2-3.8,5.9-5.5,7.9c-1.7,2.1-3.2,3.5-4.6,4.4
				c-1.4,0.9-2.6,1.4-3.6,1.7c-1,0.2-2.1,0.4-3.3,0.4c-1.7,0-3-0.5-4-1.6C469.4,381.8,468.9,380.3,468.9,378.5z"/>
			<path class="st11" d="M505.5,353.8c3.2,0,5.3,1.3,6.1,3.9c1.5-3.3,4.8-10.4,9.9-21.1c0.2-0.3,0.4-0.5,0.8-0.5h6.5
				c0.2,0,0.3,0.1,0.4,0.2c0.1,0.1,0.1,0.3,0,0.4c-8.5,18.2-13.5,29.2-15.2,32.9c-1.6,3.8-2.4,6.6-2.4,8.4c0,1,0.4,1.5,1.2,1.5
				c1.3,0,2.7-0.9,4.4-2.8c1.7-1.8,3.9-4.9,6.6-9.1c0.1-0.2,0.2-0.2,0.4,0c0.2,0.2,0.5,0.5,0.9,0.9c0.4,0.5,0.7,0.8,0.9,0.9
				c0.1,0.2,0.1,0.3,0,0.5c-2,3.3-3.8,6-5.2,7.9c-1.4,1.9-2.7,3.4-3.9,4.3c-1.2,0.9-2.2,1.5-3.1,1.8c-0.8,0.2-2,0.4-3.3,0.4
				c-1.7,0-3.1-0.7-4.3-2.1c-1.2-1.4-1.8-3-1.8-4.8v-0.1c-3.3,4.7-6.6,7-9.9,7c-2.3,0-4.1-0.8-5.3-2.5c-1.3-1.6-1.9-3.8-1.9-6.6
				c0-2.1,0.5-4.4,1.4-6.9c1-2.5,2.2-4.8,3.8-7c1.6-2.2,3.5-4,5.9-5.5C500.6,354.5,503,353.8,505.5,353.8z M509,363.4
				c0.2-2,0.1-3.6-0.5-4.8c-0.5-1.2-1.3-1.8-2.4-1.8c-1.7,0-3.5,1.2-5.3,3.5c-1.9,2.3-3.4,5-4.5,8c-1.2,3-1.7,5.6-1.7,7.7
				c0,1,0.2,1.8,0.6,2.3c0.4,0.6,0.9,0.9,1.5,0.9c1.3,0,2.9-1,4.7-3.1c1.8-2.1,3.7-4.8,5.7-8.2C507.5,366.7,508.2,365.2,509,363.4z"
				/>
			<path class="st11" d="M526.5,384.5c-1.7,0-3.1-0.6-4.3-1.8c-1.2-1.2-1.8-2.7-1.8-4.5c0-1.7,0.5-3.9,1.4-6.5
				c1-2.7,3.4-8.2,7.4-16.7c0.2-0.3,0.4-0.5,0.8-0.5h6.6c0.2,0,0.3,0.1,0.4,0.2c0.1,0.1,0.1,0.3,0,0.5c-4.2,8.9-6.8,14.8-7.8,17.5
				c-1,2.7-1.6,4.8-1.6,6.2c0,1,0.4,1.5,1.1,1.5c0.9,0,2.4-1.1,4.5-3.4c2.1-2.2,4.4-5.3,6.9-9.1c0.2-0.2,0.3-0.2,0.4,0
				c0.2,0.2,0.7,0.8,1.7,1.9c0.2,0.2,0.2,0.3,0.1,0.5c-2,3.3-3.8,5.9-5.3,7.9c-1.5,2-2.9,3.5-4.2,4.4c-1.3,0.9-2.4,1.5-3.2,1.7
				C528.8,384.3,527.8,384.5,526.5,384.5z M533,346.8c0.2-1.2,0.8-2.3,1.8-3.3c1-1,2.1-1.6,3.2-1.8c1.2-0.2,2.1,0.1,2.8,0.7
				c0.7,0.7,1,1.6,0.7,2.8c-0.2,1.2-0.8,2.3-1.8,3.3s-2.1,1.6-3.2,1.8c-1.2,0.2-2.1-0.1-2.8-0.7C533,349,532.8,348,533,346.8z"/>
			<path class="st11" d="M543.4,353.2h3.3c1.1-2.4,3.2-6.8,6.2-13.4c0.2-0.4,0.4-0.6,0.8-0.6h6.5c0.2,0,0.3,0.1,0.4,0.2
				c0.1,0.1,0.1,0.3,0,0.5c-2.9,6.3-5,10.7-6.2,13.3h4.4c0.2,0,0.3,0.1,0.4,0.2c0.1,0.1,0.1,0.3,0,0.5l-1.3,2.9
				c-0.2,0.3-0.4,0.5-0.8,0.5h-4.5c-3.6,7.9-5.9,13-6.7,15.2c-0.9,2.3-1.3,4.1-1.3,5.6c0,1,0.4,1.5,1.2,1.5c1.4,0,3.1-1,5.3-3
				c2.1-2,4.5-4.9,7-8.8c0.1-0.2,0.2-0.2,0.4,0c0.2,0.2,0.5,0.5,0.9,1c0.5,0.5,0.7,0.8,0.8,0.9c0.1,0.2,0.1,0.3,0,0.5
				c-2,3.3-3.8,5.9-5.3,7.9c-1.6,2-3.1,3.5-4.4,4.4c-1.3,0.9-2.5,1.5-3.5,1.7c-1,0.2-2.2,0.4-3.6,0.4c-1.7,0-3.1-0.7-4.3-2.1
				s-1.8-3-1.8-4.8c0-1.8,0.4-3.8,1.2-6c0.8-2.2,2.9-7,6.3-14.4h-3.1c-0.2,0-0.3-0.1-0.4-0.2c-0.1-0.1-0.1-0.3,0-0.4l1.3-3
				C542.8,353.3,543,353.2,543.4,353.2z"/>
			<path class="st11" d="M560.9,384.5c-1.7,0-3.1-0.6-4.3-1.8c-1.2-1.2-1.8-2.7-1.8-4.5c0-1.7,0.5-3.9,1.4-6.5
				c1-2.7,3.4-8.2,7.4-16.7c0.2-0.3,0.4-0.5,0.8-0.5h6.6c0.2,0,0.3,0.1,0.4,0.2c0.1,0.1,0.1,0.3,0,0.5c-4.2,8.9-6.8,14.8-7.8,17.5
				c-1,2.7-1.6,4.8-1.6,6.2c0,1,0.4,1.5,1.1,1.5c0.9,0,2.4-1.1,4.5-3.4c2.1-2.2,4.4-5.3,6.9-9.1c0.2-0.2,0.3-0.2,0.4,0
				c0.2,0.2,0.7,0.8,1.7,1.9c0.2,0.2,0.2,0.3,0.1,0.5c-2,3.3-3.8,5.9-5.3,7.9c-1.5,2-2.9,3.5-4.2,4.4c-1.3,0.9-2.4,1.5-3.2,1.7
				C563.2,384.3,562.2,384.5,560.9,384.5z M567.4,346.8c0.2-1.2,0.8-2.3,1.8-3.3c1-1,2.1-1.6,3.2-1.8c1.2-0.2,2.1,0.1,2.8,0.7
				c0.7,0.7,1,1.6,0.7,2.8c-0.2,1.2-0.8,2.3-1.8,3.3s-2.1,1.6-3.2,1.8c-1.2,0.2-2.1-0.1-2.8-0.7C567.4,349,567.2,348,567.4,346.8z"
				/>
			<path class="st11" d="M582,385.4c-3.1,0-5.5-0.9-7-2.8c-1.6-1.8-2.3-4.5-2.3-7.9c0-3.3,0.9-6.7,2.7-9.9s4.1-6,7.1-8.1
				c2.9-2.1,5.9-3.2,8.9-3.2c3.2,0,5.7,0.9,7.3,2.8c1.6,1.9,2.4,4.3,2.4,7.2c0,4.1-1.5,8.3-4.5,12.7c3,0.6,6.4-2.2,10.2-8.4
				c0.1-0.2,0.2-0.2,0.4-0.1c0.1,0,0.6,0.6,1.7,1.8c0.1,0.2,0.1,0.4,0,0.6c-0.5,0.9-1,1.6-1.5,2.3c-0.4,0.6-1,1.4-1.6,2.2
				c-0.7,0.8-1.3,1.5-1.9,2.1c-0.6,0.5-1.3,1.1-2.1,1.7c-0.8,0.6-1.6,1-2.3,1.2c-0.8,0.2-1.6,0.4-2.6,0.4c-1,0-1.9-0.2-2.8-0.6
				C590.2,383.4,586.2,385.4,582,385.4z M592.2,357.2c-1.4,0-3.1,1-5.1,3c-1.9,2-3.7,4.6-5.1,7.8c-1.5,3.2-2.2,6.3-2.2,9.3
				c0,1.5,0.2,2.7,0.7,3.7c0.5,1,1.2,1.4,2,1.4c2.1,0,4.4-1.7,6.9-5.2c-0.3-0.4-0.4-0.9-0.4-1.6c0-1.2,0.4-2.2,1.3-3.2
				c0.8-1,1.8-1.6,2.8-1.7c1.3-3,1.9-5.9,1.9-8.5C594.9,358.8,594,357.2,592.2,357.2z"/>
			<path class="st11" d="M619.8,378.5c0-1.4,0.2-2.8,0.6-4.1c0.4-1.3,1.4-3.6,3-6.9c2.7-6.4,3.2-9.7,1.4-9.9c-1.1,0-2.5,0.7-4.4,2.2
				c-1.8,1.5-3.6,3.5-5.3,6.3l-8.4,18c-0.2,0.3-0.4,0.5-0.7,0.5h-6.6c-0.2,0-0.3-0.1-0.4-0.2c-0.1-0.1-0.1-0.3,0-0.5l13.5-28.9
				c0.2-0.3,0.4-0.5,0.8-0.5h6.6c0.2,0,0.3,0.1,0.4,0.2c0.1,0.1,0.1,0.3,0,0.5l-1,2.2c1.1-0.9,2.2-1.6,3.4-2.1
				c1.2-0.5,2.1-0.8,2.8-0.9c0.7-0.1,1.5-0.1,2.6-0.1c1.9,0,3.3,0.5,4.4,1.6c1.1,1.1,1.6,2.3,1.6,3.8c0,1.5-0.3,3-1,4.7
				c-2.2,4.8-3.8,8.1-4.6,10.1c-0.8,2-1.2,3.4-1.2,4.3c0,1,0.4,1.5,1.1,1.5c1.1,0,2.8-1.2,5.2-3.7c2.4-2.5,4.6-5.4,6.7-8.7
				c0.1-0.2,0.2-0.2,0.4-0.1l1.7,1.9c0.1,0.2,0.1,0.3,0,0.5c-2,3.2-3.8,5.9-5.5,7.9c-1.7,2.1-3.2,3.5-4.6,4.4
				c-1.4,0.9-2.6,1.4-3.6,1.7c-1,0.2-2.1,0.4-3.3,0.4c-1.7,0-3-0.5-4-1.6C620.3,381.8,619.8,380.3,619.8,378.5z"/>
			<path class="st11" d="M664,385.4c-3.1,0-5.5-0.9-7-2.8c-1.6-1.8-2.3-4.5-2.3-7.9c0-3.3,0.9-6.7,2.7-9.9s4.1-6,7.1-8.1
				c2.9-2.1,5.9-3.2,8.9-3.2c3.2,0,5.7,0.9,7.3,2.8c1.6,1.9,2.4,4.3,2.4,7.2c0,4.1-1.5,8.3-4.5,12.7c3,0.6,6.4-2.2,10.2-8.4
				c0.1-0.2,0.2-0.2,0.4-0.1c0.1,0,0.6,0.6,1.7,1.8c0.1,0.2,0.1,0.4,0,0.6c-0.5,0.9-1,1.6-1.5,2.3c-0.4,0.6-1,1.4-1.6,2.2
				c-0.7,0.8-1.3,1.5-1.9,2.1c-0.6,0.5-1.3,1.1-2.1,1.7c-0.8,0.6-1.6,1-2.3,1.2c-0.8,0.2-1.6,0.4-2.6,0.4c-1,0-1.9-0.2-2.8-0.6
				C672.1,383.4,668.1,385.4,664,385.4z M674.1,357.2c-1.4,0-3.1,1-5.1,3c-1.9,2-3.7,4.6-5.1,7.8c-1.5,3.2-2.2,6.3-2.2,9.3
				c0,1.5,0.2,2.7,0.7,3.7c0.5,1,1.1,1.4,2,1.4c2.1,0,4.4-1.7,6.9-5.2c-0.3-0.4-0.4-0.9-0.4-1.6c0-1.2,0.4-2.2,1.3-3.2
				c0.8-1,1.8-1.6,2.8-1.7c1.3-3,1.9-5.9,1.9-8.5C676.9,358.8,676,357.2,674.1,357.2z"/>
			<path class="st11" d="M699.2,344.4c0.2-0.3,0.4-0.5,0.8-0.5h6.6c0.2,0,0.3,0.1,0.4,0.2s0.1,0.3,0,0.4c-4.4,9.5-8.1,17.5-10.9,24
				c1.9,1.4,2.8,4.3,2.8,8.5c0,0.2,0,0.5,0,0.7c2.3-0.3,5.1-3.6,8.5-9.9c0.1-0.2,0.2-0.2,0.4-0.1c0.4,0.4,1,1.1,1.7,1.9
				c0.1,0.2,0.1,0.3,0.1,0.5c-3.5,7.3-7.2,11.1-11.1,11.6c-0.3,2.6-0.9,5.3-1.7,8s-1.8,5.2-2.9,7.6s-2.6,4.3-4.2,5.8
				c-1.7,1.5-3.4,2.3-5.3,2.3c-1.8,0-3.1-0.8-3.9-2.3c-0.9-1.5-1.3-3.4-1.3-5.7c0-3.2,0.5-6.4,1.4-9.7c0.9-3.3,2.6-7.8,5.1-13.6
				C688.1,368.4,692.6,358.4,699.2,344.4z M686.7,399.7c1.5,0,3.1-2.1,4.8-6.3s2.8-8.4,3.3-12.6c-1.1-0.8-2-1.9-2.7-3.5
				c-2.5,6-4.2,10.4-5.1,13.3c-0.9,2.9-1.3,5.2-1.3,6.9c0,0.7,0.1,1.2,0.3,1.6C686.3,399.6,686.5,399.7,686.7,399.7z"/>
			<path class="st11" d="M727,353.2h3.3c1.1-2.4,3.2-6.8,6.2-13.4c0.2-0.4,0.4-0.6,0.8-0.6h6.5c0.2,0,0.3,0.1,0.4,0.2
				c0.1,0.1,0.1,0.3,0,0.5c-2.9,6.3-5,10.7-6.2,13.3h4.4c0.2,0,0.3,0.1,0.4,0.2s0.1,0.3,0,0.5l-1.3,2.9c-0.2,0.3-0.4,0.5-0.8,0.5
				h-4.5c-3.6,7.9-5.9,13-6.7,15.2c-0.9,2.3-1.3,4.1-1.3,5.6c0,1,0.4,1.5,1.2,1.5c1.4,0,3.1-1,5.3-3c2.1-2,4.5-4.9,7-8.8
				c0.1-0.2,0.2-0.2,0.4,0c0.2,0.2,0.5,0.5,0.9,1c0.5,0.5,0.7,0.8,0.8,0.9c0.1,0.2,0.1,0.3,0,0.5c-2,3.3-3.8,5.9-5.3,7.9
				c-1.6,2-3.1,3.5-4.4,4.4c-1.3,0.9-2.5,1.5-3.5,1.7c-1,0.2-2.2,0.4-3.6,0.4c-1.7,0-3.1-0.7-4.3-2.1c-1.2-1.4-1.8-3-1.8-4.8
				c0-1.8,0.4-3.8,1.2-6c0.8-2.2,2.9-7,6.3-14.4h-3.1c-0.2,0-0.3-0.1-0.4-0.2s-0.1-0.3,0-0.4l1.3-3
				C726.3,353.3,726.6,353.2,727,353.2z"/>
			<path class="st11" d="M777.3,370.1c-2,3.2-3.8,5.9-5.5,7.9c-1.7,2.1-3.2,3.5-4.6,4.4c-1.4,0.9-2.6,1.4-3.6,1.7
				c-1,0.2-2.1,0.4-3.4,0.4c-1.7,0-3-0.5-4-1.6c-1-1.1-1.5-2.5-1.5-4.4c0-1.4,0.2-2.8,0.6-4.1c0.4-1.3,1.4-3.6,2.9-6.9
				c2.7-6.4,3.2-9.7,1.4-9.9c-1.1,0-2.6,0.7-4.4,2.2s-3.6,3.6-5.4,6.4l-8.3,17.8c-0.2,0.3-0.4,0.5-0.7,0.5h-6.6
				c-0.2,0-0.3-0.1-0.4-0.2s-0.1-0.3,0-0.5l22-47.2c0.2-0.4,0.4-0.6,0.8-0.6h6.5c0.2,0,0.3,0.1,0.4,0.2c0.1,0.1,0.1,0.3,0,0.5
				l-9.6,20.6c1.1-1,2.2-1.7,3.4-2.2c1.2-0.5,2.1-0.8,2.8-0.9c0.7-0.1,1.5-0.1,2.6-0.1c1.9,0,3.3,0.5,4.4,1.6
				c1.1,1.1,1.6,2.3,1.6,3.8c0,1.5-0.3,3-1,4.7c-2.2,4.8-3.8,8.1-4.6,10.1c-0.8,2-1.2,3.4-1.2,4.3c0,1,0.4,1.5,1.2,1.5
				c1.1,0,2.8-1.2,5.2-3.7s4.6-5.4,6.7-8.8c0.1-0.2,0.2-0.2,0.4,0l1.7,1.9C777.4,369.8,777.4,369.9,777.3,370.1z"/>
			<path class="st11" d="M799.4,359c0,2.5-1.1,4.7-3.4,6.7c-2.2,2-4.8,3.5-7.6,4.5c-2.8,1-5.4,1.5-7.8,1.6c-0.2,1-0.3,1.9-0.3,2.9
				c0,1.6,0.3,2.9,1,3.9s1.7,1.5,3,1.5c1,0,2.1-0.2,3.2-0.5c1.2-0.3,2.6-0.8,4.2-1.6c1.6-0.8,3.4-2.1,5.2-3.9
				c1.8-1.8,3.5-3.9,5.1-6.4c0.1-0.2,0.2-0.2,0.4-0.1l1.6,1.9c0.1,0.2,0.1,0.3,0,0.5c-1.7,2.7-3.4,5.1-5.2,7.1
				c-1.8,2-3.4,3.5-4.8,4.4c-1.4,1-2.9,1.8-4.5,2.3c-1.6,0.6-2.9,0.9-3.8,1c-0.9,0.1-2,0.2-3.3,0.2c-3.2,0-5.7-1.1-7.3-3.2
				c-1.6-2.1-2.4-4.8-2.4-8c0-3,0.9-6.1,2.6-9.3c1.8-3.2,4.1-5.8,7.1-8c3-2.1,6-3.2,9.2-3.2c2.4,0,4.2,0.5,5.5,1.4
				C798.8,355.7,799.4,357.1,799.4,359z M792.5,356.6c-1.8,0-3.7,1.2-5.9,3.7c-2.2,2.5-3.9,5.3-5.1,8.5c5-1.3,8.7-3.8,10.8-7.5
				c1.3-2.1,1.6-3.6,0.9-4.5C793.1,356.7,792.9,356.6,792.5,356.6z"/>
			<path class="st11" d="M833.5,367.4c-3.1,0-6-1.3-8.5-3.9c-2.5-2.6-3.8-5.8-3.8-9.6c0-2.6,0.6-5.3,1.7-8.1
				c1.2-2.8,2.9-5.5,5.2-8.2c2.3-2.7,5.1-5,8.3-7.1c3.2-2.1,7-3.8,11.5-5.1c4.5-1.3,9.4-1.9,14.5-1.9c7.6,0,13.9,1.7,18.9,5.2
				c5,3.5,7.5,8.1,7.5,13.8c0,4.5-1.7,8.3-5.1,11.3c-3.4,3-7.8,5-13.1,5.9c2.3,1.2,3.5,3.3,3.5,6.5c0,1.2-0.2,2.6-0.5,4.4
				c-0.3,1.8-0.6,3.4-0.9,4.8c-0.3,1.5-0.6,2.9-0.8,4.3c-0.2,1.4-0.2,2.5,0,3.3c0.2,0.8,0.7,1.2,1.4,1.2c1.7,0,4.1-1.8,7.1-5.3
				c3.1-3.5,5.8-7.3,8.3-11.3c0.1-0.2,0.2-0.2,0.4,0l1.8,1.9c0.2,0.1,0.2,0.3,0,0.5c-8,13.1-14.9,19.6-20.6,19.6
				c-5.1,0-7.6-2.6-7.6-7.7c0-2.2,0.7-5.5,2.1-9.8c1.4-4.3,2.1-7.2,2.1-8.9c0-1.8-0.6-2.8-1.8-3.1c-0.4,0-0.7,0-0.7,0
				c-1.2,0-1.9-0.6-2.4-1.8c-0.3-0.9-0.2-1.3,0.3-1.3c5.5,0,9.9-1.5,13.1-4.5c3.2-3,4.8-6.8,4.8-11.3c0-4.2-1.4-7.7-4.1-10.3
				c-2.8-2.7-7.1-4-12.9-4c-4.2,0-8.1,0.6-11.7,1.8c-3.6,1.2-6.7,2.8-9.2,4.8c-2.5,1.9-4.6,4.1-6.4,6.5c-1.8,2.4-3.1,4.8-4,7.2
				c-0.8,2.4-1.3,4.6-1.3,6.7c0,2.1,0.5,3.7,1.4,5c0.9,1.2,2.2,1.8,3.9,1.8c2.2,0,4.3-1,6.1-2.9c1.8-1.9,2.7-3.7,2.7-5.4
				c0-0.5,0.4-0.6,1.1-0.2c1,0.5,1.6,1.5,1.6,2.7c0,2.6-1.3,5.3-4,8.1C840.5,366,837.2,367.4,833.5,367.4z M875.4,334.8
				c-1.9,0-3.7,1-5.5,3c-1.8,2-3.5,4.6-5.1,7.8c-1.5,3.2-3.1,6.7-4.6,10.6c-1.6,3.9-3.2,7.8-4.8,11.6s-3.4,7.4-5.2,10.6
				c-1.8,3.2-3.8,5.8-6,7.8c-2.2,2-4.6,3-7.1,3c-2.1,0-4-0.9-5.5-2.5c-1.6-1.7-2.3-3.4-2.3-5c0-0.7,0.1-1.2,0.3-1.6
				c0.2-0.4,0.4-0.7,0.7-0.7c0.1,0,0.2,0.1,0.6,0.4c0.3,0.3,0.7,0.4,1.1,0.4c1.1,0,2.1-0.1,3-0.4c0.9-0.3,2.1-0.9,3.4-2
				c1.3-1,2.7-2.5,4-4.3s3-4.4,4.8-7.6c1.8-3.3,3.8-7.2,5.9-11.7c3.4-7.5,6.8-12.9,10.1-16.3c3.3-3.4,6.8-5.1,10.3-5.1
				c1.3,0,2.1,0.4,2.4,1.3C875.8,334.5,875.7,334.8,875.4,334.8z"/>
			<path class="st11" d="M913.2,359c0,2.5-1.1,4.7-3.4,6.7c-2.2,2-4.8,3.5-7.6,4.5c-2.8,1-5.4,1.5-7.8,1.6c-0.2,1-0.3,1.9-0.3,2.9
				c0,1.6,0.3,2.9,1,3.9s1.7,1.5,3,1.5c1,0,2.1-0.2,3.2-0.5c1.2-0.3,2.6-0.8,4.2-1.6c1.6-0.8,3.4-2.1,5.2-3.9
				c1.8-1.8,3.5-3.9,5.1-6.4c0.1-0.2,0.2-0.2,0.4-0.1l1.6,1.9c0.1,0.2,0.1,0.3,0,0.5c-1.7,2.7-3.4,5.1-5.2,7.1
				c-1.8,2-3.4,3.5-4.8,4.4c-1.4,1-2.9,1.8-4.5,2.3c-1.6,0.6-2.9,0.9-3.8,1c-0.9,0.1-2,0.2-3.3,0.2c-3.2,0-5.7-1.1-7.3-3.2
				c-1.6-2.1-2.4-4.8-2.4-8c0-3,0.9-6.1,2.6-9.3c1.8-3.2,4.1-5.8,7.1-8c3-2.1,6-3.2,9.2-3.2c2.4,0,4.2,0.5,5.5,1.4
				C912.6,355.7,913.2,357.1,913.2,359z M906.3,356.6c-1.8,0-3.7,1.2-5.9,3.7c-2.2,2.5-3.9,5.3-5.1,8.5c5-1.3,8.7-3.8,10.8-7.5
				c1.3-2.1,1.6-3.6,0.9-4.5C906.9,356.7,906.7,356.6,906.3,356.6z"/>
			<path class="st11" d="M919.1,353.2h3.3c1.1-2.4,3.2-6.8,6.2-13.4c0.2-0.4,0.4-0.6,0.8-0.6h6.5c0.2,0,0.3,0.1,0.4,0.2
				c0.1,0.1,0.1,0.3,0,0.5c-2.9,6.3-5,10.7-6.2,13.3h4.4c0.2,0,0.3,0.1,0.4,0.2s0.1,0.3,0,0.5l-1.3,2.9c-0.2,0.3-0.4,0.5-0.8,0.5
				h-4.5c-3.6,7.9-5.9,13-6.7,15.2c-0.9,2.3-1.3,4.1-1.3,5.6c0,1,0.4,1.5,1.2,1.5c1.4,0,3.1-1,5.3-3c2.1-2,4.5-4.9,7-8.8
				c0.1-0.2,0.2-0.2,0.4,0c0.2,0.2,0.5,0.5,0.9,1c0.5,0.5,0.7,0.8,0.8,0.9c0.1,0.2,0.1,0.3,0,0.5c-2,3.3-3.8,5.9-5.3,7.9
				c-1.6,2-3.1,3.5-4.4,4.4c-1.3,0.9-2.5,1.5-3.5,1.7c-1,0.2-2.2,0.4-3.6,0.4c-1.7,0-3.1-0.7-4.3-2.1c-1.2-1.4-1.8-3-1.8-4.8
				c0-1.8,0.4-3.8,1.2-6c0.8-2.2,2.9-7,6.3-14.4h-3.1c-0.2,0-0.3-0.1-0.4-0.2s-0.1-0.3,0-0.4l1.3-3
				C918.5,353.3,918.8,353.2,919.1,353.2z"/>
			<path class="st11" d="M960,370.1c-2,3.3-3.7,6-5.3,8.1c-1.5,2.1-2.9,3.6-4.2,4.6c-1.3,1-2.3,1.6-3.2,1.9
				c-0.9,0.3-1.9,0.5-3.1,0.5c-1.7,0-3.1-0.6-4.2-1.8c-1.1-1.2-1.7-2.7-1.7-4.5s0.5-4,1.4-6.7c1-2.6,2.9-6.7,5.9-12.2
				c0.3-0.7,0.5-1.2,0.5-1.7c0-0.8-0.7-1.7-2.1-2.6c-1.9,3.9-5.1,9.5-9.8,16.9c-0.1,0.2-0.2,0.2-0.4,0.1l-1.8-1.7
				c-0.2-0.2-0.2-0.3-0.1-0.5c4.1-6.8,7.1-12.4,9-16.7c-0.9-0.8-1.4-1.5-1.4-2.3c0-1.2,0.3-2.1,1-2.8c0.7-0.7,1.5-1,2.4-1
				c0.8,0,1.5,0.3,2.1,0.9c0.5,0.6,0.8,1.3,0.8,2.3c0,0.2-0.1,0.5-0.2,0.7c0.2,0.1,0.4,0.3,0.7,0.5c1.1,0.7,2,1.2,2.6,1.6
				c0.6,0.4,1.3,0.9,2.1,1.6c0.8,0.7,1.4,1.3,1.8,2c0.4,0.7,0.5,1.4,0.5,2.1c0,0.7-0.2,1.5-0.7,2.4c-4.9,9.3-7.4,15.2-7.4,17.7
				c0,1,0.4,1.6,1.2,1.6c0.4,0,1-0.4,1.9-1.1s2.2-2.2,3.9-4.3c1.7-2.1,3.5-4.7,5.4-7.7c0.2-0.2,0.3-0.2,0.4,0l1.7,1.9
				C960.1,369.8,960.1,369.9,960,370.1z"/>
			<path class="st11" d="M965.2,385.4c-3.1,0-5.5-0.9-7-2.8c-1.6-1.8-2.3-4.5-2.3-7.9c0-3.3,0.9-6.7,2.7-9.9s4.1-6,7.1-8.1
				c2.9-2.1,5.9-3.2,8.9-3.2c3.2,0,5.7,0.9,7.3,2.8c1.6,1.9,2.4,4.3,2.4,7.2c0,4.1-1.5,8.3-4.5,12.7c3,0.6,6.4-2.2,10.2-8.4
				c0.1-0.2,0.2-0.2,0.4-0.1c0.1,0,0.6,0.6,1.7,1.8c0.1,0.2,0.1,0.4,0,0.6c-0.5,0.9-1,1.6-1.5,2.3c-0.4,0.6-1,1.4-1.6,2.2
				c-0.7,0.8-1.3,1.5-1.9,2.1c-0.6,0.5-1.3,1.1-2.1,1.7c-0.8,0.6-1.6,1-2.3,1.2c-0.8,0.2-1.6,0.4-2.6,0.4c-1,0-1.9-0.2-2.8-0.6
				C973.3,383.4,969.3,385.4,965.2,385.4z M975.3,357.2c-1.4,0-3.1,1-5.1,3c-1.9,2-3.7,4.6-5.1,7.8c-1.5,3.2-2.2,6.3-2.2,9.3
				c0,1.5,0.2,2.7,0.7,3.7c0.5,1,1.1,1.4,2,1.4c2.1,0,4.4-1.7,6.9-5.2c-0.3-0.4-0.4-0.9-0.4-1.6c0-1.2,0.4-2.2,1.3-3.2
				c0.8-1,1.8-1.6,2.8-1.7c1.3-3,1.9-5.9,1.9-8.5C978.1,358.8,977.1,357.2,975.3,357.2z"/>
		</g>
	</g>
</g>
<g>
	
		<image style="overflow:visible;opacity:0.7;enable-background:new    ;" width="398" height="172" xlink:href="13B47F1B.png"  transform="matrix(1 0 0 1 842 334)">
	</image>
	<g>
		<g class="st13">
			<path class="st11" d="M896.4,434.2c0-1.5,0.1-3.3,0.4-5.4c0.2-2.1,0.6-4.4,1-6.7c0.4-2.3,0.9-4.7,1.4-7.1s1.1-4.7,1.7-6.8
				c-0.4,0.3-0.8,0.5-1,0.5c-0.3,0-0.6-0.2-1.1-0.5c-0.4-0.3-0.8-0.8-1.2-1.2s-0.7-1-1-1.4c-0.2-0.5-0.3-0.8-0.2-1.1
				c0-0.1,0.1-0.2,0.2-0.2c1.4-0.7,2.8-1.6,4.3-2.7c1.4-1.1,2.7-2.2,3.7-3.4c0.4,0,0.9,0.1,1.6,0.2c0.6,0.1,1.3,0.3,1.9,0.5
				c0.6,0.2,1.2,0.5,1.6,0.8c0.4,0.3,0.7,0.6,0.7,1c0,0.1,0,0.2-0.1,0.3c-0.2,0.2-0.3,0.4-0.4,0.5c-0.1,0.1-0.2,0.3-0.4,0.5
				c-0.6,1.1-1.2,2.5-1.9,4.4c-0.6,1.8-1.3,3.9-1.9,6.1c-0.6,2.2-1.2,4.5-1.7,6.9s-1,4.7-1.4,6.9s-0.8,4.2-1,5.9
				c-0.2,1.8-0.4,3.1-0.4,4.1c0,0.5-0.2,0.7-0.7,0.7c-0.4,0-0.8-0.1-1.2-0.2c-0.5-0.2-0.9-0.4-1.3-0.6c-0.4-0.2-0.7-0.5-1-0.8
				C896.5,434.9,896.4,434.6,896.4,434.2z"/>
			<path class="st11" d="M909.8,433.6c0.7-2.6,1.6-5.3,2.7-8c1.1-2.7,2.3-5.3,3.7-7.9c1.4-2.6,2.8-5.1,4.3-7.6
				c1.5-2.5,3-4.8,4.5-7.1c-4.5,0.3-9,1.3-13.5,3.2c-0.4,0.2-0.7,0.4-1,0.6c-0.2,0.1-0.3,0.1-0.3,0.1c-0.2,0-0.5-0.3-0.7-0.7
				c-0.2-0.4-0.4-1-0.6-1.5c-0.2-0.6-0.3-1.2-0.4-1.7c-0.1-0.6-0.1-1-0.1-1.3c0.1-0.5,0.9-0.9,2.5-1.4c1.7-0.4,3.3-0.8,4.9-1.1
				s3.1-0.5,4.7-0.7c1.5-0.2,3.1-0.3,4.7-0.3c1.6,0,3.3,0,5,0.1c0.3,0,0.7,0.3,1,0.9c0.3,0.6,0.6,1.1,0.8,1.7
				c0.1,0.4,0.2,0.8,0.1,1.2c-0.1,0.3-0.3,0.7-0.7,1.2c-1.4,1.6-2.8,3.4-4.1,5.4c-1.3,2-2.6,4.2-3.9,6.6c-1.2,2.3-2.4,4.7-3.5,7.1
				c-1.1,2.4-2.1,4.8-3,7.1c-0.2,0.6-0.5,1.3-0.7,2c-0.2,0.7-0.4,1.4-0.6,2c-0.2,0.7-0.3,1.3-0.4,1.8c-0.1,0.6-0.2,1-0.2,1.4
				c0,0.2-0.1,0.3-0.4,0.4c-0.2,0.1-0.5,0.1-0.7,0.1c-0.7,0-1.5-0.1-2.3-0.4c-0.9-0.3-1.5-0.6-2-1
				C909.5,435.3,909.5,434.6,909.8,433.6z"/>
			<path class="st11" d="M941,404.9c-0.2,0.2-0.4,0.5-0.5,0.7s-0.2,0.5-0.3,0.8c-0.1,0.3-0.2,0.6-0.3,0.9c-0.1,0.3-0.2,0.6-0.3,0.9
				c0.9,0,1.8,0.1,2.6,0.2c0.8,0.1,1.5,0.3,1.9,0.6c0.1,0,0.2,0.2,0.3,0.4c0.1,0.2,0.2,0.4,0.2,0.7c0.1,0.3,0.1,0.5,0.2,0.8
				c0,0.2,0.1,0.4,0.1,0.6c0,0.3-0.1,0.5-0.2,0.7h-0.2c-0.9-0.3-1.8-0.5-2.9-0.6c-1-0.1-2-0.1-2.9-0.1c-0.5,1.8-1,3.6-1.5,5.6
				s-1,3.9-1.4,5.7c-0.4,1.9-0.8,3.7-1.1,5.4c-0.3,1.7-0.6,3.3-0.8,4.6c-0.1,0.7-0.1,1.1,0.1,1.2c0.1,0.1,0.4-0.1,0.9-0.5
				c0.9-0.9,1.8-2,2.6-3.3c0.9-1.3,1.7-2.6,2.5-3.9c0.8-1.3,1.5-2.6,2.1-3.9c0.6-1.3,1.1-2.4,1.5-3.4c0.1-0.2,0.3-0.4,0.5-0.5
				c0.2-0.1,0.4-0.1,0.6,0c0.2,0.1,0.4,0.2,0.5,0.4c0.1,0.2,0.1,0.4,0,0.7c-0.3,0.7-0.7,1.6-1.2,2.7c-0.5,1.1-1.1,2.3-1.8,3.6
				c-0.7,1.3-1.4,2.6-2.3,3.9c-0.8,1.3-1.7,2.5-2.6,3.6c-0.9,1.1-1.8,1.9-2.6,2.6c-0.9,0.7-1.7,1-2.5,1c-0.8,0-1.5-0.2-1.9-0.6
				c-0.4-0.4-0.8-0.9-0.9-1.5c-0.2-0.6-0.3-1.2-0.3-1.9c0-0.7,0-1.3,0.1-1.9c0.1-1.4,0.3-2.8,0.5-4.5c0.2-1.6,0.5-3.2,0.9-4.9
				s0.7-3.4,1.1-5.1c0.4-1.7,0.8-3.4,1.2-5.1h-1.3c-0.3,0-0.6,0-1.1,0c-0.4,0-0.9-0.1-1.3-0.2c-0.4-0.1-0.8-0.2-1.2-0.5
				c-0.4-0.2-0.6-0.5-0.8-0.9c-0.2-0.5,0-0.7,0.5-0.7c1,0,2,0,2.9-0.2c1-0.1,1.9-0.2,2.9-0.3c0.2-0.8,0.4-1.6,0.6-2.3
				s0.5-1.5,0.8-2.2c0.6-1.5,1.2-2.2,1.7-2.2c0.3,0,0.7,0.1,1.3,0.2c0.6,0.2,1.1,0.4,1.6,0.6c0.5,0.3,1,0.5,1.4,0.8
				c0.4,0.3,0.6,0.5,0.6,0.8c0,0.1-0.1,0.2-0.2,0.3c0,0-0.1,0.1-0.1,0.1C941.1,404.8,941,404.8,941,404.9z"/>
			<path class="st11" d="M949.9,432.8c0.3-2.6,0.8-5.4,1.4-8.2c0.7-2.9,1.5-5.6,2.4-8.1c-1,1.1-2.1,2.4-3,3.9
				c-1,1.4-1.9,2.9-2.7,4.5c-0.8,1.6-1.5,3.1-2.1,4.7c-0.6,1.6-1,3.1-1.3,4.4c-0.1,0.4-0.1,0.7-0.2,1.1c0,0.4-0.1,0.8-0.1,1.1
				c0,0.5-0.2,0.7-0.7,0.7c-0.4,0-0.8-0.1-1.2-0.2c-0.5-0.2-0.9-0.4-1.3-0.6c-0.4-0.2-0.7-0.5-1-0.8c-0.3-0.3-0.4-0.6-0.4-1
				c0-1.8,0.2-3.9,0.5-6.3s0.7-5,1.2-7.7c0.5-2.7,1.1-5.3,1.7-8c0.6-2.6,1.3-5,1.9-7.1c0.6-2.1,1.3-3.8,1.8-5.1c0.6-1.3,1.1-2,1.5-2
				c0.3,0,0.7,0.1,1.3,0.3s1.2,0.4,1.7,0.6c0.6,0.2,1.1,0.5,1.5,0.8c0.4,0.3,0.7,0.5,0.7,0.8c0,0.1,0,0.2-0.1,0.3
				c-0.2,0.2-0.3,0.4-0.4,0.5c-0.1,0.1-0.2,0.3-0.3,0.5c-0.6,1-1.2,2.5-1.8,4.2c-0.6,1.8-1.2,3.8-1.8,5.9c-0.6,2.1-1.2,4.4-1.7,6.7
				c-0.5,2.3-1,4.6-1.4,6.7c1.1-2.4,2.4-4.7,4-6.9c1.5-2.2,3.1-3.9,4.8-5.3c0.3-0.3,0.7-0.4,1.1-0.4c0.2,0,0.6,0.1,1,0.2
				c0.4,0.1,0.9,0.3,1.4,0.5c0.5,0.2,0.9,0.5,1.2,0.7c0.3,0.3,0.5,0.5,0.5,0.8c0,0.1,0,0.2-0.1,0.3c0,0.1-0.1,0.2-0.1,0.3
				c-0.1,0.2-0.2,0.5-0.4,0.7c-0.1,0.2-0.2,0.5-0.3,0.8c-0.5,1.3-0.9,2.6-1.4,4.1c-0.4,1.4-0.8,2.8-1.2,4.2c-0.4,1.4-0.7,2.8-1,4.1
				c-0.3,1.3-0.5,2.5-0.7,3.5c-0.1,0.9,0.2,1.1,0.9,0.4c0.9-0.9,1.7-2,2.5-3.3c0.8-1.3,1.5-2.6,2.2-3.9c0.7-1.4,1.3-2.7,1.8-4
				c0.5-1.3,1-2.5,1.4-3.5c0.1-0.2,0.2-0.4,0.5-0.5c0.2-0.1,0.4-0.1,0.6,0c0.2,0.1,0.3,0.2,0.5,0.4c0.1,0.2,0.1,0.4,0,0.7
				c-0.3,0.7-0.6,1.6-1.1,2.7c-0.4,1.1-1,2.3-1.6,3.6c-0.6,1.3-1.3,2.6-2,3.9c-0.7,1.3-1.5,2.5-2.3,3.6c-0.8,1.1-1.6,1.9-2.5,2.6
				c-0.9,0.7-1.7,1-2.6,1c-0.5,0-1-0.1-1.4-0.4c-0.4-0.2-0.8-0.6-1.1-1c-0.3-0.4-0.5-0.8-0.7-1.3
				C949.9,433.8,949.8,433.3,949.9,432.8z"/>
			<path class="st11" d="M970.4,419.9c-0.4,0-0.9,0-1.2-0.2c-0.4-0.2-0.7-0.6-0.9-1.3c-0.1-0.4-0.2-0.9-0.3-1.4
				c-0.1-0.5-0.2-0.9-0.2-1.3c0-0.3,0-0.5,0.1-0.5c0.1,0,0.3,0,0.4,0.1c0.3,0.1,0.7,0.2,1.3,0.2c0.5,0,1,0,1.6,0
				c1.8-0.1,3.7-0.2,5.7-0.3c1.9-0.1,3.8-0.1,5.6-0.1c0.3,0,0.6,0.1,0.8,0.4c0.3,0.3,0.5,0.6,0.7,0.9c0.2,0.4,0.3,0.8,0.4,1.2
				c0.1,0.4,0.1,0.8,0.1,1.2c0,0.4-0.3,0.6-0.8,0.6c-2.2-0.1-4.4-0.1-6.6,0.1C974.8,419.6,972.6,419.7,970.4,419.9z"/>
			<path class="st11" d="M987.9,434.2c0-1.5,0.1-3.3,0.4-5.4c0.2-2.1,0.6-4.4,1-6.7c0.4-2.3,0.9-4.7,1.4-7.1s1.1-4.7,1.7-6.8
				c-0.4,0.3-0.8,0.5-1,0.5c-0.3,0-0.6-0.2-1.1-0.5c-0.4-0.3-0.8-0.8-1.2-1.2c-0.4-0.5-0.7-1-1-1.4s-0.3-0.8-0.2-1.1
				c0-0.1,0.1-0.2,0.2-0.2c1.4-0.7,2.8-1.6,4.3-2.7c1.4-1.1,2.7-2.2,3.7-3.4c0.4,0,0.9,0.1,1.6,0.2c0.6,0.1,1.3,0.3,1.9,0.5
				c0.6,0.2,1.2,0.5,1.6,0.8s0.7,0.6,0.7,1c0,0.1,0,0.2-0.1,0.3c-0.2,0.2-0.3,0.4-0.4,0.5c-0.1,0.1-0.2,0.3-0.4,0.5
				c-0.6,1.1-1.2,2.5-1.9,4.4c-0.6,1.8-1.3,3.9-1.9,6.1c-0.6,2.2-1.2,4.5-1.7,6.9c-0.5,2.4-1,4.7-1.4,6.9c-0.4,2.2-0.8,4.2-1,5.9
				s-0.4,3.1-0.4,4.1c0,0.5-0.2,0.7-0.7,0.7c-0.4,0-0.8-0.1-1.2-0.2s-0.9-0.4-1.3-0.6c-0.4-0.2-0.7-0.5-1-0.8
				C988,434.9,987.9,434.6,987.9,434.2z"/>
			<path class="st11" d="M1013.3,420.3c-1.1,0.8-2.4,1.4-3.9,1.6c-1.5,0.2-2.9,0-4.3-0.7c-1.4-0.7-2.4-1.7-3.1-3.2
				c-0.7-1.4-1-3-1.1-4.8c0-1.7,0.2-3.6,0.8-5.4c0.5-1.9,1.4-3.6,2.4-5.1c1.1-1.5,2.4-2.8,4-3.7c1.6-1,3.4-1.5,5.4-1.5
				c2.2,0,4,0.5,5.2,1.6s2,2.5,2.5,4.2c0.5,1.7,0.7,3.6,0.6,5.7c-0.1,2.1-0.3,4.1-0.7,6.2c-0.4,2-0.9,3.9-1.4,5.7
				c-0.5,1.7-1,3.1-1.3,4.1c-0.5,1.4-1.1,2.8-1.8,4.3c-0.7,1.4-1.6,2.8-2.6,4s-2.2,2.2-3.5,2.9c-1.3,0.8-2.8,1.1-4.5,1.1
				c-1.7,0-3.2-0.3-4.4-1c-1.2-0.7-2.2-1.6-2.9-2.7c-0.7-1.1-1.1-2.4-1.2-3.7c-0.1-1.4,0.1-2.8,0.6-4.2c0.2-0.8,0.5-1.3,0.8-1.3
				c0.3,0,0.7,0,1.3,0.1c0.6,0.1,1.1,0.2,1.7,0.3c0.6,0.1,1.1,0.3,1.5,0.4c0.4,0.2,0.7,0.4,0.7,0.6c0,0.1,0,0.2-0.1,0.3
				c-0.4,0.7-0.6,1.5-0.8,2.2c-0.1,0.3-0.1,0.8-0.1,1.4c0,0.6,0.1,1.2,0.3,1.8s0.4,1.1,0.8,1.6c0.3,0.5,0.8,0.7,1.4,0.7
				c1,0,1.9-0.6,2.8-1.8c0.9-1.2,1.6-2.5,2.3-4.1c0.7-1.5,1.2-3.1,1.7-4.6C1012.7,422,1013.1,420.9,1013.3,420.3z M1013.6,400.6
				c-0.8,0-1.6,0.5-2.4,1.4c-0.8,0.9-1.5,2.1-2.1,3.4c-0.6,1.4-1.1,2.8-1.5,4.5c-0.4,1.6-0.7,3.1-0.8,4.5c-0.1,1.4,0,2.5,0.3,3.4
				s0.9,1.4,1.7,1.4c0.4,0,0.8-0.1,1.3-0.2s0.9-0.4,1.4-0.6s0.8-0.6,1.2-0.9c0.4-0.3,0.6-0.6,0.8-1c0.8-1.3,1.5-2.8,2-4.6
				s0.7-3.5,0.8-5.2c0-1.6-0.2-3-0.6-4.2S1014.5,400.6,1013.6,400.6z"/>
			<path class="st11" d="M1034.2,404.9c-0.2,0.2-0.4,0.5-0.5,0.7s-0.2,0.5-0.3,0.8c-0.1,0.3-0.2,0.6-0.3,0.9
				c-0.1,0.3-0.2,0.6-0.3,0.9c0.9,0,1.8,0.1,2.6,0.2c0.8,0.1,1.5,0.3,1.9,0.6c0.1,0,0.2,0.2,0.3,0.4c0.1,0.2,0.2,0.4,0.2,0.7
				c0.1,0.3,0.1,0.5,0.2,0.8c0,0.2,0.1,0.4,0.1,0.6c0,0.3-0.1,0.5-0.2,0.7h-0.2c-0.9-0.3-1.8-0.5-2.9-0.6c-1-0.1-2-0.1-2.9-0.1
				c-0.5,1.8-1,3.6-1.5,5.6s-1,3.9-1.4,5.7c-0.4,1.9-0.8,3.7-1.1,5.4c-0.3,1.7-0.6,3.3-0.8,4.6c-0.1,0.7-0.1,1.1,0.1,1.2
				c0.1,0.1,0.4-0.1,0.9-0.5c0.9-0.9,1.8-2,2.6-3.3c0.9-1.3,1.7-2.6,2.5-3.9c0.8-1.3,1.5-2.6,2.1-3.9c0.6-1.3,1.1-2.4,1.5-3.4
				c0.1-0.2,0.3-0.4,0.5-0.5c0.2-0.1,0.4-0.1,0.6,0c0.2,0.1,0.4,0.2,0.5,0.4c0.1,0.2,0.1,0.4,0,0.7c-0.3,0.7-0.7,1.6-1.2,2.7
				c-0.5,1.1-1.1,2.3-1.8,3.6c-0.7,1.3-1.4,2.6-2.3,3.9c-0.8,1.3-1.7,2.5-2.6,3.6c-0.9,1.1-1.8,1.9-2.6,2.6c-0.9,0.7-1.7,1-2.5,1
				c-0.8,0-1.5-0.2-1.9-0.6c-0.4-0.4-0.8-0.9-0.9-1.5c-0.2-0.6-0.3-1.2-0.3-1.9c0-0.7,0-1.3,0.1-1.9c0.1-1.4,0.3-2.8,0.5-4.5
				c0.2-1.6,0.5-3.2,0.9-4.9s0.7-3.4,1.1-5.1c0.4-1.7,0.8-3.4,1.2-5.1h-1.3c-0.3,0-0.6,0-1.1,0c-0.4,0-0.9-0.1-1.3-0.2
				c-0.4-0.1-0.8-0.2-1.2-0.5c-0.4-0.2-0.6-0.5-0.8-0.9c-0.2-0.5,0-0.7,0.5-0.7c1,0,2,0,2.9-0.2c1-0.1,1.9-0.2,2.9-0.3
				c0.2-0.8,0.4-1.6,0.6-2.3s0.5-1.5,0.8-2.2c0.6-1.5,1.2-2.2,1.7-2.2c0.3,0,0.7,0.1,1.3,0.2c0.6,0.2,1.1,0.4,1.6,0.6
				c0.5,0.3,1,0.5,1.4,0.8c0.4,0.3,0.6,0.5,0.6,0.8c0,0.1-0.1,0.2-0.2,0.3c0,0-0.1,0.1-0.1,0.1
				C1034.3,404.8,1034.2,404.8,1034.2,404.9z"/>
			<path class="st11" d="M1043.1,432.8c0.3-2.6,0.8-5.4,1.4-8.2c0.7-2.9,1.5-5.6,2.4-8.1c-1,1.1-2.1,2.4-3,3.9
				c-1,1.4-1.9,2.9-2.7,4.5c-0.8,1.6-1.5,3.1-2.1,4.7c-0.6,1.6-1,3.1-1.3,4.4c-0.1,0.4-0.1,0.7-0.2,1.1c0,0.4-0.1,0.8-0.1,1.1
				c0,0.5-0.2,0.7-0.7,0.7c-0.4,0-0.8-0.1-1.2-0.2c-0.5-0.2-0.9-0.4-1.3-0.6c-0.4-0.2-0.7-0.5-1-0.8c-0.3-0.3-0.4-0.6-0.4-1
				c0-1.8,0.2-3.9,0.5-6.3s0.7-5,1.2-7.7c0.5-2.7,1.1-5.3,1.7-8c0.6-2.6,1.3-5,1.9-7.1c0.6-2.1,1.3-3.8,1.8-5.1c0.6-1.3,1.1-2,1.5-2
				c0.3,0,0.7,0.1,1.3,0.3s1.2,0.4,1.7,0.6c0.6,0.2,1.1,0.5,1.5,0.8c0.4,0.3,0.7,0.5,0.7,0.8c0,0.1,0,0.2-0.1,0.3
				c-0.2,0.2-0.3,0.4-0.4,0.5c-0.1,0.1-0.2,0.3-0.3,0.5c-0.6,1-1.2,2.5-1.8,4.2c-0.6,1.8-1.2,3.8-1.8,5.9c-0.6,2.1-1.2,4.4-1.7,6.7
				c-0.5,2.3-1,4.6-1.4,6.7c1.1-2.4,2.4-4.7,4-6.9c1.5-2.2,3.1-3.9,4.8-5.3c0.3-0.3,0.7-0.4,1.1-0.4c0.2,0,0.6,0.1,1,0.2
				c0.4,0.1,0.9,0.3,1.4,0.5c0.5,0.2,0.9,0.5,1.2,0.7c0.3,0.3,0.5,0.5,0.5,0.8c0,0.1,0,0.2-0.1,0.3c0,0.1-0.1,0.2-0.1,0.3
				c-0.1,0.2-0.2,0.5-0.4,0.7c-0.1,0.2-0.2,0.5-0.3,0.8c-0.5,1.3-0.9,2.6-1.4,4.1c-0.4,1.4-0.8,2.8-1.2,4.2c-0.4,1.4-0.7,2.8-1,4.1
				c-0.3,1.3-0.5,2.5-0.7,3.5c-0.1,0.9,0.2,1.1,0.9,0.4c0.9-0.9,1.7-2,2.5-3.3c0.8-1.3,1.5-2.6,2.2-3.9c0.7-1.4,1.3-2.7,1.8-4
				c0.5-1.3,1-2.5,1.4-3.5c0.1-0.2,0.2-0.4,0.5-0.5c0.2-0.1,0.4-0.1,0.6,0c0.2,0.1,0.3,0.2,0.5,0.4c0.1,0.2,0.1,0.4,0,0.7
				c-0.3,0.7-0.6,1.6-1.1,2.7c-0.4,1.1-1,2.3-1.6,3.6c-0.6,1.3-1.3,2.6-2,3.9c-0.7,1.3-1.5,2.5-2.3,3.6c-0.8,1.1-1.6,1.9-2.5,2.6
				c-0.9,0.7-1.7,1-2.6,1c-0.5,0-1-0.1-1.4-0.4c-0.4-0.2-0.8-0.6-1.1-1c-0.3-0.4-0.5-0.8-0.7-1.3
				C1043,433.8,1043,433.3,1043.1,432.8z"/>
			<path class="st11" d="M1059.9,436.1c0-1.7,0.5-3.4,1.5-4.9c1-1.6,2.3-3,3.9-4.3s3.3-2.5,5.2-3.5c1.9-1,3.7-1.9,5.5-2.6
				c0.6-2.4,1.1-4.9,1.4-7.4c0.4-2.5,0.6-4.9,0.7-7.2c0-1.4-0.1-2.7-0.3-3.7c-0.2-1-0.6-1.5-1.2-1.5c-0.4,0-0.8,0.3-1.3,0.8
				c-0.8,0.9-1.5,1.9-2,3.1c-0.5,1.1-0.9,2.3-1.2,3.5c-0.3,1.2-0.5,2.4-0.7,3.7c-0.2,1.2-0.3,2.4-0.4,3.5c0,0.2,0,0.5,0,0.7
				c0,0.2,0,0.4,0,0.6c0.1,0.1,0.1,0.2,0,0.3c-0.1,0.2-0.3,0.3-0.6,0.4c-0.3,0.1-0.7,0.1-1.1,0.1c-1.1,0-2-0.2-2.6-0.7
				c-0.6-0.4-0.8-1.2-0.6-2.4c0.4-2.3,1.2-4.8,2.2-7.3s2.2-4.8,3.6-6.8c0.6-0.9,1.4-1.5,2.4-1.8c1-0.3,1.9-0.5,2.7-0.5
				c0.8,0,1.6,0.1,2.4,0.4c0.8,0.3,1.6,0.6,2.3,1.1c0.7,0.4,1.3,0.9,1.7,1.5c0.5,0.6,0.7,1.1,0.7,1.6c0,1.9-0.1,4.2-0.4,6.8
				c-0.3,2.7-0.7,5.4-1.3,8.3c-0.6,2.9-1.3,5.8-2.3,8.6c-0.9,2.8-2,5.4-3.4,7.7c-1.3,2.3-2.8,4.1-4.6,5.5c-1.7,1.4-3.7,2.1-5.8,2.1
				c-0.8,0-1.7-0.1-2.5-0.4c-0.8-0.3-1.5-0.6-2.1-1.1s-1.1-1.1-1.5-1.8C1060.1,437.8,1059.9,437,1059.9,436.1z M1065.1,438.9
				c0.9,0,1.7-0.2,2.5-0.7c0.8-0.5,1.5-1.1,2.1-1.7s1.1-1.4,1.6-2.2c0.5-0.8,0.8-1.5,1.1-2.2c0.6-1.3,1.2-2.7,1.7-4.3
				c0.5-1.5,1-3.1,1.5-4.8c-1.5,0.7-3.1,1.5-4.6,2.5c-1.6,1-3,2-4.2,3.2c-1.3,1.1-2.3,2.4-3.1,3.7c-0.8,1.3-1.2,2.7-1.2,4.1
				c0,0.8,0.3,1.4,0.8,1.9C1063.6,438.7,1064.3,438.9,1065.1,438.9z"/>
			<path class="st11" d="M1093.8,432.8c0.1-0.4,0.1-0.8,0.2-1.1c0-0.4,0.1-0.7,0.2-1.1c0-0.1,0.1-0.2,0.1-0.4
				c-0.9,1.8-1.9,3.4-3,4.8c-1.1,1.3-2.4,2-3.7,2c-1.2,0-2.1-0.4-2.8-1.1c-0.7-0.7-1.1-1.6-1.2-2.7c-0.2-1.6-0.2-3.5,0.2-5.5
				c0.3-2,0.8-4,1.6-5.9c0.8-1.9,1.7-3.6,2.9-5.2c1.1-1.6,2.5-2.8,3.9-3.6c0.5-0.3,1-0.4,1.5-0.4c0.5,0,1,0.1,1.5,0.3
				c0.5,0.2,1,0.4,1.6,0.7c0.5,0.3,1.1,0.6,1.6,0.8c0.1-0.1,0.1-0.2,0.2-0.4c0-0.2,0.1-0.3,0.1-0.4c0.2-0.5,0.5-0.8,0.9-0.8
				c0.3,0,0.6,0.1,1,0.2c0.4,0.1,0.8,0.3,1.1,0.5c0.4,0.2,0.7,0.4,1,0.6c0.3,0.2,0.6,0.4,0.8,0.5c0.3,0.2,0.4,0.5,0.2,0.9
				c-0.2,0.3-0.4,0.7-0.5,1c-0.5,1.3-0.9,2.7-1.4,4.2c-0.4,1.5-0.8,3-1.2,4.5c-0.4,1.5-0.7,2.9-1,4.3c-0.3,1.4-0.5,2.6-0.7,3.7
				c-0.1,0.4,0,0.7,0.2,0.7s0.4-0.1,0.7-0.3c0.9-0.9,1.8-2,2.6-3.3c0.8-1.3,1.5-2.6,2.1-3.9c0.6-1.4,1.2-2.7,1.7-4
				c0.5-1.3,1-2.5,1.4-3.5c0.1-0.2,0.3-0.4,0.5-0.5c0.2-0.1,0.4-0.1,0.6,0c0.2,0.1,0.4,0.2,0.5,0.4c0.1,0.2,0.1,0.4,0,0.7
				c-0.3,0.7-0.6,1.6-1.1,2.7c-0.4,1.1-0.9,2.3-1.5,3.6c-0.6,1.3-1.3,2.6-2,3.9c-0.7,1.3-1.4,2.5-2.2,3.6c-0.8,1.1-1.6,1.9-2.4,2.6
				c-0.8,0.7-1.7,1-2.5,1c-0.5,0-1-0.1-1.4-0.4c-0.4-0.2-0.8-0.6-1.1-1c-0.3-0.4-0.5-0.8-0.7-1.3
				C1093.8,433.8,1093.8,433.3,1093.8,432.8z M1089.2,433.8c0.5,0,1-0.3,1.5-1s1.1-1.5,1.6-2.5c0.5-1,1.1-2.2,1.5-3.4
				c0.5-1.3,0.9-2.5,1.4-3.7c0.4-1.2,0.8-2.3,1.1-3.2c0.3-1,0.5-1.7,0.7-2.2c0.1-0.3,0.2-0.6,0.3-0.8c0.1-0.3,0.2-0.5,0.3-0.8
				c-0.3-0.5-0.8-0.8-1.4-0.8c-1,0-2,0.6-2.9,1.7c-0.9,1.1-1.7,2.5-2.4,4.1c-0.7,1.6-1.2,3.3-1.7,5.1c-0.4,1.8-0.7,3.3-0.8,4.6
				c0,0.2,0,0.4,0,0.7c0,0.3,0,0.6,0,0.9c0,0.3,0.1,0.6,0.2,0.8C1088.8,433.6,1088.9,433.8,1089.2,433.8z"/>
			<path class="st11" d="M1103.5,434c0.1-1.6,0.3-3.2,0.7-5c0.3-1.8,0.7-3.6,1.1-5.4c0.4-1.8,0.9-3.5,1.5-5.2
				c0.5-1.7,1.1-3.3,1.8-4.7c0.2-0.5,0.5-0.8,0.8-0.8c0.3,0,0.6,0.1,1,0.2c0.4,0.1,0.8,0.3,1.1,0.5c0.4,0.2,0.7,0.4,1,0.6
				c0.3,0.2,0.6,0.4,0.8,0.5c0.3,0.2,0.4,0.5,0.2,0.9c-0.2,0.3-0.4,0.7-0.5,1c-0.6,1.4-1.1,3-1.6,4.6c-0.5,1.6-1,3.3-1.4,4.9
				c0.5-1.2,1.1-2.4,1.8-3.6s1.4-2.4,2.1-3.6s1.5-2.2,2.2-3.2c0.7-1,1.5-1.7,2.2-2.3c0.3-0.3,0.7-0.4,1.1-0.4c0.2,0,0.5,0.1,1,0.2
				c0.4,0.1,0.9,0.3,1.4,0.5c0.5,0.2,0.9,0.5,1.2,0.7c0.3,0.3,0.5,0.5,0.5,0.8c0,0.2-0.1,0.4-0.2,0.7c-0.1,0.2-0.2,0.5-0.3,0.7
				c-0.1,0.2-0.2,0.5-0.3,0.8c-0.5,1.3-0.9,2.6-1.4,4.1c-0.4,1.4-0.8,2.8-1.2,4.2c-0.4,1.4-0.7,2.8-1,4.1s-0.5,2.5-0.7,3.5
				c-0.1,0.4,0,0.7,0.1,0.8c0.2,0.1,0.4,0,0.7-0.4c0.9-0.9,1.8-2,2.6-3.3c0.8-1.3,1.5-2.6,2.2-3.9c0.7-1.4,1.3-2.7,1.8-4
				c0.5-1.3,1-2.5,1.4-3.5c0.1-0.2,0.3-0.4,0.5-0.5c0.2-0.1,0.4-0.1,0.6,0c0.2,0.1,0.4,0.2,0.5,0.4c0.1,0.2,0.1,0.4,0,0.7
				c-0.3,0.7-0.6,1.6-1.1,2.7c-0.4,1.1-1,2.3-1.6,3.6c-0.6,1.3-1.3,2.6-2,3.9c-0.7,1.3-1.5,2.5-2.3,3.6c-0.8,1.1-1.6,1.9-2.5,2.6
				c-0.9,0.7-1.7,1-2.6,1c-1,0-1.9-0.3-2.6-1c-0.7-0.7-1-1.4-0.9-2.2c0.2-1.3,0.4-2.7,0.6-4.2c0.3-1.5,0.6-3,0.9-4.5
				c0.4-1.5,0.8-3,1.2-4.5c0.4-1.5,0.9-2.8,1.3-4.1c-0.7,0.7-1.4,1.6-2.1,2.7c-0.7,1.1-1.4,2.2-2.1,3.5c-0.7,1.2-1.3,2.5-1.9,3.9
				c-0.6,1.3-1.1,2.6-1.6,3.8s-0.9,2.4-1.2,3.4c-0.3,1-0.5,1.9-0.5,2.6c0,0.3-0.1,0.5-0.2,0.6c-0.1,0.1-0.3,0.1-0.5,0.1
				c-0.4,0-0.8-0.1-1.2-0.3s-0.9-0.4-1.2-0.7c-0.4-0.3-0.7-0.6-1-0.9C1103.6,434.7,1103.5,434.3,1103.5,434z"/>
		</g>
		<g class="st13">
			<path class="st11" d="M1125.1,403.8c0.1-0.8,0.5-1.5,1.1-2.1c0.6-0.6,1.4-1,2.1-1.1s1.4,0,1.8,0.5c0.6,0.6,0.7,1.4,0.2,2.5
				c-0.6,1.6-1.7,3-3.2,4.2c-1.5,1.2-2.9,1.7-4,1.7c-0.2,0-0.3-0.1-0.4-0.4c-0.1-0.3,0-0.4,0.2-0.5c1.4-0.5,2.5-1.4,3.2-2.5
				c-0.2-0.1-0.4-0.2-0.6-0.4C1125.1,405.2,1125,404.6,1125.1,403.8z"/>
		</g>
		<g class="st13">
			<path class="st11" d="M1155,436.3c-2.5-0.2-5.1-0.4-7.9-0.3c-2.8,0-5.4,0.5-7.8,1.3c-0.4,0.2-0.8,0.2-1.2,0.1
				c-0.3-0.1-0.5-0.5-0.5-0.9c0-0.8,0.2-1.6,0.5-2.3c0.3-0.7,0.8-1.4,1.4-1.9c2-1.7,4-3.6,6-5.7c2-2.1,3.9-4.3,5.6-6.7
				s3.1-4.7,4.1-7.2c1.1-2.4,1.6-4.8,1.6-7.1c0-1.2-0.3-2.1-1-2.8c-0.6-0.7-1.4-1-2.3-1c-0.8,0-1.6,0.3-2.3,0.8
				c-0.7,0.5-1.4,1.2-1.9,2c-0.5,0.8-1,1.6-1.3,2.5c-0.3,0.9-0.5,1.7-0.5,2.4c0,0.2-0.1,0.4-0.4,0.4c-0.2,0-0.6-0.1-1-0.2
				c-0.4-0.1-0.8-0.3-1.2-0.5c-0.4-0.2-0.7-0.5-1-0.8s-0.4-0.6-0.4-1c0-1.2,0.3-2.3,1-3.4c0.7-1.1,1.6-2.1,2.6-3
				c1.1-0.9,2.3-1.6,3.6-2.1c1.3-0.5,2.6-0.8,3.8-0.8s2.3,0.2,3.3,0.5c1,0.4,1.9,0.9,2.6,1.6c0.7,0.7,1.3,1.5,1.7,2.5
				c0.4,1,0.6,2,0.6,3.2c0,2.4-0.5,4.8-1.5,7.2c-1,2.4-2.3,4.7-4,7c-1.6,2.2-3.5,4.4-5.6,6.4c-2.1,2-4.3,3.9-6.5,5.5
				c2-0.3,4.1-0.5,6.2-0.5c2.1,0,4.1,0.1,6,0.4c0.4,0.1,0.7,0.3,0.9,0.5c0.2,0.3,0.4,0.6,0.6,1.1c0.1,0.4,0.2,0.9,0.3,1.3
				c0,0.4,0.1,0.8,0.1,1.2c0,0.1,0,0.3-0.1,0.6s-0.2,0.5-0.4,0.5h-0.2c-0.6-0.2-1.2-0.3-1.9-0.4
				C1156.3,436.4,1155.7,436.4,1155,436.3z"/>
			<path class="st11" d="M1171.9,400.1c0.8-0.7,1.7-1.2,2.6-1.7c1-0.4,2-0.7,3-0.7c2.4,0,4.6,0.7,6.5,2c1.9,1.4,3.1,3.1,3.8,5.3
				c0.5,1.8,0.8,3.8,0.8,6.1c0,2.3-0.2,4.6-0.6,7c-0.4,2.4-1.1,4.7-2,6.9c-0.9,2.3-2,4.3-3.3,6c-1.3,1.8-2.8,3.2-4.5,4.3
				c-1.7,1.1-3.6,1.6-5.6,1.6c-2.6,0-4.7-0.7-6.2-2.2c-1.5-1.4-2.6-3.3-3.2-5.6c-0.6-2.3-0.8-4.8-0.6-7.6c0.2-2.8,0.7-5.6,1.5-8.3
				c0.8-2.7,1.9-5.3,3.2-7.7C1168.7,403.4,1170.2,401.5,1171.9,400.1z M1172.5,434c1,0,2-0.5,2.9-1.5s1.8-2.3,2.6-3.9
				c0.8-1.6,1.5-3.4,2.2-5.4c0.7-2,1.2-4.1,1.6-6.2c0.4-2.1,0.7-4.1,0.9-6.1c0.2-2,0.2-3.8,0-5.3c-0.1-1.4-0.4-2.4-0.9-3.2
				s-1.1-1.2-1.8-1.4c-0.7-0.2-1.5,0-2.3,0.4c-0.8,0.4-1.6,1.1-2.4,2c-1.1,1.3-2.1,3-3,5c-0.9,2-1.7,4.1-2.3,6.4
				c-0.6,2.3-1,4.5-1.3,6.8c-0.3,2.3-0.3,4.3-0.2,6.1c0.2,1.8,0.6,3.3,1.2,4.5C1170.3,433.4,1171.3,434,1172.5,434z"/>
		</g>
	</g>
</g>
</svg>
