<?xml version="1.0" encoding="utf-8"?>
<!-- Generator: Adobe Illustrator 21.1.0, SVG Export Plug-In . SVG Version: 6.00 Build 0)  -->
<svg version="1.1" id="Layer_1" xmlns="http://www.w3.org/2000/svg" xmlns:xlink="http://www.w3.org/1999/xlink" x="0px" y="0px"
	 viewBox="0 0 1024 1024" style="enable-background:new 0 0 1024 1024;" xml:space="preserve">
<style type="text/css">
	.st0{fill:#03102D;}
</style>
<g transform="translate(0.000000,1024.000000) scale(0.100000,-0.100000)">
	<path class="st0" d="M5075,9658c-22-5-74-9-116-8c-69,1-83-3-138-32c-96-52-148-101-180-171c-15-34-31-75-35-91c-4-15-16-40-26-55
		c-22-29-60-134-60-164c0-11-10-34-23-51c-38-50-50-91-42-138c4-24,7-66,7-95c0-45-5-58-41-105c-23-29-50-62-61-73
		c-33-34-53-93-41-125c11-34-7-112-45-195c-31-69-31-112,1-155c14-19,25-43,25-54c0-20-46-76-62-76c-20,0-73-49-108-100
		c-58-86-148-264-196-387c-52-134-78-192-240-520c-68-138-124-258-124-266c0-7-38-90-84-183s-96-200-111-239c-16-38-45-101-66-138
		c-22-38-39-71-39-73s-11-27-24-56s-36-84-51-123c-40-103-122-240-167-281c-82-74-144-87-278-58c-41,9-119,16-173,15
		c-83,0-106-4-156-27c-139-62-157-161-31-170c33-2,64,2,82,10c31,16,78,7,131-25l29-17l-36-12c-60-19-84-95-38-119
		c40-21,135-28,229-16l62,7l22-44c56-110,144-222,304-384c115-117,124-124,161-124c52,0,67,12,69,52c5,76,153,635,221,833
		c30,88,56,167,58,176c12,50,111,323,136,374c84,175,165,339,202,411c24,44,58,112,77,150s63,111,99,163l66,95l12-65
		c6-35,24-104,39-154l28-90l-12-150c-6-82-11-202-11-265c0-115-6-153-69-480c-16-85-33-180-36-210c-4-30-22-149-40-265
		c-19-115-41-257-49-315c-9-58-24-161-35-230c-10-69-22-174-26-235c-3-60-8-133-11-161c-8-71,13-95,87-100c30-2,99-11,154-20
		c55-8,115-17,133-20c17-3,32-10,32-17s21-61,46-122c25-60,61-147,80-192c32-78,60-168,91-298c7-33,25-96,39-139
		c25-81,74-341,74-395c0-25-6-31-34-41c-46-15-77-51-92-109c-10-40-11-103-2-308c5-142,9-262,8-268c-1-5-5-102-10-215
		c-9-227-23-375-45-481c-8-39-15-83-15-98s-5-32-10-37c-6-6-22-78-36-160c-24-149-35-193-80-334c-35-109-33-198,6-284
		c16-37,34-84,40-105s26-65,45-97s35-69,35-83c0-18,3-22,9-13c6,10,14,4,29-22c35-60,112-74,173-33c32,21,45,41,82,127l16,35v-33
		c2-71,62-150,141-184c39-17,51-18,85-8c68,20,85,29,130,67c47,39,80,106,105,212c17,73,7,232-24,389c-29,144-28,217,9,442
		c13,80,31,199,40,265s34,181,55,255s48,171,60,215c50,188,83,306,111,393c23,73,29,111,29,180c0,97-16,136-67,168
		c-15,10-29,19-31,20s4,39,12,85c9,46,25,173,36,282c11,110,24,215,29,235c6,21,24,123,41,227c28,171,39,224,71,346l9,37l98,5
		c158,10,202,20,230,52c23,28,24,34,19,120c-3,49-16,153-27,230c-12,77-25,178-30,225c-23,219-42,335-90,545c-11,50-29,131-40,182
		s-26,109-35,129c-8,20-15,50-15,66s-10,50-22,76s-31,81-44,122c-12,41-47,136-77,210c-148,361-149,366-138,418c5,26,14,58,19,72
		c9,24,11,22,39-35c90-178,159-367,183-500c7-38,32-128,55-200c66-204,111-358,151-514c20-79,51-183,69-230c21-55,35-113,39-161
		c7-89,62-377,83-439c17-47,55-71,111-71c42,0,162,63,222,117c54,48,133,144,185,223c16,25,37,54,46,65c10,11,29,43,44,72
		c14,29,30,55,35,58s28-8,51-25c55-39,80-38,130,7c47,43,79,100,79,143c0,16,2,30,5,30c2,0,21-11,41-25c50-34,112-34,143-1
		c29,31,24,55-21,114c-27,35-44,46-93,61c-106,32-145,34-246,10c-95-22-158-22-222,2c-38,14-119,106-155,175c-42,81-44,86-83,164
		c-20,41-46,106-58,145c-13,38-28,80-36,95c-38,74-151,407-158,470c-4,25-21,95-40,155c-47,152-85,293-167,630
		c-39,160-80,326-92,370c-11,44-24,96-28,116c-8,42-13,51-59,106c-19,23-52,49-73,58c-51,20-65,52-44,94c9,17,20,31,25,31
		c11,0,20,23,31,79c10,52-7,107-45,153c-26,30-25,38,5,73c33,38,42,86,29,166c-12,83-67,199-106,224c-24,16-32,58-13,70
		c14,9,13,164-2,206c-6,19-19,46-29,60c-11,15-26,54-35,88c-14,55-14,63,0,83c21,30,20,66-4,111c-11,20-20,42-20,48
		c0,7-24,55-52,108c-71,129-199,264-272,286C5191,9672,5136,9673,5075,9658z"/>
</g>
</svg>
