<?xml version="1.0" encoding="utf-8"?>
<!-- Generator: Adobe Illustrator 21.1.0, SVG Export Plug-In . SVG Version: 6.00 Build 0)  -->
<svg version="1.1" id="Layer_2" xmlns="http://www.w3.org/2000/svg" xmlns:xlink="http://www.w3.org/1999/xlink" x="0px" y="0px"
	 viewBox="0 0 833 540" style="enable-background:new 0 0 833 540;" xml:space="preserve">
<style type="text/css">
	.st0{display:none;fill:#FCC35F;}
	.st1{display:none;fill:#FAC05E;}
	.st2{display:none;fill:#2B3652;}
	.st3{display:none;fill:#FDC35F;}
	.st4{display:none;fill:#882A2A;}
	.st5{fill:#FFFFFF;stroke:#FFFFFF;stroke-miterlimit:10;}
	.st6{font-family:'IntroRustG-Base2Line';}
	.st7{font-size:112.1921px;}
	.st8{letter-spacing:5;}
</style>
<title>kashiH4</title>
<path class="st0" d="M580.5,202.8h16c1.8,0,3.7-0.2,3.7,2.6s-2,2.6-3.7,2.6c-7.5,0-15,0.1-22.5,0c-1.3,0-3.2,0.8-3.8-1.3
	c-0.5-1.6,0.5-2.8,1.6-3.9c5.2-5.4,11-10.3,15.5-16.2c1.6-1.9,2.9-4,4-6.3c1.8-4.3,2.5-8.9-1.2-12.5s-8.2-2.5-12.6-1
	c-1.5,0.5-3.3,4.1-5,0.1c-1.5-3.4,1.6-3.9,3.5-4.8c7-3.4,15.3-2.4,19.6,2.1c4.4,4.7,4.8,12.3,0.7,19.6c-2.9,5.3-7.2,9.5-11.4,13.9
	C583.4,199,581.3,200,580.5,202.8z"/>
<path class="st1" d="M559.3,158c1.9,0,3.5-0.1,3.3,2.5c-0.4,3.9-0.6,7.9-0.8,11.9c-0.1,1.6-0.4,2.9-2.5,2.8c-1.9-0.1-2-1.4-2-2.8
	c-0.3-4-0.4-7.9-0.8-11.9C556.1,157.9,557.7,157.9,559.3,158z"/>
<path class="st2" d="M599.6,190.9c2,5.1,2,5.1-3.1,4.9C596.9,193.8,598.5,192.7,599.6,190.9z"/>
<path class="st3" d="M638.2,185.9c0-6.2-0.2-11.2-2.1-15.9c-2.3-5.7-5.9-9.6-12.4-9.9c-6.2-0.3-11.4,2.9-14,9.2
	c-4.1,9.9-4.1,21.1,0.2,31c2.3,5.5,6.5,8.8,12.7,8.6s10.5-3.5,13-9.2C637.4,195.4,638.3,190.6,638.2,185.9z M622.6,196.6
	c-3.6-7.7-3.6-16.6,0-24.3C625.8,180.2,625.8,188.9,622.6,196.6z"/>
<path class="st4" d="M630,171.1c-1.2-3.2-3-6-7-6.1c-4.2-0.1-6.5,2.6-7.7,6c-3.3,8.8-3.3,18.5,0,27.4c1.2,3.2,3.4,5.8,7.4,5.7
	s6-2.7,7.2-6c1.6-4.6,2.3-9.4,2.1-14.3C632.1,179.4,631.5,175.1,630,171.1z M622.6,196.6c-3.6-7.7-3.6-16.6,0-24.3
	C625.8,180.2,625.8,188.9,622.6,196.6L622.6,196.6z"/>
<text transform="matrix(1 0 0 1 18.6244 300.1863)" class="st5 st6 st7 st8">KASHIYATRA</text>
</svg>
