<?xml version="1.0" encoding="utf-8"?>
<!-- Generator: Adobe Illustrator 21.1.0, SVG Export Plug-In . SVG Version: 6.00 Build 0)  -->
<svg version="1.1" id="Layer_2" xmlns="http://www.w3.org/2000/svg" xmlns:xlink="http://www.w3.org/1999/xlink" x="0px" y="0px"
	 viewBox="0 0 833 540" style="enable-background:new 0 0 833 540;" xml:space="preserve">
<style type="text/css">
	.st0{fill:#11234C;}
	.st1{fill:#F2CCE9;}
	.st2{display:none;fill:#FCC35F;}
	.st3{display:none;fill:#FAC05E;}
	.st4{fill:#03102D;}
	.st5{display:none;fill:#2B3652;}
	.st6{display:none;fill:#FDC35F;}
	.st7{display:none;fill:#882A2A;}
</style>
<title>kashiH4</title>
<g id="XMLID_1_">
	<g>
		<path class="st0" d="M559.1,173.1c4.3,1.6,6,6.8,3.9,10.9c-4.9,9.7-8.7,17.3-15.9,25.8c-4,4.8-9,6.5-15.2,4.4
			c-2.3-0.8-4.5-1.3-7.1,0c-3.5,1.7-6.8-0.5-10-1.7c-1.2-0.4-2.2-1.7-4-0.8c-11.7,5.6-15.4,5.2-25.1-2.5c-7.6,7.6-11.6,8.3-21.3,3.6
			c-1.2-0.8-2.9-0.7-4,0.3c-1,0.8-2.4,1.9-3.5,1.7c-9.6-1.6-20.1,2.5-28.8-4.3c-3-2.3-3.8-1.4-5,1.7c-2.8,7.3-4.7,15-9.6,21.3
			c-3.5,4.5-7.9,7.5-13.7,6.3c-6.5-1.3-11.1-4.9-12.9-11.7c-0.8-3.2-0.2-6.7,1.8-9.4c1.6-2.5,3.6-4.7,5.4-7.1
			c-0.5-0.5-1.3-0.5-1.8,0c-4.8,4-10.3,4.3-16,2.4c-1.9-0.6-3.9-0.5-5.6,0.4c-7.2,3.3-13.6,1.8-19-4.3c-2.4,2.4-4.3,5.5-8.3,5.2
			c-3.4-0.4-6.5-1.9-8.9-4.2c-1.4-1.2-2.1-1-3.5,0.1c-6.4,5.3-13.6,5-21.6,4.2c-6.9-0.7-14.3-2.6-22-0.4c2.3,2.5,4.8,3.2,6.2,5.4
			c3.1,4.9,1,10.1-4.7,10.8c-14.5,1.7-28.6-3.4-32.1-20.4c-0.7-3.4-1.8-6.7-2.8-10.2c-3.5,1.6-6.4,4.5-8,8c-1.5,3.1-3.2,6.2-5.1,9.1
			c-2.2,3.5-6.7,4.9-10.5,3.1c-0.5-0.2-1-0.5-1.5-0.8c-6.8-4.1-8.9-12.9-4.8-19.7c7.5-12,14.2-24.5,20.7-37c0.6-1.1,1.1-2.4,1.9-4.3
			c-6,1.2-10.7,3.9-15.8,5.7c-6.6,2.3-13.1,3.9-20,1.5c-5.1-1.8-9.2-5.8-11.2-10.8c-1.2-2.3-0.8-5.1,1-7c1.6-2.1,4.4-2.9,6.8-1.9
			c5,2,9.8,0.9,14.6-0.6c8.8-2.8,17.5-5.6,26.7-6.1c12-0.7,20.6,4.8,23.8,15.5c4.2-4.2,7.8-9.1,10.6-14.4c2.4-4.6,5.4-5.8,10.3-4.1
			c10.9,3.8,13.8,12.4,7.4,22c-2.3,3.6-5.4,6.6-8.5,9.8c8,2.5,16.4,3.8,17.9,14.1c2.6-1.8,3.2-4.6,4.5-7c1.2-2.2,2.1-4.6,3.6-6.6
			c2.8-3.8,6-7.5,11.5-5.9c5.2,1.5,7.8,5.3,8.6,11.2c3.1-5.5,5.9-10.7,8.8-15.7c4.1-7.2,8.4-8.6,14.5-5.2c7,3.9,8.1,8.1,4.1,15.5
			c-0.2,0.5-0.4,1-0.5,1.5c1.9,0.7,3.8,1.1,5.6,1.9c4.4,1.9,7.4,0.7,8.8-4c1.1-3.9,2.3-7.6,4.6-11c1.9-2.8,4.6-3.7,7.8-3.4
			c7.8,0.6,12.9,5.7,13.5,13.5c0,1,0.1,1.6,1.1,1.7c3.8,0.5,7,3.4,11.5,0.9c4.3-2.4,9,0.1,13.3,1.9c1.2,0.5,2,1.6,3.5,0.5
			c8.7-6.3,16.3-2.6,23.8,2.6c0.8,0.4,1.4,0.9,2,1.5c-0.3-0.8-0.6-1.6-0.8-2.5c-0.4-4.5,1.7-7.6,5.8-8.8c3.1-0.8,5.6-3,6.9-5.8
			c5-9.1,9.6-9.7,18.1-4c5,3.3,9.7,7.1,14,11.3c1.4,1.3,2.6,3,3.2,4.9c1.6,4.8,4.6,5.6,8.2,2.3c9.9-9.2,25.2-4.7,29,8.7
			c2.8-3.2,4.5-6.1,8-8.2C556.2,172.8,556.8,172.4,559.1,173.1z"/>
	</g>
</g>
<path class="st1" d="M420.7,197.9c5.2-3.9,9.6-6.3,11.9-11.2c1.2-2.5,2.8-4.9,4.8-7c5.4-6.1,10.7-3.7,16.4,0c1.8,1.1,1.5,2-0.2,4.9
	c-3.4-5.4-4.8-5.4-9.4-0.6c-5.3,5.6-7.8,13.3-5.8,18.5c3.1-3.5,3.8-8.2,6.5-11.7c2.5-3.3,5-6.2,9.9-4.5c2.6,0.9,3.4,1.9,1.9,4.6
	c-2.2,4-3.8,8.4-3.7,13.2c2.6,0.2,3.4-1.7,4.7-2.9c6.9-6.9,10.5-15.6,13.9-24.5c1.9-5-4.4-1.3-3.6-5c6.1-0.6,9.4-5.3,12-10.9
	c1.3-2.7,3.6-2.5,5.3-0.8c2.3,2.6,5.4,4.5,8.8,5.4c0.8,0.2,1.2,1.1,1.2,2.2c-0.6,0.2-1.2,0.3-1.8,0.4c-6.1,0.4-10.4,2.7-12.9,8.9
	c-3.1,7.9-6.9,15.5-9.1,23.7c-0.4,1.6-1.6,3.9,0.4,4.9c1.6,0.8,2.8-1.4,3.9-2.6c4.6-5,8.7-10.5,12.3-16.3c0.9-1.2,1.2-2.7,0.7-4.1
	c-1.4-4.8,1.7-10.2,6.4-12c2.7-1,4.6,0.2,6.1,2.1c1.7,2.1-1,2.7-1.8,3.9s-2.1,2.1-2.2,4c2.9,0.4,5.5-1.6,8.3-0.4
	c2.6,1.1,4.2,2,1.2,4.6c-3.9,3.5-7,7.6-7.6,13.1c-0.2,1.4-0.7,3.1,0.8,4.1s3.3,0.2,4.6-0.7c4.2-3,7.6-7.1,9.8-11.7
	c1.2-2.9,2.8-5.7,4.7-8.2c5.2-6.3,10.1-7,17-2.4c2.4,1.6,2.7,3.4,1.1,5.8c-4.1-5.4-5.8-5.5-10.2-0.2c-4.6,5.1-6.8,11.9-6.2,18.7
	c4-4.1,4.6-8.9,7.2-12.4s5.2-6.5,10.3-4.6c2.4,0.9,3.1,1.8,1.8,4.3c-1.4,2.8-2.5,5.8-3.3,8.8c-0.5,1.5-1.5,3.6,0.3,4.4
	c1.5,0.7,2.5-1.2,3.5-2.3c4.9-5.6,9.3-11.7,13.2-18.2c0.9-1.6,1.8-3.2,2.8-4.7c0.4-0.7,0.9-1.6,1.9-1c1.2,0.6,0.9,1.6,0.3,2.5
	c-5.6,8.1-9.7,17.1-16.3,24.5c-2.7,3-5.5,3.9-9.3,2.9s-5.2-3.5-4.8-7.4c-3.3,2-2,8.7-7.7,7.1c-3.5-1-6.8-2.7-8.6-6.4
	c-1.6,1.6-3,2.9-4.4,4.4c-3.4,3.7-7.3,4.2-11.8,2.3c-5.7-2.4-7.5-6.1-5.3-12c1.3-2.9,2.7-5.7,4.3-8.4c0.4-0.7,0.9-1.6-0.1-2.1
	c-0.7-0.5-1.7-0.3-2.3,0.4c-1,1.4-1.8,2.8-2.6,4.3c-2.9,5.1-5.7,10.2-9.4,14.7c-2.7,3.3-5.8,5.5-10.4,3.4c-4.2-1.9-6.5-4.6-4.3-10.4
	c-5.4,4.7-7.5,12.7-16,10c-3.6-1.1-4.9-3.6-4.4-7.3c-3.4,1.9-2,8.5-7.7,7.1c-6-1.4-8-4-8.5-11.2c-5.2,4.6-11.2,7.5-13.2,14.9
	c-1.7,6.2-4,12.4-7.7,17.8c-3.5,5.1-8.5,5.4-12.6,1.1c-2.5-2.6-3-5.4-0.7-8.5c2.9-3.8,6.3-7.3,10-10.4c3-2.6,4.9-6.2,5.3-10.2
	c-1-0.3-1.2,0.5-1.5,1c-4.5,6.8-7,7.4-13.1,1.7c-2.5-2.3-3.9-2.2-5.6,0.4c-4.3,6.5-14.3,4.7-17.5-1.1c-1.5,1.7-2.8,3.9-4.7,5.1
	c-2.4,1.7-5.6,1.8-8.1,0.2c-2.9-1.8-4.5-5.2-4-8.6c0.4-3.9,2.4-7.2,4.2-10.6c1.3-2.1,2.1-4.5,2.3-7c-5.4,3.4-8.4,7.8-11.2,12.3
	c-2,3.2-3.3,6.9-5.2,10.2c-0.8,1.4-0.7,4.2-3.4,3.4c-2.3-0.8-4.5-2-4.4-5.3s0.6-6.6,1.5-9.9c3.1-11.4,8.5-21.6,14.5-31.7
	c1.5-2.6,3.1-2.5,5.3-1.1s2.9,2.7,1.2,5.2c-5.5,7.6-9.7,15.9-12.7,24.8c-0.2,0.8-0.8,1.5-0.1,2.6c3.1-4.9,7.1-8.9,11.1-12.8
	c3.2-3.2,10-2.5,12.8,1.1c1.4,1.8,0.3,3.1-0.5,4.5c-2.8,4.7-5.1,9.7-7.1,14.8c-0.5,1.6-1.4,3.6,0.5,4.4c1.6,0.8,2.4-1.3,3.4-2.4
	c5.7-6.4,8.8-14.4,12.6-22c2.2-4.3,5.1-5,9.3-2.7c2.6,1.4,0.7,2.8,0,4c-3.4,5.3-6,11.2-7.6,17.3c-0.4,1.6-2,3.9-0.1,4.9
	c1.6,0.9,3.2-1.2,4.5-2.4c6.5-6,10.9-13.4,14-21.6c1.3-3.6,3.8-4.2,7.1-3.5c2.6,0.6,3.2,1.7,1.9,4.2c-3,5.8-6,11.5-7.3,18
	c-0.2,1.1-1.5,2.6,0.2,3.6s2.8-0.5,3.6-1.7c4.4-6.8,9.5-13.3,12.7-20.9c1.4-3.4,7.7-4.2,9.9-1.4c1,1.3-0.2,2.2-0.7,3.1
	C424.9,186.5,422.6,192.2,420.7,197.9z"/>
<path class="st1" d="M206.4,153.3c6.2,1.6,11.7,0.9,17.2-0.9c8.1-2.6,16.2-5.3,24.7-5.8c5.2-0.3,10.3,0.2,14.3,4.3
	c3.1,3.1,3.9,6.3,1.7,10.3c-4.1,7.4-8,14.8-12.7,23.4c5.5-3.2,9-6.9,12.6-10.4c8.9-8.5,17.4-17.5,24-28c1.2-1.9,1.9-4.1,4.8-2.2
	c2.5,1.6,5.5,2.9,4.3,6.8s-3.8,6.6-6.5,9.4c-8,8.3-16.9,15.6-25.9,22.7c-2.2,1.8-3,2.8-0.6,5.2c3,3,4.4,7.1,5.6,11.1
	c2.9,10,7.1,19,17.4,24.1c-9.3,3.3-19.5-1.6-22.8-10.9c-0.1-0.2-0.1-0.3-0.2-0.5c-1.9-5.8-3.2-11.8-5.1-17.7c-1.7-5.4-1.7-5.1-6.4-2
	c-7,4.6-12.4,10.3-15.9,18c-0.7,1.6-1,5.3-4.1,3.5c-2.7-1.6-5.4-4.2-3.9-8.2c0.4-0.9,0.9-1.8,1.5-2.6c8.9-14.5,17-29.4,24.4-44.7
	c1.1-2.2,2.7-4.8,0.8-7c-1.7-1.9-4.3-0.9-6.6-0.4c-6.7,1.4-12.9,4.3-19.3,6.8c-3.8,1.7-7.9,2.6-12.1,2.7
	C212.5,160.2,209.1,157.9,206.4,153.3z"/>
<path class="st1" d="M292.3,200.5c-0.3,0.6-0.6,1.1-1,1.6c-1.7,2.2-1.3,6.9-6.2,5.4c-6.3-1.9-8.8-4.8-7.9-10.2
	c1.2-6.8,3.6-13.2,8.7-18.1c4.6-4.2,11.8-3.9,16,0.7l0,0c1.2,1.4,1.7,3.4,0.1,4.4c-1.9,1.1-1.6-1.3-2.2-2.2c-0.5-1.3-2-2-3.4-1.4
	c-0.1,0.1-0.3,0.1-0.4,0.2c-5,2.2-13.1,14.8-10,21.8c3.3-3.4,3.8-8.1,6.5-11.5c2.5-3.2,4.8-6.5,9.8-4.8c2.7,0.9,3.8,1.8,2.2,4.9
	c-2.1,4-4.1,8.2-3.4,13.1c2.3,0.1,3.2-1.5,4.2-2.7c6.5-7.8,12.7-15.8,16.6-25.3c0.9-2,2.1-3.8,3.7-5.3c1.2-1.2,2.4-1.8,3.8-0.4
	s2.8,2.5,0.9,4.6c-3.1,3.3-2.7,7.2-1.9,11.3c0.6,3.4,1.5,6.8,1.6,10.3c0.1,5.5-2.4,9.4-7.3,11.4s-9.9,2.3-13.9-1.7
	c-1.6-1.6-2.1-1.2-3.3,0c-2.8,3-6.1,2-9.2,0.9C293.3,206.1,292.5,203.7,292.3,200.5z"/>
<path class="st2" d="M580.5,202.8h16c1.8,0,3.7-0.2,3.7,2.6s-2,2.6-3.7,2.6c-7.5,0-15,0.1-22.5,0c-1.3,0-3.2,0.8-3.8-1.3
	c-0.5-1.6,0.5-2.8,1.6-3.9c5.2-5.4,11-10.3,15.5-16.2c1.6-1.9,2.9-4,4-6.3c1.8-4.3,2.5-8.9-1.2-12.5s-8.2-2.5-12.6-1
	c-1.5,0.5-3.3,4.1-5,0.1c-1.5-3.4,1.6-3.9,3.5-4.8c7-3.4,15.3-2.4,19.6,2.1c4.4,4.7,4.8,12.3,0.7,19.6c-2.9,5.3-7.2,9.5-11.4,13.9
	C583.4,199,581.3,200,580.5,202.8z"/>
<path class="st1" d="M398.8,164.9c-0.1,1.4-8.8,9.8-9.9,9.6c-1.7-0.4-3.3-1.2-2.8-3.3c0.8-3.2,1.9-6.3,3.5-9.2
	c1.2-2.1,2.9-1.2,4.3-0.6C395.8,162.2,398.1,162.8,398.8,164.9z"/>
<path class="st3" d="M559.3,158c1.9,0,3.5-0.1,3.3,2.5c-0.4,3.9-0.6,7.9-0.8,11.9c-0.1,1.6-0.4,2.9-2.5,2.8c-1.9-0.1-2-1.4-2-2.8
	c-0.3-4-0.4-7.9-0.8-11.9C556.1,157.9,557.7,157.9,559.3,158z"/>
<g id="XMLID_2_">
	<g>
		<path class="st4" d="M406.3,215.1c-1.7,3.7-3.4,7.4-5.2,11c-0.9,1.7-2.5,3-4.4,1.8c-2.3-1.4-0.9-3,0.1-4.6
			C399,219.8,402.3,217.3,406.3,215.1z"/>
		<path class="st4" d="M319.7,186.1c1.4,5.9,2.3,11.1,0,16.1c-0.7,1.7-2,3.2-4,3.3c-1,0-2-0.7-2.3-1.7c-0.9-2,0-3.7,1.4-4.9
			s2.1-1.8,0.1-3.4c-1.2-0.9,0.8-2.5,1.5-3.7C317.3,190.1,318.3,188.5,319.7,186.1z"/>
	</g>
</g>
<path class="st5" d="M599.6,190.9c2,5.1,2,5.1-3.1,4.9C596.9,193.8,598.5,192.7,599.6,190.9z"/>
<path class="st6" d="M638.2,185.9c0-6.2-0.2-11.2-2.1-15.9c-2.3-5.7-5.9-9.6-12.4-9.9c-6.2-0.3-11.4,2.9-14,9.2
	c-4.1,9.9-4.1,21.1,0.2,31c2.3,5.5,6.5,8.8,12.7,8.6s10.5-3.5,13-9.2C637.4,195.4,638.3,190.6,638.2,185.9z M622.6,196.6
	c-3.6-7.7-3.6-16.6,0-24.3C625.8,180.2,625.8,188.9,622.6,196.6z"/>
<path class="st7" d="M630,171.1c-1.2-3.2-3-6-7-6.1c-4.2-0.1-6.5,2.6-7.7,6c-3.3,8.8-3.3,18.5,0,27.4c1.2,3.2,3.4,5.8,7.4,5.7
	s6-2.7,7.2-6c1.6-4.6,2.3-9.4,2.1-14.3C632.1,179.4,631.5,175.1,630,171.1z M622.6,196.6c-3.6-7.7-3.6-16.6,0-24.3
	C625.8,180.2,625.8,188.9,622.6,196.6L622.6,196.6z"/>
</svg>
