<?xml version="1.0" encoding="utf-8"?>
<!-- Generator: Adobe Illustrator 21.1.0, SVG Export Plug-In . SVG Version: 6.00 Build 0)  -->
<svg version="1.1" id="Layer_2" xmlns="http://www.w3.org/2000/svg" xmlns:xlink="http://www.w3.org/1999/xlink" x="0px" y="0px"
	 viewBox="0 0 833 540" style="enable-background:new 0 0 833 540;" xml:space="preserve">
<style type="text/css">
	.st0{fill:#872A2A;}
	.st1{fill:#882A2A;}
	.st2{fill:#2B3652;}
	.st3{fill:#FDC360;}
	.st4{fill:#FDC35F;}
	.st5{display:none;fill:#FCC35F;}
	.st6{fill:#FBC15F;}
	.st7{display:none;fill:#FAC05E;}
	.st8{display:none;fill:#2B3652;}
	.st9{fill:#8D312C;}
	.st10{fill:#8A2E2B;}
	.st11{display:none;fill:#FDC35F;}
	.st12{display:none;fill:#882A2A;}
</style>
<title>kashiH4</title>
<path class="st0" d="M553.3,174.5c-3.5,2.1-5.2,5-8,8.2c-3.8-13.4-19.1-17.9-29-8.7c-3.6,3.3-6.6,2.5-8.2-2.3
	c-0.6-1.9-1.8-3.6-3.2-4.9c-4.3-4.2-9-8-14-11.3c-8.5-5.7-13.1-5.1-18.1,4c-1.3,2.8-3.8,5-6.9,5.8c-4.1,1.2-6.2,4.3-5.8,8.8
	c0.2,0.9,0.5,1.7,0.8,2.5c-0.6-0.6-1.2-1.1-2-1.5c-7.5-5.2-15.1-8.9-23.8-2.6c-1.5,1.1-2.3,0-3.5-0.5c-4.3-1.8-9-4.3-13.3-1.9
	c-4.5,2.5-7.7-0.4-11.5-0.9c-1-0.1-1.1-0.7-1.1-1.7c-0.6-7.8-5.7-12.9-13.5-13.5c-3.2-0.3-5.9,0.6-7.8,3.4c-2.3,3.4-3.5,7.1-4.6,11
	c-1.4,4.7-4.4,5.9-8.8,4c-1.8-0.8-3.7-1.2-5.6-1.9c0.1-0.5,0.3-1,0.5-1.5c4-7.4,2.9-11.6-4.1-15.5c-6.1-3.4-10.4-2-14.5,5.2
	c-2.9,5-5.7,10.2-8.8,15.7c-0.8-5.9-3.4-9.7-8.6-11.2c-5.5-1.6-8.7,2.1-11.5,5.9c-1.5,2-2.4,4.4-3.6,6.6c-1.3,2.4-1.9,5.2-4.5,7
	c-1.5-10.3-9.9-11.6-17.9-14.1c3.1-3.2,6.2-6.2,8.5-9.8c6.4-9.6,3.5-18.2-7.4-22c-4.9-1.7-7.9-0.5-10.3,4.1
	c-2.8,5.3-6.4,10.2-10.6,14.4c-3.2-10.7-11.8-16.2-23.8-15.5c-9.2,0.5-17.9,3.3-26.7,6.1c-4.8,1.5-9.6,2.6-14.6,0.6
	c-2.4-1-5.2-0.2-6.8,1.9c-1.8,1.9-2.2,4.7-1,7c2,5,6.1,9,11.2,10.8c6.9,2.4,13.4,0.8,20-1.5c5.1-1.8,9.8-4.5,15.8-5.7
	c-0.8,1.9-1.3,3.2-1.9,4.3c-6.5,12.5-13.2,25-20.7,37c-4.1,6.8-2,15.6,4.8,19.7c0.5,0.3,1,0.6,1.5,0.8c3.8,1.8,8.3,0.4,10.5-3.1
	c1.9-2.9,3.6-6,5.1-9.1c1.6-3.5,4.5-6.4,8-8c1,3.5,2.1,6.8,2.8,10.2c3.5,17,17.6,22.1,32.1,20.4c5.7-0.7,7.8-5.9,4.7-10.8
	c-1.4-2.2-3.9-2.9-6.2-5.4c7.7-2.2,15.1-0.3,22,0.4c8,0.8,15.2,1.1,21.6-4.2c1.4-1.1,2.1-1.3,3.5-0.1c2.4,2.3,5.5,3.8,8.9,4.2
	c4,0.3,5.9-2.8,8.3-5.2c5.4,6.1,11.8,7.6,19,4.3c1.7-0.9,3.7-1,5.6-0.4c5.7,1.9,11.2,1.6,16-2.4c0.5-0.5,1.3-0.5,1.8,0
	c-1.8,2.4-3.8,4.6-5.4,7.1c-2,2.7-2.6,6.2-1.8,9.4c1.8,6.8,6.4,10.4,12.9,11.7c5.8,1.2,10.2-1.8,13.7-6.3c4.9-6.3,6.8-14,9.6-21.3
	c1.2-3.1,2-4,5-1.7c8.7,6.8,19.2,2.7,28.8,4.3c1.1,0.2,2.5-0.9,3.5-1.7c1.1-1,2.8-1.1,4-0.3c9.7,4.7,13.7,4,21.3-3.6
	c9.7,7.7,13.4,8.1,25.1,2.5c1.8-0.9,2.8,0.4,4,0.8c3.2,1.2,6.5,3.4,10,1.7c2.6-1.3,4.8-0.8,7.1,0c6.2,2.1,11.2,0.4,15.2-4.4
	c7.2-8.5,11-16.1,15.9-25.8c2.1-4.1,0.4-9.3-3.9-10.9C556.8,172.4,556.2,172.8,553.3,174.5z"/>
<path class="st1" d="M444.1,262.4c12.3,4.5,21.7,12.8,29.9,22.5c10.2,12.2,22.4,20.8,38.6,22.5c15.6,1.7,25.8-2.5,31.1-17.4
	c1.1-3.1,2.6-4.7,5.7-3.8c3.4,0.9,4.7,3.1,4.2,6.7c-2.5,18.1-17.3,27.4-32.5,29.2c-21.8,2.5-40.2-5.7-56.9-18.7
	c-6.7-5.2-13.1-10.8-19.5-16.3c-10.6-9-22.6-14.4-36.6-15c-2.3-0.1-4.9-0.5-4.9-3.1c0-4.2-1.5-3.9-5-3.4
	c-20.8,3.2-41.6,6.2-62.5,8.8c-9.7,1.2-19.5,1.5-29.2,1.8c-3.3,0.1-7.1,0.5-8.9-3.9c-0.9-2.2-3.3-1.2-4.9-1.3
	c-15.1-0.4-30.1-2.7-44.6-7c-18-5.4-33.8-14.6-45.8-29.5c-4.6-5.7-7.2-12.3-6.5-19.9c0.5-6.1,5.1-12.3,10.4-14.2
	c2.1-0.9,4.5-0.4,6,1.3c1.4,1.4,2.4,3.2,1.4,5.4c-3.5,8.2-1.4,15.6,3.2,22.6c7.5,11.4,18.6,17.8,31.1,22.1
	c15.5,5.3,31.7,5.6,47.9,4.8c26.3-1.4,52-7.1,78-11.4c33-5.4,66.1-10.2,99.6-8.1c20,1.2,40.3,3.5,56.7,16c12.7,9.7,28,13.5,41,22.1
	c5.1,3.2,9.7,7.1,13.7,11.6c2.5,3,3.6,6.4,0.8,9.5s-5.7,0.9-8.4-0.9c-7.8-5.5-16.1-10-24.9-13.5c-16-6.1-32-12.1-49.1-15
	C483.6,263.5,463.9,262,444.1,262.4z"/>
<path class="st2" d="M460.1,173.9c0.6,2.3,4.1,3.5,2.2,7.2L459,175L460.1,173.9z"/>
<path class="st3" d="M420.7,197.9c5.2-3.9,9.6-6.3,11.9-11.2c1.2-2.5,2.8-4.9,4.8-7c5.4-6.1,10.7-3.7,16.4,0c1.8,1.1,1.5,2-0.2,4.9
	c-3.4-5.4-4.8-5.4-9.4-0.6c-5.3,5.6-7.8,13.3-5.8,18.5c3.1-3.5,3.8-8.2,6.5-11.7c2.5-3.3,5-6.2,9.9-4.5c2.6,0.9,3.4,1.9,1.9,4.6
	c-2.2,4-3.8,8.4-3.7,13.2c2.6,0.2,3.4-1.7,4.7-2.9c6.9-6.9,10.5-15.6,13.9-24.5c1.9-5-4.4-1.3-3.6-5c6.1-0.6,9.4-5.3,12-10.9
	c1.3-2.7,3.6-2.5,5.3-0.8c2.3,2.6,5.4,4.5,8.8,5.4c0.8,0.2,1.2,1.1,1.2,2.2c-0.6,0.2-1.2,0.3-1.8,0.4c-6.1,0.4-10.4,2.7-12.9,8.9
	c-3.1,7.9-6.9,15.5-9.1,23.7c-0.4,1.6-1.6,3.9,0.4,4.9c1.6,0.8,2.8-1.4,3.9-2.6c4.6-5,8.7-10.5,12.3-16.3c0.9-1.2,1.2-2.7,0.7-4.1
	c-1.4-4.8,1.7-10.2,6.4-12c2.7-1,4.6,0.2,6.1,2.1c1.7,2.1-1,2.7-1.8,3.9s-2.1,2.1-2.2,4c2.9,0.4,5.5-1.6,8.3-0.4
	c2.6,1.1,4.2,2,1.2,4.6c-3.9,3.5-7,7.6-7.6,13.1c-0.2,1.4-0.7,3.1,0.8,4.1s3.3,0.2,4.6-0.7c4.2-3,7.6-7.1,9.8-11.7
	c1.2-2.9,2.8-5.7,4.7-8.2c5.2-6.3,10.1-7,17-2.4c2.4,1.6,2.7,3.4,1.1,5.8c-4.1-5.4-5.8-5.5-10.2-0.2c-4.6,5.1-6.8,11.9-6.2,18.7
	c4-4.1,4.6-8.9,7.2-12.4s5.2-6.5,10.3-4.6c2.4,0.9,3.1,1.8,1.8,4.3c-1.4,2.8-2.5,5.8-3.3,8.8c-0.5,1.5-1.5,3.6,0.3,4.4
	c1.5,0.7,2.5-1.2,3.5-2.3c4.9-5.6,9.3-11.7,13.2-18.2c0.9-1.6,1.8-3.2,2.8-4.7c0.4-0.7,0.9-1.6,1.9-1c1.2,0.6,0.9,1.6,0.3,2.5
	c-5.6,8.1-9.7,17.1-16.3,24.5c-2.7,3-5.5,3.9-9.3,2.9s-5.2-3.5-4.8-7.4c-3.3,2-2,8.7-7.7,7.1c-3.5-1-6.8-2.7-8.6-6.4
	c-1.6,1.6-3,2.9-4.4,4.4c-3.4,3.7-7.3,4.2-11.8,2.3c-5.7-2.4-7.5-6.1-5.3-12c1.3-2.9,2.7-5.7,4.3-8.4c0.4-0.7,0.9-1.6-0.1-2.1
	c-0.7-0.5-1.7-0.3-2.3,0.4c-1,1.4-1.8,2.8-2.6,4.3c-2.9,5.1-5.7,10.2-9.4,14.7c-2.7,3.3-5.8,5.5-10.4,3.4c-4.2-1.9-6.5-4.6-4.3-10.4
	c-5.4,4.7-7.5,12.7-16,10c-3.6-1.1-4.9-3.6-4.4-7.3c-3.4,1.9-2,8.5-7.7,7.1c-6-1.4-8-4-8.5-11.2c-5.2,4.6-11.2,7.5-13.2,14.9
	c-1.7,6.2-4,12.4-7.7,17.8c-3.5,5.1-8.5,5.4-12.6,1.1c-2.5-2.6-3-5.4-0.7-8.5c2.9-3.8,6.3-7.3,10-10.4c3-2.6,4.9-6.2,5.3-10.2
	c-1-0.3-1.2,0.5-1.5,1c-4.5,6.8-7,7.4-13.1,1.7c-2.5-2.3-3.9-2.2-5.6,0.4c-4.3,6.5-14.3,4.7-17.5-1.1c-1.5,1.7-2.8,3.9-4.7,5.1
	c-2.4,1.7-5.6,1.8-8.1,0.2c-2.9-1.8-4.5-5.2-4-8.6c0.4-3.9,2.4-7.2,4.2-10.6c1.3-2.1,2.1-4.5,2.3-7c-5.4,3.4-8.4,7.8-11.2,12.3
	c-2,3.2-3.3,6.9-5.2,10.2c-0.8,1.4-0.7,4.2-3.4,3.4c-2.3-0.8-4.5-2-4.4-5.3c0.1-3.3,0.6-6.6,1.5-9.9c3.1-11.4,8.5-21.6,14.5-31.7
	c1.5-2.6,3.1-2.5,5.3-1.1s2.9,2.7,1.2,5.2c-5.5,7.6-9.7,15.9-12.7,24.8c-0.2,0.8-0.8,1.5-0.1,2.6c3.1-4.9,7.1-8.9,11.1-12.8
	c3.2-3.2,10-2.5,12.8,1.1c1.4,1.8,0.3,3.1-0.5,4.5c-2.8,4.7-5.1,9.7-7.1,14.8c-0.5,1.6-1.4,3.6,0.5,4.4c1.6,0.8,2.4-1.3,3.4-2.4
	c5.7-6.4,8.8-14.4,12.6-22c2.2-4.3,5.1-5,9.3-2.7c2.6,1.4,0.7,2.8,0,4c-3.4,5.3-6,11.2-7.6,17.3c-0.4,1.6-2,3.9-0.1,4.9
	c1.6,0.9,3.2-1.2,4.5-2.4c6.5-6,10.9-13.4,14-21.6c1.3-3.6,3.8-4.2,7.1-3.5c2.6,0.6,3.2,1.7,1.9,4.2c-3,5.8-6,11.5-7.3,18
	c-0.2,1.1-1.5,2.6,0.2,3.6s2.8-0.5,3.6-1.7c4.4-6.8,9.5-13.3,12.7-20.9c1.4-3.4,7.7-4.2,9.9-1.4c1,1.3-0.2,2.2-0.7,3.1
	C424.9,186.5,422.6,192.2,420.7,197.9z"/>
<path class="st3" d="M206.4,153.3c6.2,1.6,11.7,0.9,17.2-0.9c8.1-2.6,16.2-5.3,24.7-5.8c5.2-0.3,10.3,0.2,14.3,4.3
	c3.1,3.1,3.9,6.3,1.7,10.3c-4.1,7.4-8,14.8-12.7,23.4c5.5-3.2,9-6.9,12.6-10.4c8.9-8.5,17.4-17.5,24-28c1.2-1.9,1.9-4.1,4.8-2.2
	c2.5,1.6,5.5,2.9,4.3,6.8s-3.8,6.6-6.5,9.4c-8,8.3-16.9,15.6-25.9,22.7c-2.2,1.8-3,2.8-0.6,5.2c3,3,4.4,7.1,5.6,11.1
	c2.9,10,7.1,19,17.4,24.1c-9.3,3.3-19.5-1.6-22.8-10.9c-0.1-0.2-0.1-0.3-0.2-0.5c-1.9-5.8-3.2-11.8-5.1-17.7c-1.7-5.4-1.7-5.1-6.4-2
	c-7,4.6-12.4,10.3-15.9,18c-0.7,1.6-1,5.3-4.1,3.5c-2.7-1.6-5.4-4.2-3.9-8.2c0.4-0.9,0.9-1.8,1.5-2.6c8.9-14.5,17-29.4,24.4-44.7
	c1.1-2.2,2.7-4.8,0.8-7c-1.7-1.9-4.3-0.9-6.6-0.4c-6.7,1.4-12.9,4.3-19.3,6.8c-3.8,1.7-7.9,2.6-12.1,2.7
	C212.5,160.2,209.1,157.9,206.4,153.3z"/>
<path class="st4" d="M292.3,200.5c-0.3,0.6-0.6,1.1-1,1.6c-1.7,2.2-1.3,6.9-6.2,5.4c-6.3-1.9-8.8-4.8-7.9-10.2
	c1.2-6.8,3.6-13.2,8.7-18.1c4.6-4.2,11.8-3.9,16,0.7c0,0,0,0,0,0c1.2,1.4,1.7,3.4,0.1,4.4c-1.9,1.1-1.6-1.3-2.2-2.2
	c-0.5-1.3-2-2-3.4-1.4c-0.1,0.1-0.3,0.1-0.4,0.2c-5,2.2-13.1,14.8-10,21.8c3.3-3.4,3.8-8.1,6.5-11.5c2.5-3.2,4.8-6.5,9.8-4.8
	c2.7,0.9,3.8,1.8,2.2,4.9c-2.1,4-4.1,8.2-3.4,13.1c2.3,0.1,3.2-1.5,4.2-2.7c6.5-7.8,12.7-15.8,16.6-25.3c0.9-2,2.1-3.8,3.7-5.3
	c1.2-1.2,2.4-1.8,3.8-0.4s2.8,2.5,0.9,4.6c-3.1,3.3-2.7,7.2-1.9,11.3c0.6,3.4,1.5,6.8,1.6,10.3c0.1,5.5-2.4,9.4-7.3,11.4
	s-9.9,2.3-13.9-1.7c-1.6-1.6-2.1-1.2-3.3,0c-2.8,3-6.1,2-9.2,0.9C293.3,206.1,292.5,203.7,292.3,200.5z"/>
<path class="st5" d="M580.5,202.8h16c1.8,0,3.7-0.2,3.7,2.6s-2,2.6-3.7,2.6c-7.5,0-15,0.1-22.5,0c-1.3,0-3.2,0.8-3.8-1.3
	c-0.5-1.6,0.5-2.8,1.6-3.9c5.2-5.4,11-10.3,15.5-16.2c1.6-1.9,2.9-4,4-6.3c1.8-4.3,2.5-8.9-1.2-12.5s-8.2-2.5-12.6-1
	c-1.5,0.5-3.3,4.1-5,0.1c-1.5-3.4,1.6-3.9,3.5-4.8c7-3.4,15.3-2.4,19.6,2.1c4.4,4.7,4.8,12.3,0.7,19.6c-2.9,5.3-7.2,9.5-11.4,13.9
	C583.4,199,581.3,200,580.5,202.8z"/>
<path class="st6" d="M398.8,164.9c-0.1,1.4-8.8,9.8-9.9,9.6c-1.7-0.4-3.3-1.2-2.8-3.3c0.8-3.2,1.9-6.3,3.5-9.2
	c1.2-2.1,2.9-1.2,4.3-0.6C395.8,162.2,398.1,162.8,398.8,164.9z"/>
<path class="st7" d="M559.3,158c1.9,0,3.5-0.1,3.3,2.5c-0.4,3.9-0.6,7.9-0.8,11.9c-0.1,1.6-0.4,2.9-2.5,2.8c-1.9-0.1-2-1.4-2-2.8
	c-0.3-4-0.4-7.9-0.8-11.9C556.1,157.9,557.7,157.9,559.3,158z"/>
<path class="st8" d="M599.6,190.9c2,5.1,2,5.1-3.1,4.9C596.9,193.8,598.5,192.7,599.6,190.9z"/>
<path class="st4" d="M582.7,294.2c-9.6-6.8-19.9-12.4-30.7-16.9c-19.8-8-40.2-13.9-61.5-16.5c-17-2.2-34.1-3.1-51.3-2.7
	c-22.1,0.7-44,3.7-65.8,7.2s-43.7,6.5-65.9,6.8c-1.7,0.1-3.3-0.1-4.9-0.4c7.1-2.3,14.6-1.7,21.8-2.4c20.5-1.9,40.8-5.5,61.1-8.6
	c22.6-3.5,45.3-6.8,68.2-8c21.4-1.1,42.5,0.1,63.3,5.3c3.5,0.9,6.9,2.9,11.6,2.5c-4.8-4.7-10.3-6.7-15.6-8.5
	c-18.8-6.3-38.2-6.6-57.7-5.2c-21.9,1.5-43.5,5.2-65.2,8.6c-21.2,3.3-42.1,8.2-63.4,10.4c-29.4,3-58.5,2.2-86.5-8.9
	c-13.6-5.4-25.8-13.3-34.9-25c-6.1-7.8-7.2-16.7-3.3-22.7c0.9-1.4,2.1-2.6,3.3-3.6c1-0.8,2.2-1.9,3.6-1c1.6,1.1,0.1,2.4-0.2,3.5
	c-2,8-0.5,15.5,3.7,22.5c8.1,13.5,20.8,20.7,35.2,25.5c15.8,5.2,32.1,5.6,48.4,4.8c26.3-1.3,52-6.7,77.9-11.1
	c31.2-5.3,62.5-9.8,94.2-8.6c18.5,0.7,36.9,2.7,53.6,11.6c1.4,0.6,2.7,1.3,3.9,2.1c9.4,8.5,21.1,13,32.4,18.2
	c8,3.7,15.7,8,21.9,14.5C581.4,289.1,583.3,290.6,582.7,294.2z"/>
<path class="st3" d="M407.4,266.9c19.7-4.5,38.4-3.9,54.3,10.9c7.6,7.2,13.7,15.9,22.2,22.2c12.4,9.2,26.2,13.3,41.7,11.1
	c10.5-1.5,17.3-7.7,21.3-17.4c0.5-1.1,0.2-2.8,1.9-3.2c1.3,7.9-3.8,17.2-12.1,22.1c-13.5,7.9-27.5,7-41.8,2.8
	c-15.5-4.5-27.5-14.4-39.3-24.6c-9.2-7.9-18.5-15.6-30.2-19.8C419.3,268.9,413,269.8,407.4,266.9z"/>
<path class="st9" d="M406.3,215.1c-1.7,3.7-3.4,7.4-5.2,11c-0.9,1.7-2.5,3-4.4,1.8c-2.3-1.4-0.9-3,0.1-4.6
	C399,219.8,402.3,217.3,406.3,215.1z"/>
<path class="st10" d="M319.7,186.1c1.4,5.9,2.3,11.1,0,16.1c-0.7,1.7-2,3.2-4,3.3c-1,0-2-0.7-2.3-1.7c-0.9-2,0-3.7,1.4-4.9
	s2.1-1.8,0.1-3.4c-1.2-0.9,0.8-2.5,1.5-3.7C317.3,190.1,318.3,188.5,319.7,186.1z"/>
<path class="st11" d="M638.2,185.9c0-6.2-0.2-11.2-2.1-15.9c-2.3-5.7-5.9-9.6-12.4-9.9c-6.2-0.3-11.4,2.9-14,9.2
	c-4.1,9.9-4.1,21.1,0.2,31c2.3,5.5,6.5,8.8,12.7,8.6s10.5-3.5,13-9.2C637.4,195.4,638.3,190.6,638.2,185.9z M622.6,196.6
	c-3.6-7.7-3.6-16.6,0-24.3C625.8,180.2,625.8,188.9,622.6,196.6z"/>
<path class="st12" d="M630,171.1c-1.2-3.2-3-6-7-6.1c-4.2-0.1-6.5,2.6-7.7,6c-3.3,8.8-3.3,18.5,0,27.4c1.2,3.2,3.4,5.8,7.4,5.7
	s6-2.7,7.2-6c1.6-4.6,2.3-9.4,2.1-14.3C632.1,179.4,631.5,175.1,630,171.1z M622.6,196.6c-3.6-7.7-3.6-16.6,0-24.3
	C625.8,180.2,625.8,188.9,622.6,196.6L622.6,196.6z"/>
</svg>
