<?xml version="1.0" encoding="utf-8"?>
<!-- Generator: Adobe Illustrator 21.1.0, SVG Export Plug-In . SVG Version: 6.00 Build 0)  -->
<svg version="1.1" xmlns="http://www.w3.org/2000/svg" xmlns:xlink="http://www.w3.org/1999/xlink" x="0px" y="0px"
	 viewBox="0 0 449.6 186.6" style="enable-background:new 0 0 449.6 186.6;" xml:space="preserve">
<style type="text/css">
	.st0{display:none;}
	.st1{display:inline;fill-opacity:0;}
	.st2{display:inline;fill:#FEC45F;stroke:#FEC45F;}
	.st3{display:inline;opacity:0.9451;fill:#892D2B;stroke:#E18042;enable-background:new    ;}
	.st4{display:inline;opacity:0.9451;fill:#892D2B;stroke:#892D2B;enable-background:new    ;}
	.st5{display:none;fill:#FEFEFE;}
	.st6{fill:#872A2A;}
	.st7{fill:#882A2A;}
	.st8{fill:#2B3652;}
	.st9{fill:#FDC360;}
	.st10{fill:#FDC35F;}
	.st11{fill:#FCC35F;}
	.st12{fill:#FBC15F;}
	.st13{fill:#FAC05E;}
	.st14{fill:#8D312C;}
	.st15{fill:#8A2E2B;}
</style>
<g id="Layer_1" class="st0">
	<path class="st1" d="M-195.7-136h833v540h-833V-136z M74.3,67l-3,1l-13,17c0.7,1.3,0,1.7-2,1l-2-6c-3.3-4.7-8.3-7.7-15-9l-15,1
		l-22,7c-6,0.7-10,0-12-2l-3,1l-5,7l4,8c2.7,4,7.3,6.3,14,7l10-1l19-7h1c-7.3,15.3-15.7,30.3-25,45c-0.7,4.7,0.3,8.3,3,11
		c1.3,3.3,4.3,5.3,9,6l7-2l7-13l7-6l3,14l4,8l7,5l12,4l12-1l4-6l-2-5l-6-4l4-2l9,2l7-2l7,3c8,0,14-2.3,18-7c2,3.3,5.7,5.3,11,6l5-2
		l1-3l9,5c6.7,1.3,11.7,0.3,15-3l4,2c6.7,1.3,11.3,0.3,14-3l1,1l-7,9c-0.7,6,0.3,10.3,3,13l9,5l6,1l-26,3l-12,3h-6l-22,5l-20,2h-2
		c-1.3,2-3.7,2.3-7,1h-2l-1,1h-16l-3,1l-2-1l-3,1l-26-3l-10-3l-17-9l-13-13l-4-13v-2l2-5c0.7-4,0.3-6.7-1-8l-4-2l-5,2
		c-4.7,2.7-7.7,7-9,13c0,10,2.7,17.7,8,23c8.7,9.3,19.3,17,32,23l14,5l17,4l12,1l1,1h9l1,1l2-1h2l4,1l1,3l7,2c4,1.3,6.7,1,8-1l2,1
		l1-1h11l1-1l3,1l1-1h8l1-1l21-2h2l5-2h8l26-5l-1,2l1,4l4,2l14,1l14,6l36,29l14,8l21,6h17l18-7l10-11l3-10c0.7-4,0.3-6.7-1-8
		s-3.7-1.7-7-1l-7,13c-2.7,4-6.7,6.7-12,8c-8.7,1.3-15.7,1-21-1c-8.7-2-15.3-5.3-20-10l-16-16c-6-7.3-13.7-13-23-17h2l4-1l1,1h15h4
		l32,4l27,7l8,3l3,3h5l21,10l11,8h5l3-5l-2-5l-15-14l-31-14l-16-12l-22-8l-17-2l-1-1h-13l-1-1l-3,1l-2-1h-8l-1,1l-4-1h-4l-1,1l-25,1
		h-2l-8,2h-6l4-2l6-7l8-22l12,6c4,1.3,6.7,1,8-1l9,2c4.7,0,8-1.3,10-4l8,4c7.3,0.7,12.3-1.3,15-6l11,6c6.7,1.3,11.3,0,14-4
		c4-0.7,6.7,0.3,8,3c4,1.3,6.7,1,8-1l9,2c4,0,7-1,9-3c9.3-11.3,17.7-24,25-38l4,2l7-4h4c0.7,3.3,0,6-2,8l-20,22l1,9l5,3h34l2-1l3-4
		c2,3.3,5.3,5.3,10,6c7.3,1.3,13,0.3,17-3c3.3-2.7,6-6.3,8-11l3-14l-1-14l-5-12c-2.7-4.7-6.7-7.7-12-9c-8.7-0.7-14.7,0.7-18,4l-5,6
		c-2,0.7-2.7,0.3-2-1c-2.7-4.7-6.7-7.7-12-9c-9.3-1.3-16,0-20,4c-2,0.7-2.7,0-2-2l-4-4c-6-1.3-10-1-12,1l-4,6c-1.3,4-1,6.7,1,8
		c1.3,8,0,13.3-4,16l-2-5c-2.7-4-6.7-6.7-12-8c-9.3-0.7-15.3,1.7-18,7l-3-1l-4-7l-5-3l-1-3l-17-11l-7,2l-5,8l-3,3l-7,2l-2,6v2v1
		l-11-6c-6.7-0.7-11,0.3-13,3l-10-3c-6-1.3-9.3-0.7-10,2l-10-2l1-3l-1-4c-2.7-4.7-7-7.7-13-9l-7,2l-10,19l-10-4l3-5c0.7-4,0-6.7-2-8
		l-9-6l-6,1l-12,19c0.7,1.3,0,1.7-2,1l-1-4c-2-3.3-4.7-5.3-8-6l-5,1l-7,7l-6,12l-2-5c-3.3-4.7-8.7-7.3-16-8c6-4,10-10,12-18l-2-8
		C84,70.4,79.6,67.7,74.3,67z"/>
	<path class="st1" d="M406.8,105l1.5,1.5l1,13l-2.5,8.5l-1.5-2.5l-1-12L406.8,105z"/>
	<path class="st1" d="M245.8,109l1,2L245.8,109z"/>
	<path class="st1" d="M383.8,124l0.5,3c-1.8,0.7-2.5,0.2-2-1.5L383.8,124z"/>
	<path class="st2" d="M73.3,75c3.5-0.4,6.2,0.8,8,3.5l1,3c-2.6,6.4-6.4,11.6-11.5,15.5l-24.5,20.5l6,8l8,21l4.5,4.5l7.5,4.5
		l-5.5,1.5l-11-3l-5.5-5.5l-3-7l-3-14l-3.5-6.5l-14.5,11.5L17.8,147l-5.5-6.5v-2l22-38l6-13v-4c-0.7-1.7-2.5-2.2-5.5-1.5l-27,10h-10
		l-5.5-3l-2-3.5l1.5-0.5l1,1h10l23-7l10-1l8,2l5.5,5.5l1,4l-14,26l1.5,0.5l21.5-20.5l10-12L73.3,75z"/>
	<path class="st2" d="M139.3,90c3.1,0.3,5.5,1.8,7,4.5c-6.8,8.2-11.8,18.2-15,30h1l1-3l10.5-11.5l6-1l6.5,4.5l-8,17l-1,5l1.5,1.5
		l5.5-5.5l12-23.5l7.5,1l1.5,1.5c-5.3,6.9-8.6,15.4-10,25.5c4.5-0.7,7.9-3.2,10-7.5l11.5-20.5c4-1,6.5-0.5,7.5,1.5l-7,16l-2,8.5
		c2.5,0.7,4.2,0.2,5-1.5l14.5-24.5c4.1-0.5,7,0.4,8.5,2.5l-8,18l1.5,0.5l9.5-8.5l6.5-10.5c1.5-2.1,4.5-2.8,9-2l7.5,4.5
		c0.5,2.5,0,4-1.5,4.5l-1.5-4l-2.5-1l-7.5,6.5c-3.1,3.6-4.7,8.6-5,15l2,1c1.8-7.2,5.3-12.7,10.5-16.5c4.3-0.7,7.2,0.2,8.5,2.5
		c-3.2,3.8-4.9,9.1-5,16l8-7l6-8l5-15.5c-2.5,0.7-4.2,0.2-5-1.5l6.5-2.5l2.5-2.5l6.5-9.5l5.5,3c-1.2,3.3,0.3,4.3,4.5,3l3,4h-5
		l-7.5,3.5l-9,20l-3,9v5.5l8-6.5l10-14v-2c-1.5-0.9-1.8-2.9-1-6l5.5-6.5l4-1l4.5,3.5l-5,7.5c1.6-1.1,4.4-1.5,8.5-1l3.5,2.5
		c-6.5,3.7-9.8,10.2-10,19.5l2.5,1l7.5-5.5l12.5-19.5c1.5-2.1,4.5-2.8,9-2l7.5,4.5c0.5,2.5,0,4-1.5,4.5l-1.5-4l-2.5-1l-7.5,6.5
		c-3.1,3.6-4.7,8.6-5,15l2,1c1.8-7.2,5.3-12.7,10.5-16.5c4.3-0.7,7.2,0.2,8.5,2.5c-3.2,3.8-4.9,9.1-5,16l8-7l13.5-20.5l1.5,2.5
		L324.8,139l-8,1l-4.5-3.5l-0.5-4.5l-5,8c-4.7-0.6-8.2-2.4-10.5-5.5l-0.5-1.5l-7,7l-7,1l-8.5-6.5l2-10l4-7.5l-4,1.5
		c-3.4,9.3-8.6,16.8-15.5,22.5c-5.4,0.4-8.9-1.1-10.5-4.5l-1-3l1-3l-2,1l-5.5,7.5l-8,1l-4.5-3.5l-0.5-4.5l-5,8
		c-4.7-0.6-8.2-2.4-10.5-5.5l-0.5-6.5l-10.5,9.5l-6,17l-6.5,9.5l-6,1l-6.5-5.5v-4l15-16l2-7h-1l-5.5,7.5c-4.9-1.1-8.5-3.5-11-7l-7,7
		h-7l-5.5-3.5l-0.5-2.5l-3.5,6c-1.6,1.2-4.4,1.5-8.5,1l-2.5-1l-3-8.5l7-17l-2.5,1.5c-1.5-0.5-2,0-1.5,1.5l-7,8l-7.5,14.5l-5.5-2
		v-9.5l4-13L139.3,90z M190.3,146c-5.3,2.7-9,7-11,13c0.7,1.3,2.3,1.7,5,1l6-12V146z"/>
	<path class="st2" d="M340.3,90h7v2.5l-1,1V107h-5V93.5L340.3,90z"/>
	<path class="st2" d="M175.8,92l7.5,4.5l-9.5,10.5l-3.5-2.5C170.7,98.9,172.5,94.8,175.8,92z"/>
	<path class="st2" d="M364.8,92c8.6-1.3,14.1,0.6,16.5,5.5c2.2,2.5,2.9,6.5,2,12l-4,9l-15,16l20,0.5l-0.5,5h-29.5v-3.5l20-21l3-10
		l-4.5-7.5l-6-1l-9.5,4l-1-4.5L364.8,92z"/>
	<path class="st2" d="M403.8,92h7l7.5,5.5l4,10v18c-0.8,5.5-3,9.7-6.5,12.5c-2.5,2.8-6.9,3.8-13,3l-7.5-5.5l-4-10v-18
		c1.3-6.7,4.5-11.5,9.5-14.5L403.8,92z M405.3,97l-2,1l-5,8l-1,5v12l3,10l5,3l6-1l3-4l2-8v-12l-3-10C412,97.7,409.3,96.4,405.3,97z"
		/>
	<path class="st2" d="M111.8,101l3.5,2.5l1,2c-3.7,1.6-5.1,5.6-4,12c2.1,3.6,2.7,8.6,2,15l-4.5,6.5c-2.7,2.3-7,3-13,2l-5-4
		c-1.5,2.9-4.8,3.9-10,3l-4.5-3.5l-0.5-4.5l-5,8c-4.7-0.6-8.2-2.4-10.5-5.5c0.2-11.1,3.4-19.3,9.5-24.5c1.5-2.1,4.5-2.8,9-2l7.5,4.5
		c0.5,2.5,0,4-1.5,4.5l-1.5-4l-2.5-1l-7.5,6.5c-3.1,3.6-4.7,8.6-5,15l2,1c1.8-7.2,5.3-12.7,10.5-16.5c4.3-0.7,7.2,0.2,8.5,2.5
		c-3.2,3.8-4.9,9.1-5,16l8-7l11-16l3-8L111.8,101z M104.3,119l-6,9l3,2h-1l-3,4c0,2.7,1,4,3,4l2-1l3-5
		C106,126,105.6,121.7,104.3,119z"/>
	<path class="st2" d="M-8.2,136l2.5,1.5c-2.5,2.9-3.1,7.5-2,14c1.9,8.7,5.8,15.6,11.5,20.5l3,2l9,7l12,6l10,3l10,2h8l1,1h23l3-1l4,1
		l8-2h9l14-3h6l28-6h6l1-1l24-3l1-1l15-1l1-1h9l11-2h41l1,1h8l17,3l19,7l16,12l16,6l15,8l14.5,12.5c1,2.9,0.5,4.1-1.5,3.5
		c-7.7-6.6-16.7-11.9-27-16l-5-2h-5l-8-5l-21-6l-28-5h-9l-1-1l-46-1l-1,1l-31,2l-14,3h-6l-6,2h-8l-14,3l-15,1l-1,1h-11l-1,1l-2-1
		l-1,1H86.3c-0.8-2,0-2.7,2.5-2l2,1l1-1h14l1-1l25-2l13-3h7l12-3l21-2l28-5l27-1l1-1h23l1,1h12l1,1l13,1l21.5,6
		c0.7-1.8,0.2-2.5-1.5-2l-12-7l-11-3h-5l-6-2h-9l-1-1h-2h-17l-1,1l-25,1l-1,1l-21,2l-26,5h-7l-16,4h-5l-25,5h-7l-1,1h-11l-1,1h-32
		l-1-1h-10l-20-4l-17-6c-12-5.7-22.2-13.2-30.5-22.5l-6-12v-10l5.5-6.5L-8.2,136z"/>
	<path class="st2" d="M206.8,196h10l13,3c7.9,3.7,14.8,8.6,20.5,14.5l12.5,14.5c9.7,10.6,24.7,15.9,45,16
		c9.5-1.5,16.4-5.6,20.5-12.5l4.5-9.5l1.5,2.5l-2,8l-9.5,11.5l-10,5l-17,2h-2c-11.9-1.7-22.3-5.1-31-10c-13-8.7-25-18.3-36-29l-14-8
		l-10-3c-5.1,0.5-9,0.2-11.5-1c-0.9-2.2,0.3-2.9,3.5-2l1-1h10L206.8,196z"/>
	<path class="st3" d="M73.8,67c6,1,10.5,3.5,13.5,7.5l2,8c-2,8-6,14-12,18c7.1,0.9,12.4,3.6,16,8l1.5,5.5l6.5-12.5l6.5-6.5l5-1
		c3.9,0.9,6.7,2.7,8.5,5.5l1,4.5c1.8,0.7,2.5,0.2,2-1.5L135.8,84l6-1l9.5,5.5c1.8,1.5,2.5,4.2,2,8l-3,5l10,4.5l9.5-19l7-2
		c6.1,1.3,10.6,4.1,13.5,8.5l1,4l-1,3.5l9.5,2c1.3-2.7,4.7-3.3,10-2l10,3c2.3-3,6.7-4,13-3l11,6l0.5-1.5v-2l2-5.5l6.5-2l3.5-3.5
		l4.5-7.5l7-2l17.5,10.5l1,3.5l5,2.5l3.5,7.5l3,1c2.9-5.5,8.9-7.8,18-7c5.5,1.2,9.6,3.7,12.5,7.5l1.5,5.5c4.3-2.7,5.8-8.2,4.5-16.5
		c-1.8-1.1-2.1-3.8-1-8l3.5-5.5c2.5-1.8,6.5-2.1,12-1l4.5,3.5c-0.7,2.2-0.2,3,1.5,2.5c4-4,10.7-5.3,20-4c5.6,1.5,9.8,4.3,12.5,8.5
		c-0.5,1.5,0,2,1.5,1.5l5-6c3.7-3.6,9.7-4.9,18-4c5.6,1.5,9.8,4.3,12.5,8.5l5,12l1,14l-3,14c-1.7,4.9-4.6,8.8-8.5,11.5
		c-3.7,3-9.3,4-17,3c-4.4-0.9-7.7-2.9-10-6l-3,4l-2,1h-34l-4.5-3.5l-1-9l20-22c2-1.5,2.7-4,2-7.5h-4.5l-7,4l-4-2
		c-6.7,14.3-15.1,26.9-25,38c-2,2-5,3-9,3l-9-2c-1.1,1.8-3.8,2.1-8,1c-1.3-2.4-3.9-3.4-8-3c-2.3,3.7-6.9,5.1-14,4l-11-6
		c-2.5,4.5-7.5,6.5-15,6l-8-4c-2,2.7-5.3,4-10,4l-9-2c-1.1,1.8-3.8,2.1-8,1l-11.5-6l-8,21.5l-6.5,7.5l-3.5,1.5l5.5,0.5l8-2h2l25-1
		l1-1h4l4,1l1-1h8l2,1l3-1l1,1h13l1,1l17,2l22,8l16,12l31,14l15.5,13.5l2,5l-3.5,5.5h-5l-11-8l-21-10h-5l-3-3l-8-3l-27-7l-32-4h-4
		h-15l-1-1l-4.5,1.5c8.8,3.9,16.1,9.2,22,16l15.5,16.5c5.3,4.7,11.9,8.1,20,10c5.5,1.8,12.5,2.1,21,1c5.3-1.7,9.5-4.5,12.5-8.5
		l6.5-12.5c3.6-0.4,6.1-0.1,7.5,1c1.1,1.4,1.4,3.9,1,7.5l-3,10L324.8,248l-18,7h-17l-21-6l-14-8l-36-29l-14-6l-14-1l-3.5-2.5l-1-4.5
		h-7.5l-18,4h-8l-5,2h-2l-21,2l-1,1h-8l-1,1l-3-1l-1,1h-11l-1,1l-2-1c-1.2,1.8-3.9,2.1-8,1l-6.5-2l-1.5-3l-4-1h-2l-2,1l-1-1h-9l-1-1
		l-12-1l-17-4l-14-5C6.5,186-4,178.2-12.7,168.5c-5.1-5.2-7.8-12.9-8-23c1.5-5.6,4.3-9.8,8.5-12.5l5-2l4.5,2c1.1,1.4,1.4,3.9,1,7.5
		l-2,5v2l4,13L12.8,174l17,9l10,3l26,3l3-1l2,1l3-1h16l1-1h2c3.7,1,6,0.7,7-1h2l20-2l22-5h6l12-3l26.5-3.5l-6.5-0.5l-8.5-5.5
		c-2.8-2.5-3.8-6.9-3-13l7-9l-1.5-0.5c-2.3,3.4-6.9,4.4-14,3l-4-2c-3,3-8,4-15,3l-8.5-5l-1.5,3l-5,2c-4.8-0.9-8.5-2.9-11-6
		c-3.5,4.9-9.5,7.2-18,7l-7-3l-7,2l-9-2l-3.5,1.5l6,4l2,5l-4.5,6.5l-12,1l-12-4l-6.5-5.5l-4-8L37.8,133l-6.5,5.5L23.8,152l-7,2
		c-4.1-0.9-6.9-3.1-8.5-6.5c-2.5-2.1-3.5-5.8-3-11c9.3-14,17.7-29,25-45L28.8,92l-19,7l-10,1c-6-1-10.5-3.5-13.5-7.5l-4-8l4.5-6.5
		l3-1c2.5,2.2,6.5,2.9,12,2l22-7l15-1c6.9,1.2,12,4,15.5,8.5l2,6.5c1.8,0.7,2.5,0.2,2-1.5L70.8,68L73.8,67z M73.3,75l-4,9l-10,12
		l-22,20l-2,1l15-27l-1-4l-5-6l-8-2l-10,1l-23,7h-10l-1-1l-2,1l2,3l6,3h10l27-10c2.7-0.7,4.3,0,5,2v4l-6,13l-22,38v2l6,6l8-14l15-12
		l3,7l3,14l3,7l6,5l11,3l5-1l-7-5l-5-4l-8-21l-6-8l25-21c4.7-4,8.3-9,11-15l-1-3C79.3,75.7,76.6,74.4,73.3,75z M139.3,90l-13,26
		l-4,13v9l6,2l7-14l7-8c-0.7-2,0-2.7,2-2l2-1l-7,17l3,8l3,1c4,0.7,6.7,0.3,8-1l4-6v3l6,3h7l7-7c2,3.3,5.7,5.7,11,7l5-7l2-1l-3,8
		l-15,16v4l7,5l6-1l6-9l6-17l11-10v7c2,2.7,5.7,4.3,11,5l5-8v5l5,3l8-1l5-7l2-1l-1,3l1,3c1.3,3.3,5,4.7,11,4c6.7-6,11.7-13.3,15-22
		l4-2l-4,8l-2,10l9,6l7-1l7-7v2c2,2.7,5.7,4.3,11,5l5-8v5l5,3l8-1l18-27l-1-3l-14,21l-8,7c0-7.3,1.7-12.7,5-16c-1.3-2.7-4-3.7-8-3
		c-5.3,4-9,9.7-11,17l-2-1c0-6.7,1.7-11.7,5-15l8-7l2,1l2,4c1.3-0.7,1.7-2,1-4l-7-5c-4.7-0.7-7.7,0-9,2l-13,20l-7,5l-3-1
		c0-9.3,3.3-15.7,10-19l-3-3c-4.7-0.7-7.7-0.3-9,1l5-7l-4-4l-4,1l-6,7c-0.7,2.7-0.3,4.7,1,6v2l-10,14l-8,6v-5l3-9l9-20l8-4h5l-3-4
		c-4.7,1.3-6.3,0.3-5-3l-5-3l-7,10l-2,2l-7,3c0.7,1.3,2.3,1.7,5,1l-5,16l-6,8l-8,7c0-7.3,1.7-12.7,5-16c-1.3-2.7-4-3.7-8-3
		c-5.3,4-9,9.7-11,17l-2-1c0-6.7,1.7-11.7,5-15l8-7l2,1l2,4c1.3-0.7,1.7-2,1-4l-7-5c-4.7-0.7-7.7,0-9,2l-7,11l-9,8h-2l8-18
		c-1.3-2.7-4-3.7-8-3l-15,25c-0.7,1.3-2.3,1.7-5,1l2-8l7-16c-0.7-2.7-3-3.3-7-2l-12,21c-2,4-5.3,6.3-10,7c1.3-10,4.7-18.3,10-25
		l-1-2l-8-1l-12,24l-5,5l-2-1l1-5l8-17l-6-5l-6,1l-11,12l-1,3h-1c3.3-12,8.3-22,15-30C145,91.7,142.6,90,139.3,90z M340.3,90l1,4v13
		h5V94l1-1v-3H340.3z M176.3,92c-3.3,2.7-5.3,7-6,13l4,2l9-10L176.3,92z M365.3,92l-9,5l1,4l10-4l6,1l4,8l-3,10l-20,21v3h30v-5h-20
		l15-16l4-9c0.7-6,0-10-2-12C378.6,92.7,373.3,90.7,365.3,92z M404.3,92l-3,1c-5.3,3.3-8.7,8.3-10,15v18l4,10l8,5
		c6,0.7,10.3-0.3,13-3c3.3-2.7,5.3-6.7,6-12v-18l-4-10l-7-6H404.3z M112.3,101l-5,5l-3,8l-11,16l-8,7c0-7.3,1.7-12.7,5-16
		c-1.3-2.7-4-3.7-8-3c-5.3,4-9,9.7-11,17l-2-1c0-6.7,1.7-11.7,5-15l8-7l2,1l2,4c1.3-0.7,1.7-2,1-4l-7-5c-4.7-0.7-7.7,0-9,2
		c-6.7,5.3-10,13.7-10,25c2,2.7,5.7,4.3,11,5l5-8v5l5,3c4.7,0.7,8-0.3,10-3l5,4c6,1.3,10.3,0.7,13-2l4-6c0.7-6.7,0-11.7-2-15
		c-1.3-6.7,0-10.7,4-12l-1-2L112.3,101z M384.3,124l-2,2c-0.7,1.3,0,1.7,2,1V124z M-7.7,136l-2,1l-6,7v10l6,12
		c8,9.3,18.3,16.7,31,22l17,6l20,4h10l1,1h32l1-1h11l1-1h7l25-5h5l16-4h7l26-5l21-2l1-1l25-1l1-1h17h2l1,1h9l6,2h5l11,3l12,7
		c1.3-0.7,1.7,0,1,2l-21-6l-13-1l-1-1h-12l-1-1h-23l-1,1l-27,1l-28,5l-21,2l-12,3h-7l-13,3l-25,2l-1,1h-14l-1,1l-2-1
		c-2.7-0.7-3.7,0-3,2h19l1-1l2,1l1-1h11l1-1l15-1l14-3h8l6-2h6l14-3l31-2l1-1l46,1l1,1h9l28,5l21,6l8,5h5l5,2c10,4,19,9.3,27,16
		c2,0.7,2.3-0.3,1-3l-14-13l-15-8l-16-6l-16-12l-19-7l-17-3h-8l-1-1h-41l-11,2h-9l-1,1l-15,1l-1,1l-24,3l-1,1h-6l-28,6h-6l-14,3h-9
		l-8,2l-4-1l-3,1h-23l-1-1h-8l-10-2l-10-3l-12-6l-9-7l-3-2c-6-4.7-10-11.3-12-20c-1.3-6.7-0.7-11.3,2-14L-7.7,136z M207.3,196l-1,1
		h-10l-1,1c-3.3-0.7-4.7,0-4,2c2.7,1.3,6.7,1.7,12,1l10,3l14,8c10.7,10.7,22.7,20.3,36,29c8.7,4.7,19,8,31,10h2l17-2l10-5l9-11l2-8
		l-1-3l-5,10c-4,6.7-10.7,10.7-20,12c-20.7,0-35.7-5.3-45-16l-13-14c-6-6-12.7-11-20-15l-13-3H207.3z"/>
	<path class="st4" d="M404.8,97c4.6-0.6,7.4,0.6,8.5,3.5l3,10v12l-2,8l-3.5,4.5l-6,1l-4.5-3.5l-3-10v-12l1-5l4.5-7.5L404.8,97z
		 M407.3,105l-3,9l1,12l2,2l2-8l-1-13L407.3,105z"/>
	<path class="st4" d="M103.8,119c1.9,2.8,2.4,7,1.5,12.5l-3.5,5.5l-2,1c-2-0.3-2.8-1.8-2.5-4.5l2.5-3.5l1.5-0.5l-3-2L103.8,119z"/>
	<path class="st4" d="M189.8,146l0.5,1.5l-6.5,12.5c-2.5,0.5-4,0-4.5-1.5C181.5,153.1,185,148.9,189.8,146z"/>
</g>
<g id="Layer_2">
	<g>
		<path class="st5" d="M230.8,336c-137.3,0-274.7,0-412,0.1c-3.7,0-4.6-0.8-4.6-4.6c0.1-177,0.1-354,0-531c0-3.7,0.8-4.6,4.6-4.6
			c274.7,0.1,549.3,0.1,824,0c3.7,0,4.6,0.8,4.6,4.6c-0.1,177-0.1,354,0,531c0,3.7-0.8,4.6-4.6,4.6C505.5,336,368.1,336,230.8,336z"
			/>
		<path class="st6" d="M446.2,30.2c-2.4-6.2-6.8-10.5-13.6-12.2c-10.5-2.6-18.1,1.5-23.9,9.9c-11.4-12.2-20.6-13.9-34.9-6.4
			c-2.5-5.5-7.2-7.7-13.4-6.2c-5.1,1.2-6.7,3.9-6.3,10.7c0.1,2.7-0.1,5.4,0.4,8c1.1,5.3-1.6,8.9-4.9,12.7
			c-3.8-13.4-19.1-17.8-29-8.7c-3.6,3.3-6.6,2.5-8.2-2.3c-0.7-2-1.8-3.5-3.2-4.9c-4.3-4.3-9-7.9-14-11.3c-8.5-5.7-13.1-5.1-18.1,4
			c-1.6,2.9-3.5,4.8-6.9,5.8c-4.1,1.2-6.2,4.3-5.8,8.8c0.2,0.9,0.5,1.8,0.8,2.5c-0.4-0.6-1.2-1-1.9-1.4c-7.4-5.2-15.1-8.9-23.8-2.6
			c-1.5,1.1-2.3,0-3.5-0.5c-4.3-1.8-9-4.3-13.3-1.9c-4.5,2.5-7.7-0.3-11.5-0.9c-1-0.1-1.1-0.7-1.1-1.7c-0.6-7.8-5.7-12.8-13.4-13.5
			c-3.2-0.3-5.8,0.6-7.8,3.4c-2.3,3.4-3.5,7.1-4.6,11c-1.4,4.7-4.4,5.9-8.8,4c-1.8-0.8-3.7-1.2-5.6-1.9c0.2-0.5,0.2-1.1,0.4-1.5
			c4-7.4,2.9-11.6-4.2-15.5c-6.2-3.4-10.4-2-14.6,5.2c-2.9,5-5.7,10.2-8.8,15.7c-0.8-5.9-3.4-9.7-8.6-11.2
			c-5.5-1.6-8.7,2.1-11.6,5.9c-1.5,2-2.4,4.4-3.6,6.5c-1.3,2.4-1.9,5.2-4.5,7c-1.5-10.3-9.9-11.6-17.9-14.1c3.1-3.2,6.2-6.3,8.6-9.8
			c6.4-9.6,3.5-18.2-7.4-22C92.8-1,89.8,0.2,87.4,4.8c-2.7,5.3-6.3,10-10.6,14.4C73.6,8.5,65,3,53,3.7c-9.2,0.5-17.9,3.3-26.7,6.1
			c-4.8,1.5-9.6,2.6-14.6,0.6c-2.6-1-5-0.2-6.8,1.9c-1.8,2.1-2.1,4.5-1,7c2.3,5.1,5.8,8.9,11.2,10.7c6.9,2.4,13.4,0.8,20-1.5
			c5.1-1.8,9.8-4.5,15.8-5.7c-0.8,1.9-1.3,3.2-1.9,4.3c-6.5,12.5-13.2,25-20.7,37c-4.5,7.2-1.5,16.9,6.3,20.5
			c3.7,1.7,8.1,0.5,10.5-3.1c1.9-2.9,3.6-6,5.1-9.1c1.7-3.6,4.3-6.2,8-8c1,3.5,2.1,6.8,2.8,10.2c3.5,17,17.6,22.1,32.1,20.4
			c5.7-0.7,7.8-5.9,4.7-10.8c-1.4-2.2-3.9-2.9-6.2-5.4c7.7-2.2,15.1-0.3,22,0.5c8,0.8,15.2,1.1,21.6-4.2c1.4-1.2,2.1-1.3,3.5-0.1
			c2.5,2.2,5.4,3.9,8.9,4.2c4,0.3,5.9-2.8,8.3-5.2c5.4,6.1,11.8,7.6,19,4.3c2-0.9,3.5-1,5.6-0.4c5.7,1.8,11.2,1.6,16-2.5
			c0.6-0.5,1.2-0.5,1.8,0c-1.8,2.4-3.8,4.6-5.4,7.1c-1.8,2.8-2.7,5.9-1.8,9.5c1.8,6.8,6.4,10.4,12.9,11.7c5.8,1.2,10.2-1.8,13.7-6.3
			c4.9-6.3,6.8-14,9.6-21.3c1.2-3.1,2.1-4,5-1.7c8.7,6.7,19.2,2.7,28.8,4.3c1.1,0.2,2.5-0.9,3.5-1.7c1.4-1,2.4-1.1,4-0.3
			c9.7,4.7,13.7,4,21.3-3.6c9.7,7.7,13.4,8.2,25.1,2.5c1.8-0.9,2.7,0.4,4,0.8c3.2,1.2,6.5,3.5,10,1.7c2.6-1.3,4.8-0.8,7.1,0
			c6.2,2.1,11.2,0.4,15.2-4.4c9-10.7,15.7-22.8,22.4-35.4c2.8,2,5.9,1.8,9.1-0.2c2.2-1.4,4.9-3.8,7-1.2c1.9,2.3-0.4,5.1-1.9,7.2
			c-1.7,2.4-3.8,4.7-5.8,6.8c-3.6,3.7-7.3,7.3-10.9,11c-3.6,3.6-4.3,7.8-2.5,12.4c1.7,4.1,5.5,4.4,9.2,4.5c7.3,0.1,14.7-0.1,22,0.1
			c4.9,0.1,9.4-0.5,11.9-5.4c12.9,11.7,30.2,5.7,34.9-7.9C450.7,53.9,450.8,41.9,446.2,30.2z M426.9,60.7c-3.6-8.1-3.5-16.2,0-24.3
			C430.2,44.5,430.1,52.6,426.9,60.7z"/>
		<path class="st7" d="M248.4,126.4c12.3,4.5,21.7,12.7,29.9,22.6c10.2,12.2,22.4,20.8,38.6,22.5c15.6,1.7,25.8-2.5,31.1-17.4
			c1.1-3.1,2.6-4.7,5.7-3.8c3.4,0.9,4.7,3.1,4.2,6.7c-2.5,18.1-17.3,27.4-32.5,29.2c-21.8,2.5-40.2-5.7-56.9-18.7
			c-6.7-5.2-13.1-10.8-19.5-16.3c-10.6-9-22.6-14.4-36.6-15c-2.3-0.1-4.9-0.5-4.9-3.1c0-4.2-1.5-3.9-5-3.3
			c-20.8,3.2-41.6,6.2-62.4,8.8c-9.7,1.2-19.5,1.5-29.2,1.8c-3.3,0.1-7.1,0.5-8.9-3.9c-0.9-2.2-3.3-1.2-4.9-1.3
			c-15.2-0.5-30.1-2.7-44.6-7.1c-18-5.4-33.8-14.6-45.8-29.5C2,92.9-0.6,86.3,0.1,78.7c0.5-6.1,5.1-12.3,10.4-14.2
			c2.4-0.8,4.3-0.4,6,1.3c1.4,1.4,2.4,3.2,1.4,5.4c-3.5,8.2-1.3,15.6,3.2,22.6c7.5,11.4,18.6,17.8,31.1,22.1
			c15.5,5.3,31.7,5.6,47.9,4.8c26.3-1.4,52-7.1,78-11.4c32.9-5.4,66.1-10.2,99.6-8.1c20,1.2,40.3,3.5,56.7,16
			c12.7,9.7,28,13.5,41,22.1c5,3.3,9.8,6.9,13.7,11.6c2.5,3,3.6,6.4,0.8,9.5c-2.8,3-5.7,0.9-8.4-0.9c-7.9-5.3-16.1-10.2-24.9-13.6
			c-16-6.1-32-12.1-49.1-15C287.9,127.6,268.2,126,248.4,126.4z"/>
		<path class="st8" d="M264.4,37.9c0.6,2.3,4.1,3.5,2.2,7.2c-1.3-2.3-2.3-4.2-3.3-6.1C263.7,38.7,264,38.3,264.4,37.9z"/>
		<path class="st9" d="M225,62c5.2-3.8,9.6-6.3,11.9-11.2c1.2-2.6,2.8-4.8,4.8-7c5.4-6.1,10.7-3.7,16.4,0c1.7,1.1,1.5,2-0.2,4.9
			c-3.4-5.4-4.8-5.4-9.4-0.6c-5.3,5.6-7.8,13.3-5.8,18.5c3.1-3.5,3.8-8.2,6.5-11.7c2.5-3.3,5-6.2,9.9-4.5c2.6,0.9,3.4,1.9,1.9,4.6
			c-2.2,4-3.8,8.4-3.7,13.2c2.6,0.2,3.4-1.7,4.7-2.9c6.9-6.9,10.5-15.6,13.9-24.5c1.9-5-4.4-1.3-3.6-5c6.1-0.6,9.4-5.3,12-10.9
			c1.3-2.7,3.6-2.5,5.3-0.8c2.5,2.6,5.2,4.6,8.8,5.4c0.7,0.2,1.2,1.1,1.2,2.2c-0.6,0.1-1.2,0.3-1.8,0.4c-6.1,0.4-10.4,2.7-12.9,8.9
			c-3.2,7.9-6.8,15.5-9.1,23.7c-0.4,1.6-1.6,3.9,0.4,4.9c1.6,0.8,2.8-1.4,3.9-2.6c4.7-5,8.6-10.6,12.3-16.3c0.8-1.3,1.3-2.3,0.7-4.1
			c-1.4-4.8,1.7-10.2,6.4-12c2.7-1,4.6,0.2,6.1,2.1c1.7,2.1-1,2.7-1.8,3.9c-0.9,1.2-2.1,2.1-2.2,4c2.9,0.4,5.5-1.6,8.3-0.4
			c2.6,1.1,4.3,2,1.2,4.6c-3.9,3.5-6.9,7.6-7.6,13.1c-0.2,1.4-0.7,3.1,0.8,4.1c1.7,1.1,3.3,0.2,4.6-0.7c4.2-3.1,7.6-7,9.8-11.7
			c1.4-2.9,2.6-5.8,4.6-8.2c5.2-6.3,10.1-7,17-2.4c2.4,1.6,2.7,3.4,1.1,5.8c-4.1-5.4-5.8-5.5-10.2-0.2c-4.2,5-6.8,10.7-6.2,18.7
			c4-4.1,4.6-8.9,7.2-12.4c2.6-3.5,5.2-6.5,10.3-4.6c2.4,0.9,3.1,1.8,1.8,4.3c-1.5,2.8-2.4,5.8-3.4,8.8c-0.5,1.5-1.5,3.6,0.3,4.5
			c1.5,0.7,2.5-1.2,3.5-2.3c4.9-5.7,9.4-11.7,13.2-18.2c0.9-1.6,1.8-3.2,2.8-4.7c0.4-0.7,0.9-1.6,1.9-1c1.2,0.6,0.9,1.6,0.3,2.5
			c-5.6,8.1-9.7,17.1-16.3,24.5c-2.6,3-5.5,3.9-9.3,2.9c-3.8-1-5.2-3.5-4.9-7.4c-3.3,2-2,8.7-7.7,7.1c-3.5-1-6.8-2.7-8.6-6.4
			c-1.6,1.6-3,2.9-4.3,4.4c-3.4,3.7-7.3,4.2-11.8,2.3c-5.7-2.4-7.5-6.1-5.3-12c1.1-2.9,2.8-5.6,4.3-8.5c0.4-0.7,0.9-1.6-0.1-2.1
			c-0.8-0.4-1.7-0.4-2.3,0.4c-1,1.4-1.8,2.8-2.6,4.3c-2.9,5.1-5.7,10.2-9.4,14.7c-2.7,3.3-5.8,5.5-10.4,3.5
			c-4.2-1.9-6.5-4.6-4.3-10.4c-5.4,4.7-7.5,12.7-16,10c-3.6-1.1-4.9-3.6-4.4-7.3c-3.4,1.9-2,8.5-7.7,7.2c-6-1.4-8-4-8.5-11.3
			c-5.2,4.6-11.2,7.5-13.2,14.9c-1.7,6.2-4,12.4-7.7,17.8c-3.6,5.1-8.5,5.4-12.6,1.1c-2.5-2.6-3-5.4-0.7-8.5
			c2.9-3.9,6.4-7.3,10-10.4c3.3-2.8,4.7-6.2,5.3-10.2c-1-0.3-1.2,0.5-1.5,1c-4.6,6.8-7,7.4-13.1,1.7c-2.5-2.3-3.8-2.2-5.6,0.4
			c-4.3,6.5-14.3,4.7-17.5-1.1c-1.5,1.7-2.8,3.9-4.7,5.1c-2.4,1.6-5.5,1.9-8.1,0.2c-3-1.9-4.4-5-4-8.6c0.4-3.9,2.4-7.2,4.2-10.6
			c1-1.9,2-3.8,2.3-7c-5.4,3.4-8.4,7.8-11.2,12.3c-2,3.2-3.3,6.9-5.2,10.2c-0.8,1.4-0.7,4.2-3.4,3.4c-2.3-0.8-4.5-2-4.4-5.3
			c0.1-3.4,0.6-6.6,1.5-9.8c3.1-11.4,8.5-21.6,14.5-31.7c1.5-2.6,3.1-2.5,5.3-1.1c2.2,1.4,2.9,2.7,1.2,5.2
			c-5.3,7.7-9.9,15.8-12.7,24.8c-0.2,0.8-0.8,1.5-0.1,2.6c3.1-4.9,7.1-8.9,11.1-12.8c3.2-3.2,10-2.5,12.8,1.1
			c1.4,1.8,0.3,3.1-0.5,4.5c-2.6,4.8-5.3,9.6-7.1,14.8c-0.5,1.6-1.4,3.6,0.5,4.5c1.6,0.8,2.4-1.3,3.4-2.4c5.7-6.4,8.8-14.4,12.6-22
			c2.2-4.3,5.1-5,9.3-2.7c2.6,1.4,0.7,2.8,0,4c-3.3,5.4-6.1,11.1-7.6,17.3c-0.4,1.6-2,3.9-0.1,4.9c1.6,0.9,3.2-1.2,4.5-2.4
			c6.5-6,10.9-13.4,13.9-21.6c1.3-3.6,3.8-4.2,7.1-3.5c2.6,0.6,3.2,1.7,1.9,4.2c-3,5.8-6.1,11.5-7.3,18c-0.2,1.1-1.5,2.7,0.2,3.6
			c1.7,0.9,2.8-0.5,3.7-1.7c4.4-6.8,9.5-13.3,12.7-20.9c1.4-3.3,7.7-4.2,9.9-1.4c1,1.3-0.2,2.2-0.7,3.1
			C229.5,50.1,227.2,55.2,225,62z"/>
		<path class="st9" d="M10.7,17.3c6.2,1.6,11.7,0.9,17.2-0.9c8.1-2.6,16.2-5.3,24.7-5.8c5.2-0.3,10.3,0.2,14.3,4.3
			c3.1,3.1,3.9,6.3,1.7,10.3c-4.1,7.4-8,14.8-12.7,23.4c5.5-3.2,8.9-6.9,12.6-10.3c8.9-8.5,17.4-17.5,24-28c1.2-1.9,1.9-4.1,4.8-2.2
			c2.5,1.6,5.5,2.9,4.3,6.8c-1.2,3.8-3.8,6.6-6.5,9.4c-8,8.3-16.9,15.6-25.9,22.7c-2.2,1.8-3,2.8-0.6,5.2c3,3,4.4,7.1,5.6,11.1
			c2.9,10,7.1,19,17.4,24.1c-9.7,3.3-19.9-1.9-23-11.4C66.6,70,65.3,64,63.4,58.1c-1.7-5.4-1.7-5.1-6.4-2c-7,4.6-12.4,10.3-15.9,18
			c-0.7,1.6-1,5.3-4.1,3.5c-2.7-1.6-5.4-4.2-3.9-8.2c0.3-0.9,1-1.7,1.5-2.6c8.9-14.5,17-29.4,24.4-44.7c1.1-2.2,2.7-4.8,0.8-7
			c-1.7-1.9-4.3-0.9-6.6-0.4c-6.7,1.4-12.9,4.3-19.3,6.8c-3.9,1.5-7.8,2.7-12.1,2.7C16.8,24.2,13.4,21.9,10.7,17.3z"/>
		<path class="st10" d="M96.6,64.5c-0.3,0.5-0.6,1.1-1,1.6c-1.7,2.2-1.3,6.9-6.2,5.4c-6.3-1.9-8.8-4.8-7.9-10.2
			c1.2-6.8,3.6-13.2,8.7-18.1c4.4-4.3,12-3.9,16.1,0.7c1.2,1.4,1.7,3.4,0.1,4.4c-1.9,1.1-1.6-1.3-2.2-2.2c-0.9-1.5-2-2-3.7-1.2
			c-5,2.2-13.1,14.8-10,21.8c3.3-3.4,3.8-8.1,6.5-11.5c2.5-3.2,4.7-6.5,9.7-4.8c2.7,0.9,3.8,1.8,2.2,4.9c-2.1,4-4.1,8.2-3.4,13.1
			c2.3,0.1,3.2-1.5,4.2-2.7c6.5-7.8,12.7-15.8,16.6-25.3c0.8-2,2.1-3.7,3.7-5.3c1.2-1.2,2.4-1.8,3.8-0.4c1.3,1.3,2.8,2.5,0.9,4.6
			c-3.1,3.3-2.7,7.2-1.9,11.3c0.6,3.4,1.5,6.8,1.6,10.3c0.1,5.5-2.4,9.4-7.3,11.4c-4.8,2-9.9,2.3-13.9-1.7c-1.6-1.6-2.1-1.2-3.3,0
			c-2.8,3-6.1,2-9.2,0.9C97.6,70.1,96.8,67.7,96.6,64.5z"/>
		<path class="st11" d="M384.8,66.8c5.5,0,10.8,0,16,0c1.9,0,3.7-0.2,3.7,2.6c0,3-1.9,2.5-3.7,2.6c-7.5,0-15,0.1-22.5,0
			c-1.3,0-3.2,0.8-3.8-1.3c-0.5-1.7,0.5-2.8,1.6-3.9c5.2-5.4,11-10.3,15.5-16.2c1.5-2,3-4,4-6.3c1.9-4.3,2.5-8.9-1.2-12.5
			c-3.8-3.6-8.2-2.5-12.6-1c-1.5,0.5-3.3,4.1-5,0.1c-1.5-3.4,1.6-3.9,3.5-4.8c7-3.4,15.3-2.4,19.6,2.1c4.4,4.7,4.8,12.3,0.7,19.6
			c-2.9,5.3-7.3,9.5-11.4,13.9C387.7,63.1,385.6,64.1,384.8,66.8z"/>
		<path class="st12" d="M203.1,29c-0.1,1.4-8.8,9.8-9.9,9.6c-1.7-0.4-3.3-1.2-2.8-3.3c0.8-3.2,1.8-6.3,3.5-9.2
			c1.2-2.1,2.9-1.2,4.3-0.6C200.1,26.3,202.4,26.8,203.1,29z"/>
		<path class="st13" d="M363.6,22c1.9,0,3.5-0.1,3.3,2.5c-0.4,3.9-0.6,7.9-0.8,11.9c-0.1,1.7-0.4,2.9-2.5,2.8c-1.9-0.1-2-1.4-2-2.8
			c-0.3-4-0.4-7.9-0.8-11.9C360.4,22,362,22,363.6,22z"/>
		<path class="st8" d="M403.9,54.9c2,5.1,2,5.1-3.1,4.9C401.2,57.8,402.8,56.8,403.9,54.9z"/>
		<path class="st10" d="M387,158.3c-10.1-7-20.1-12.6-30.7-16.9c-19.8-8-40.2-13.9-61.5-16.5c-17.1-2.1-34.1-3.2-51.3-2.7
			c-22.1,0.7-44,3.7-65.8,7.3c-21.8,3.5-43.7,6.5-65.9,6.8c-1.6,0-3.3,0-4.9-0.4c7.1-2.3,14.6-1.7,21.8-2.4
			c20.5-1.9,40.8-5.5,61.1-8.6c22.7-3.5,45.3-6.8,68.2-8c21.4-1.1,42.5,0.1,63.3,5.3c3.5,0.9,6.9,2.9,11.6,2.5
			c-4.8-4.7-10.3-6.7-15.6-8.5c-18.8-6.3-38.2-6.6-57.7-5.2c-21.9,1.5-43.5,5.2-65.2,8.6c-21.2,3.3-42.1,8.2-63.4,10.4
			c-29.4,3-58.6,2.2-86.5-8.9c-13.6-5.4-25.8-13.3-34.9-25c-6.1-7.8-7.3-16.7-3.3-22.7c0.9-1.4,2.1-2.6,3.3-3.6c1-0.8,2.2-1.9,3.6-1
			c1.6,1.1,0.1,2.4-0.2,3.5c-2,8-0.5,15.5,3.7,22.5c8.1,13.4,20.8,20.7,35.2,25.5c15.8,5.2,32.1,5.6,48.4,4.8
			c26.3-1.3,52-6.7,77.9-11.1c31.2-5.3,62.5-9.8,94.2-8.6c18.5,0.7,36.9,2.7,53.6,11.6c1.3,0.7,2.8,1.2,3.9,2.1
			c9.4,8.5,21.1,13,32.4,18.2c8,3.7,15.7,8,21.9,14.5C385.7,153.2,387.6,154.7,387,158.3z"/>
		<path class="st9" d="M211.7,131c19.7-4.5,38.4-3.9,54.3,10.9c7.6,7.2,13.7,15.9,22.2,22.2c12.4,9.2,26.2,13.3,41.6,11.1
			c10.5-1.5,17.3-7.7,21.3-17.4c0.5-1.1,0.2-2.8,1.9-3.2c1.3,7.9-3.8,17.2-12.1,22.1c-13.5,7.9-27.5,7-41.8,2.8
			c-15.5-4.5-27.5-14.4-39.3-24.6c-9.2-7.9-18.5-15.6-30.2-19.8C223.6,132.9,217.3,133.9,211.7,131z"/>
		<path class="st14" d="M210.6,79.1c-1.7,3.7-3.4,7.4-5.2,11c-0.9,1.7-2.4,3-4.4,1.8c-2.3-1.4-0.9-3,0.1-4.6
			C203.3,83.8,206.6,81.3,210.6,79.1z"/>
		<path class="st15" d="M124,50.2c1.4,5.9,2.3,11.1,0,16.1c-0.7,1.7-2,3.2-4,3.3c-1.1,0.1-1.9-0.7-2.3-1.7c-0.9-2,0-3.7,1.4-4.9
			c1.5-1.3,2.1-1.8,0.1-3.4c-1.2-0.9,0.8-2.5,1.5-3.7C121.6,54.2,122.6,52.5,124,50.2z"/>
		<path class="st10" d="M442.5,49.9c0-6.2-0.2-11.2-2.1-15.9c-2.3-5.7-5.9-9.6-12.4-9.9c-6.1-0.3-11.4,2.9-14,9.3
			c-4.2,10.3-4.1,20.8,0.2,31c2.3,5.5,6.5,8.8,12.7,8.6c6.3-0.2,10.5-3.5,13-9.2C442,59,442.6,53.9,442.5,49.9z M426.9,60.7
			c-3.6-8.1-3.5-16.2,0-24.3C430.2,44.5,430.1,52.6,426.9,60.7z"/>
		<path class="st7" d="M434.3,35.1c-1.2-3.2-3-6-7-6.2c-4.2-0.1-6.5,2.7-7.7,6c-3.3,9.1-3.2,18.3,0,27.4c1.2,3.3,3.4,5.8,7.4,5.7
			c3.9-0.1,6-2.7,7.2-6c1.6-4.2,2.2-8.7,2.2-14.3C436.5,44.2,435.9,39.5,434.3,35.1z M426.9,60.7c-3.6-8.1-3.5-16.2,0-24.3
			C430.2,44.5,430.1,52.6,426.9,60.7z"/>
	</g>
</g>
</svg>
