<?xml version="1.0" encoding="utf-8"?>
<!-- Generator: Adobe Illustrator 21.1.0, SVG Export Plug-In . SVG Version: 6.00 Build 0)  -->
<svg version="1.1" id="Layer_1" xmlns="http://www.w3.org/2000/svg" xmlns:xlink="http://www.w3.org/1999/xlink" x="0px" y="0px"
	 viewBox="0 0 2235 715.3" style="enable-background:new 0 0 2235 715.3;" xml:space="preserve">
<style type="text/css">
	.st0{clip-path:url(#SVGID_2_);}
	.st1{fill:#171C30;}
	.st2{fill:#2B3652;}
	.st3{fill:#0B1C42;}
</style>
<title>phone-gr</title>
<g id="Layer_2">
	<g id="Layer_1-2">
		<g>
			<g>
				<g>
					<defs>
						<rect id="SVGID_1_" x="118.5" y="-2522.2" width="1924" height="3118"/>
					</defs>
					<clipPath id="SVGID_2_">
						<use xlink:href="#SVGID_1_"  style="overflow:visible;"/>
					</clipPath>
					<g class="st0">
						<path class="st1" d="M1803.9,128.8c11.1,7.3,20,17.6,25.6,29.7c-1.8-4-3.7-8.1-3.6-12.5s2.8-9,7.1-9.8
							c4.5-0.9,8.9,2.9,10.4,7.2s0.8,9.1,0.2,13.6c-0.3-23.4,3.2-46.8,10.5-69.1c9.3,22.7,13.1,47.3,11,71.7l19.4-26.8l1.6,22.3
							l21.2-38.2c7.7,17.2,7.7,36.9,0,54.1c4.2-2.2,5.4-7.4,7.3-11.7s6.3-8.7,10.6-6.8c3.9,1.7,4.2,7,4,11.2
							c-0.7,11.5-2.3,24.6-11.7,31.2c-7.3,5.1-17.1,4.5-25.9,3.1c-18.2-2.9-44.7-8.4-58.8-19.6c-7.4-5.8-13.4-15.1-18-23.1
							c-2.4-4.2-4.5-8.5-6.3-13C1807.4,140.1,1805.7,129.9,1803.9,128.8z"/>
						<path class="st1" d="M1923.5,172.2c-1.3-5-2-11.6,2.6-14.2c3.2-1.8,7.4-0.3,9.8,2.4s3.4,6.4,4.3,9.9
							c-2.4-14.2-0.7-28.7,4.8-42c8,12,11.8,26.4,10.5,40.8l12.3-21.8l4.4,17.9c1.6-22.6,8.6-44.5,20.6-63.7c5.6,24.6,6.6,50,2.8,75
							c2.8-9.7,8.4-18.4,16-25c4,7.1,4.6,15.6,1.6,23.1l28.1-41.9c3.1,14.8,2,30.1-3.1,44.3c-0.2-4.1,2.4-8.7,6.5-9.3
							c4.1-0.6,8.1,4.7,5.6,8L2067,140l5.1,36.4c1.7-6.2,6.6-11,12.9-12.5c8.8,8.9,8.7,23.2-0.1,32c-2.9,2.9-6.5,4.9-10.5,5.9
							c-10.3,2.5-20.8-2.3-30.8-5.8c-26.5-9.2-55.4-9.7-82.2-1.2c-5.3,1.7-10.6,3.7-16.1,4.1
							C1927.6,200.2,1926.8,185.4,1923.5,172.2z"/>
						<polygon class="st2" points="75,276.3 2148,348.3 2072,691.3 65,715.3 						"/>
						<polygon class="st2" points="2126,216.3 1095,351.3 1223,533.3 2198,357.3 						"/>
					</g>
				</g>
			</g>
		</g>
	</g>
</g>
<polygon class="st3" points="74.6,-401.3 2028.7,-401.3 2081.8,1999.1 127.6,1999.1 "/>
</svg>
