<?xml version="1.0" encoding="utf-8"?>
<!-- Generator: Adobe Illustrator 21.1.0, SVG Export Plug-In . SVG Version: 6.00 Build 0)  -->
<svg version="1.1" id="Layer_1" xmlns="http://www.w3.org/2000/svg" xmlns:xlink="http://www.w3.org/1999/xlink" x="0px" y="0px"
	 viewBox="0 0 2235 715.3" style="enable-background:new 0 0 2235 715.3;" xml:space="preserve">
<style type="text/css">
	.st0{clip-path:url(#SVGID_2_);}
	.st1{fill:#0B1C42;}
	.st2{clip-path:url(#SVGID_4_);}
	.st3{fill:#03102D;}
	.st4{fill:#232B44;}
</style>
<title>phone-gr</title>
<g id="Layer_2">
	<g id="Layer_1-2">
		<g>
			<g>
				<g>
					<defs>
						<rect id="SVGID_1_" x="118.5" y="-2522.2" width="1924" height="3118"/>
					</defs>
					<clipPath id="SVGID_2_">
						<use xlink:href="#SVGID_1_"  style="overflow:visible;"/>
					</clipPath>
					<g class="st0">
						<polygon class="st1" points="75,276.3 2148,348.3 2072,691.3 65,715.3 						"/>
						<polygon class="st1" points="2126,216.3 1095,351.3 1223,533.3 2198,357.3 						"/>
					</g>
				</g>
			</g>
		</g>
	</g>
</g>
<g id="Layer_2_2_">
	<g>
		<g>
			<g>
				<g>
					<defs>
						<rect id="SVGID_3_" x="118.5" y="-594.2" width="1924" height="1080"/>
					</defs>
					<clipPath id="SVGID_4_">
						<use xlink:href="#SVGID_3_"  style="overflow:visible;"/>
					</clipPath>
					<g class="st2">
						<path class="st3" d="M23.5,187.8c424.8-42,762.3-40.1,995-30c214.5,9.3,489.8,31.9,937,36c115.5,1,210.4,0.6,273,0l6,441
							l-2235-15L23.5,187.8z"/>
						<path class="st3" d="M92.5,108.8c7.8-5.6,27.2,6.5,37,15.5c6.3,5.9,11.4,12.9,14.9,20.8c7.6-19.5,16.4-38.5,26.6-56.8
							c11.1-20,15.5-24.2,18.5-23.5c3.4,0.8,5.2,7.8,6.6,34.3c1.2,21.8,1.2,39.7,1,51.7c6.5-1.8,12.5-5.3,17.4-10
							c5.7-5.7,6.1-9.9,10.7-16.8c7-10.5,20.4-22.1,26.3-19.2c5.2,2.5,3.7,15.5,1,39c-1.4,12.4-2.2,18.8-5,25
							c-4.8,10.5-12.6,19.2-22.5,25.2c-9.1,5.4-18.1,7-29,7.8c-30.1,2.1-53.3,3.7-73.6-10C89.4,169.4,80.9,117.1,92.5,108.8z"/>
						<path class="st3" d="M266.2,189.3c-9.1-0.6-16.3-7.9-21.7-15.3c-19.7-27.5-26.9-61.9-20.1-95c10.9-2.2,20.8,7.6,25.4,17.7
							s6.5,21.7,13.5,30.5c2.3-36.8,12.8-72.5,30.9-104.6c1.5-2.7,3.7-5.7,6.8-5.5c3.8,0.2,5.4,5,5.9,8.8c4.3,31.6,3.9,63.6-1,95.2
							l26.4-48.5c1.7-3.2,3.5-6.4,6.3-8.8s6.7-3.6,10.1-2.2c5,2.1,6.1,8.7,6.1,14.1c-0.1,18.4-4.4,36.5-12.6,53l34.3-30.9
							c3.4,14.3,6.9,28.9,6.1,43.6s-6.4,29.8-18,38.8c-10,7.7-23.1,10-35.6,11.1c-25.9,2.2-51.9,0.3-77.2-5.6"/>
						<path class="st3" d="M344.8,128.8c1-8.7,10.4-14.5,19.1-14.6s17,3.8,24.8,7.7c0.1-11.8,9.8-21.2,21.6-21.1
							c3.8,0,7.6,1.1,10.8,3.1c-6.7-20.8-10.3-42.4-10.5-64.2c-0.1-7.8,0.3-15.9,3.9-22.8s11.1-12.4,18.8-11.3
							c9.5,1.4,15,11.3,18.2,20.3c8.2,22.5,11.8,46.4,10.6,70.3c3.4-11.1,10.3-20.8,19.6-27.8c3.3-2.5,7.4-4.7,11.5-4
							c5.7,0.9,9.2,7.2,9,12.9s-2.9,11-5.6,16.1c4.1-5.5,8.3-11.1,14.1-14.6s13.7-4.6,19.3-0.7s7.4,11.4,7.3,18.2
							s-1.8,13.6-1.2,20.4l19.6-2.4c4.8-0.6,9.6-1.2,14.4-2c12.2-2.2,24.3-6.1,34.2-13.5c5.4,9.8,9.8,20.4,10.6,31.5
							s-2,22.9-9.5,31.2c-10.9,12.1-28.7,14.5-44.9,15.9c-51.4,4.4-103,5.4-154.5,6.4c-10.3,0.2-21,0.3-30.3-4.1
							c-10.7-5-13.4-15.1-18-24.9C353.7,146.4,343.6,139,344.8,128.8z"/>
						<polygon class="st1" points="75.6,281.8 2163.8,368.9 2082.9,751 28.5,708.3 						"/>
						<path class="st3" d="M1746.8,177.3c6.5-1.1,13.2,1.1,17.8,5.8c-1.4-3,0-6.6,3-7.9c3-1.4,6.6,0,7.9,3c0.2,0.4,0.3,0.9,0.4,1.3
							c-0.4-4.7-0.8-9.5,0.8-13.8s6-8.1,10.6-7.4c3.4,0.5,6.1,3.3,7.6,6.4s1.7,6.7,2,10.1c-0.9-2.5,0.5-5.2,3-6c2.5-0.9,5.2,0.5,6,3
							c0.3,0.8,0.3,1.8,0.1,2.6l13.4-12.7c2.6-2.4,5.3-4.9,8.7-5.7c5.3-1,10.4,2.4,11.4,7.7c1,5-2.1,9.9-7.1,11.2
							c3.2-4.2,9.7-5.4,14.3-2.9c4.7,2.8,7.2,8.2,6.2,13.5c-1.3,6.8-7.6,11.8-14.3,13.7c-6.9,2-14.2,1.6-21.4,1.2l-49-3
							c-4.2-0.3-11.3,0.6-14.8-2.2C1749.2,191.7,1748.3,182.3,1746.8,177.3z"/>
						<polygon class="st4" points="2063,226.5 933.5,223.8 172.4,269.9 2230.6,346.8 						"/>
						<path class="st3" d="M1803.4,134.3c11.1,7.3,20,17.6,25.6,29.7c-1.8-4-3.7-8.1-3.6-12.5s2.8-9,7.1-9.8
							c4.5-0.9,8.9,2.9,10.4,7.2s0.9,9.1,0.2,13.6c-0.3-23.4,3.2-46.8,10.5-69.1c9.3,22.7,13.1,47.3,11,71.7l19.4-26.8l1.6,22.3
							l21.2-38.2c7.7,17.2,7.7,36.9,0,54.1c4.2-2.2,5.4-7.4,7.3-11.7s6.3-8.7,10.6-6.8c3.9,1.7,4.2,7,3.9,11.2
							c-0.7,11.5-2.3,24.6-11.7,31.2c-7.3,5.1-17.1,4.5-25.9,3.1c-18.2-2.9-44.7-8.4-58.8-19.6c-7.4-5.8-13.4-15-18-23.1
							c-2.4-4.2-4.5-8.5-6.3-13C1806.9,145.6,1805.2,135.4,1803.4,134.3z"/>
						<path class="st3" d="M1923,177.7c-1.3-5-2-11.6,2.6-14.2c3.2-1.8,7.4-0.3,9.8,2.5c2.4,2.7,3.4,6.4,4.4,9.9
							c-2.4-14.2-0.7-28.7,4.9-42c8,12,11.7,26.4,10.5,40.8l12.3-21.8l4.4,17.9c1.6-22.6,8.7-44.5,20.6-63.7c5.6,24.6,6.6,50,2.8,75
							c2.8-9.7,8.4-18.4,16-25c4,7.1,4.6,15.6,1.6,23.1l28.1-41.9c3.1,14.8,2,30.1-3.1,44.3c-0.2-4.2,2.4-8.7,6.5-9.3
							c4.1-0.6,8.1,4.7,5.6,8l16.6-35.6l5.1,36.4c1.7-6.2,6.6-11,12.9-12.5c8.8,8.9,8.8,23.2-0.1,32c-2.9,2.9-6.5,4.9-10.5,5.9
							c-10.3,2.5-20.7-2.3-30.7-5.8c-26.6-9.2-55.4-9.7-82.2-1.2c-5.3,1.7-10.6,3.7-16.1,4.1C1927.2,205.6,1926.4,191,1923,177.7z"
							/>
					</g>
				</g>
			</g>
		</g>
	</g>
</g>
</svg>
