<?xml version="1.0" encoding="utf-8"?>
<!-- Generator: Adobe Illustrator 21.1.0, SVG Export Plug-In . SVG Version: 6.00 Build 0)  -->
<svg version="1.1" id="Layer_1" xmlns="http://www.w3.org/2000/svg" xmlns:xlink="http://www.w3.org/1999/xlink" x="0px" y="0px"
	 viewBox="0 0 2563.7 1239.1" style="enable-background:new 0 0 2563.7 1239.1;" xml:space="preserve">
<style type="text/css">
	.st0{clip-path:url(#SVGID_2_);}
	.st1{fill:#172C51;}
	.st2{opacity:0.3;fill:#06142D;enable-background:new    ;}
</style>
<title>phone-mt</title>
<g>
	<defs>
		<rect id="SVGID_1_" x="279" y="0" width="1924" height="1238.8"/>
	</defs>
	<clipPath id="SVGID_2_">
		<use xlink:href="#SVGID_1_"  style="overflow:visible;"/>
	</clipPath>
	<g class="st0">
		<path class="st1" d="M178.5,512.4c14-6.3,27.7-11,41.4-18.6c21.5-11.9,42.3-25.1,63.9-36.9c23.3-12.9,47.8-26.8,66.9-45.6
			c8.5-8.3,17.2-16.1,26.4-23.6c4.2-3.4,12.2-4.9,13.2-11c9.5-1.6,19.4,0.4,28.9-0.1c10.5-0.6,15.2-8.8,19.2-17.4
			c13.5-28.8,33.3-54.2,58.1-74.2c7.1-5.7,13.9-13.8,21.8-18.2c6.7-3.8,13.6-5.6,20.1-10.3c10.2-7.4,19.7-14.4,26.2-25.4
			c4.3-7.3,8.1-15,12-22.6c2.6-5,7.3-12.1,7.6-18.4c8.3,1.3,16.9,4.1,23.3,9.8c2.8,2.6,5.9,5.1,9,7.4c2.8,1,5.6,2.1,8.4,3.2
			c8.5,4.4,17.2,6.1,27,6c13.8-0.1,27.6,1.8,40.7-3.4c5.4-2.3,10.6-4.9,15.8-7.7c8.8-4.8,17.1-10.5,24.7-17.1
			c9.2-7.8,16.8-18.4,25.4-27.1c9.8-9.9,18.3-20.3,26.9-31.1c5.6-7.1,11.7-12.4,18.3-18.5c7.3-6.7,12.4-15.2,18.5-23
			c14.3-18,28-36.1,41.7-54.6c8.5-11.6,19-21.5,26-34l3,2.2c4.9,8.5,10.4,16.7,16.4,24.5c10.8,13.7,23.5,25.6,38.5,34.6
			c8.4,5,17.5,7.4,26,12c13.9,7.5,26.4,13.7,42.2,16.3c11.7,1.9,23.3,2.8,34.5,7c22.8,8.6,38,25.3,54.5,42
			c6.4,6.4,12.2,12.8,21.4,14c10.3,1.3,20.2,2.6,30.4,5.4c13,3.6,26,7,39,10.4c14.5,3.9,27.3,5.6,38.9,15.5
			c9.4,8,16.3,20.4,27.9,25.6c10.9,4.9,25.7,5.8,37.5,7.4c12.5,1.7,20.5,6.1,31.7,12.7c28.8,17,56.1,36.2,85.6,52
			c40.8,21.9,86.9,39.9,132.6,47.2c10.2,1.8,20.6,2.4,30.9,1.6c5.3-0.3,8.5-0.3,13.2,2.8c5.3,3.5,8.6,9.3,13.8,12.8
			c4.2,2.9,9.2,3.5,14.1,4.1c15.1,1.9,26.6,1.3,40.2-5.7c11.4-5.8,21.6-12.4,33.9-16.2c3.8-1.1,7.6-2.4,11.3-4
			c5.3-2.4,13.1-9.4,18.8-10.2c7-1,12.1,3.2,17.4,7.3l10.9,10.2c6.6,5.8,13.7,10.9,21.4,15.1c8.7,6.1,15.4,14.7,24.6,20.2
			c7.8,4.7,17.1,6.5,25.8,8.8c24,6.3,46.7,13.4,70.1,22c15.6,5.8,31.3,12,47.1,17.4c6,2.1,11.1,2,16.7,3.5
			c10.1,2.8,21.8,15.9,29.6,21.3c13.9,9.7,28.4,16,43.9,22.5c27.9,11.7,57,19.9,85.8,29.1c41.5,13.3,83.1,26.1,125.4,36.9
			c30.6,7.9,61.8,14,93.1,18.1c9.3,1.2,18.3,2.7,27.4,4.2c7.5,1.3,16,1.7,23.6,2.3c12.6,0.9,27,1.7,39.2,5.1
			c7.9,2.3,7.4,3,14.3,11.4c18.2,22.2,32.1,48.6,43.3,74.8c13,30.4,17.6,59.2,23,91.6c4.6,27.3,10.3,54.1,15.7,81.2
			c6.1,28.5,11,57.2,14.8,86.1c6.5,40.2,12.8,80.5,19,120.7c2.9,22.2,9.8,45.3-1.2,65.9l-12.8,18.4c-12,16-24.8,31.3-38.3,46
			c-19.9,18.4-45.5,27.3-70.6,36.1c-27.8,9.8-48.1,13.5-79.7,17l-88.2,4.4c-71.9,1.3-143.9,1.7-215.8,1
			c-72.8-0.2-146.5-3.3-219.3,0.9c-44.3,2.5-87.7,10.6-131.8,14.5c-72.5,6.3-146.2,2.7-218.8,2.4c-26.2-0.1-52.3-0.6-78.6,1.4
			l-35.4,3.9c-37.2,3.1-74.6,4.1-111.9,3.1c-151.3,0.3-302.5-0.2-453.8-0.2c-85.2,0-170.4,0.1-255.6,0.3c-59.5,0.2-117.5-3-176.5-11
			c-41.7-5.6-87.9-9.9-127.7-25.2c-22.3-8.6-43.6-20.6-65.6-30.1c-7.9-2.5-15.2-6.3-21.8-11.3c-10-11.9-18.9-24.6-26.9-38
			c-11-16.3-21.9-34.6-34.9-49.3c-12-13.4-28.5-19.9-42.2-31.5c-20.8-17.8-33.1-39.5-41.4-65.4c-6.3-19.8-9.4-40.5-9.3-61.3
			c-0.2-30.2-0.3-60.3-0.4-90.5c0.4-29.3-0.4-59.5,10.7-87.1c2.6-8.6,7.2-16.5,13.4-23c11.4-15.8,22.7-31.7,34-47.6
			c10.4-14.2,20.9-25.1,33.1-37.4s21.5-24.3,28.3-40.2c6.7-15.6,14.7-30.5,23-45.3c4.5-8,9-18.6,18.6-21.7c3.2-1,5.7-0.8,8.9-2.2
			C174.4,518.7,180.8,515.5,178.5,512.4z"/>
		<path class="st2" d="M1729.5,325.4c4.4-2.5,10.5,8.5,12.9,11.7c3.2,4.1,7.5,7.2,11.1,10.8c1.7,1.7,2.7,4,4.5,5.5
			c1.2,1,2.5,1.6,3.7,2.7c3.5,3.1,7.2,5.7,10.5,9c2.8,3,6,5.6,9.5,7.8c4.2,2.6,9.4,1,13.9,2.9c1.1,0.5,2.3,2.1,3.5,2.4
			c1.3,0.2,2.7,0.3,4,0.2c4.7,0.4,9.2,2.1,13.8,2.7c5.7,0.8,11.4,1.4,17,2.3c6.6,1.1,13.9,5.5,19.7,8.4c4.2,2,8.1,4.2,12.1,6.4
			c7.1,3.8,15.3,5,22.6,8.5c4.1,2,8.5,2.9,12.9,3.7c7,1.3,13.9,3,20.7,5.1c4.3,1.4,9.6,2.9,13.6,4.9c1.8,0.9,3.6,2,5.5,2.8
			c1,0.5,2.2,0.8,3.3,1c2.1,0.2,4.2,0.9,6,2c2.2,1.1,4.6,1.9,6.8,3.1c3.1,1.7,5.9,4.5,8.6,6.8c6.7,5.8,12.7,12.3,18.8,18.7
			c2.7,2.8,5.5,3.9,9.2,5.4c9.8,4.3,19.8,8.4,29.4,13.1c5.4,2.7,11.6,4.4,17.2,6.7c8.1,3.4,15.9,7.1,24.3,9.2
			c2.2,0.7,4.3,1.5,6.4,2.5c8.8,3.6,18.1,6.1,27.2,8.7c8.4,2.4,16.9,5.8,25.5,7.7c6,1.3,11.7,3.2,17.6,5.1c7,2.3,14.2,3.7,21.2,5.9
			c14.2,4.5,28.4,8.9,42.6,13.5c12.1,4,24.8,6.3,36.6,11.1c2.6,1.1,8.5,2.1,4.8,5.6c-3.1,3-8.2,2-12.1,2
			c-13.3-0.2-26.5,0.4-39.8-1.1c-12.7-1.4-25.7-2.2-38.3-4.9c-8.5-1.8-16.6-4.9-25.2-6.2c-9.1-1.4-18.5-2.1-27.7-2.8
			c-9-0.6-18,0.2-27-0.6c-13.8-1.2-27.4-6.1-40.5-10.5c-14.9-5.1-28.8-12.9-44.7-14.8c-7.2-0.9-14.8-2.1-21.2,1.9
			c-1.7,1.1-2.7,2.9-4.3,4c-2.5,1.7-6.3,0.9-9.2,0.9c-9.9-0.1-19.9,0.4-29.8,0c-2.8-0.1-5-1.2-7.7-2.2c-7.6-2.8-15.7-4.2-23.8-3.9
			c-6.6,0.1-13.1-0.2-19.6,0.7s-12.4,3.7-18.8,5.1c-7.4,1.6-14.6,1.3-22.1,1.3c-2.6,0-4.7,0.3-7.1-1c-6.6-3.6-9.6-12.4-16.5-15.4
			c-1.8-0.8-3.8-0.7-5.8-0.9c-6.4-0.5-12.9-0.6-19.3-0.9c-5.7-0.3-13.7,0.5-17.6-4.8c-2.8-3.8-4.1-9.8-5.2-14.4
			c-2.5-10.1-4.2-20.4-7.5-30.3c-5.3-16.1-16.6-31-17.1-48.4c-0.2-8.2-1.7-16.3-2.8-24.5c-0.5-4.2-1.4-8.3-2.8-12.2
			c-1-2.9-1.2-6.2-1.9-9.2c-1.1-4.1-1.3-7.9-2-12C1727.7,338.2,1727.9,331.7,1729.5,325.4z"/>
		<path class="st2" d="M888.5,34.4c-3.7,4.8-3.3,12.7-3.9,18.3c-1,9.3-3,18.5-6,27.4c-1.2,3.6-2.8,7.1-4.2,10.7
			c-1.6,4.3-1.1,8.5-2.3,12.6c-1,3.5-3,6.7-4,10.3c-1.3,4.3-3.2,8.5-5.6,12.3c-1.9,2.9-5.3,5.2-6.9,8.3c-1.8,3.4-1.4,8-2.1,11.9
			c-2,11.9-0.7,24.2-1,36.3c-0.1,5.6-1.1,10.9,1.3,16.3c5.2,11.7,14.5,22,22.3,31.9c4.1,5.2,2.3,12,2.4,18.5c0.1,5.4,0,8.4-2.5,13.5
			c-2.3,4.8-2.6,9.6-4.4,14.4c-2.7,7.4-6.2,12.8-7,21.1c-0.5,4.8-1.5,9.2-2.2,14c-2.2,14.3-5.8,36,3.8,48.3
			c12.7,16.4,29.2,29.3,43.5,44.2c10.1,10.6,20.4,20.6,31.5,30.2c12.6,11,26.2,21.8,35.1,36.2c7.2,11.7,14.2,23.8,22.8,34.5
			c8.2,10.2,17.4,19.6,25.8,29.5c7.9,9.3,15.5,18.5,25.6,25.5c8.8,6.1,17.8,11,26.5,17.5s17.4,13.3,26.5,19.4
			c6.6,4.4,13.5,8.4,20.5,12.1c10.9,5.7,22.9,9.6,33,16.7c15.8,11.1,30.7,23,47,33.5c22.8,14.7,37.7,28.3,51.6,35
			c47.3,22.8,119.3,7.5,127.1-19.6c5.7-19.7-26.3-34.3-70-93.5c-20.1-27.2-30.2-60.8-53-86.3c6.7-3.2,14.8,2,20.9,4.6
			c8.2,3.5,16.2,7.4,24.4,10.6c14.8,5.7,30.4,7.8,45.2,13.2c8.6,3.1,17.8,1.7,26.3,4.8c6.6,2.4,12.3,6.9,17.9,11
			c10.9,7.9,21.8,15.8,32.8,23.5c8.5,5.9,17,11.3,25,17.6c9.6,7.6,21.2,13.6,31.8,19.6c21.1,11.6,43,21.7,65.5,30.1
			c19.2,7.3,37.7,15.9,56.4,24.3c7.2,3.2,13.8,4.4,21.2,6.2c-15.5-8.8-26.1-24.1-37.3-37.4c-7-8.5-14.4-16.6-22.2-24.4
			c-8.3-7.3-16.7-14.6-25-21.9c-14.7-14-26.5-30-42.2-42.9c-17.1-14.1-35.7-26.9-54-39.5c-12.2-8.4-24.8-15.5-36.2-25.1
			c-7-5.9-15.1-11.1-18.3-20.2c-4.2-12-2.7-25.5-7.3-37.4c-3.2-6.1-6.5-12.2-9.8-18.2c-0.7-3.3-1-6.6-0.8-10
			c-0.7-10.5-0.9-11.9,10.8-11.9c12.6,0,24.4-0.1,36.9-1.3c14.3-1.4,29.5,2,43.3-2.4c6.2-2,11.4-1.4,17.7-2.4
			c5.3-0.8,10.4-2.5,15.6-3.2c10.1-1.4,21.9,1.9,31.7-0.6c-14-7.1-29.9-8.2-44.4-13.7c-6.7-2.5-13.3-3-20.1-4.5
			c-10.5-2.3-22.2-8.9-31.8-13.2c-13.7-6.2-26.3-14-39.4-21.2c-10-5.5-20.3-10.3-29.9-16.6c-17-11.2-35.8-18.9-53.7-28.6
			c-12.7-6.9-25.7-12.8-39-18.5c-15.1-6.4-31.4-9.2-47.1-13.7c-10.6-3.1-18.3-10-24-19.7c-4.2-7.2-10.2-13.8-18-17.6
			c-6-3-14-2.2-20.5-3.4c-8.4-1.7-16.9-2.7-25.5-3c-14.2-0.5-37.8,0.3-50.8-7.6c-15-9.2-17.3-28.2-25.6-42.3
			c-2.8-4.8-7.1-13.3-12.7-15.7c-3.6-1.5-8.9-2.2-12.7-2.5c-4.9-0.4-9.9,0.4-14.8,0.2c-10.1-0.3-19.8-2.4-30-2.1
			c-5.1,0.1-9.9,0.9-14.5-2c-7.2-4.5-13.6-11.6-20-17.2C945.5,90,936,80.4,924,73.2c-4.2-2.5-7.4-4.1-11.1-7.6
			c-3.3-3.1-7.3-7.7-11.9-9c-2.7-0.8-3.9,0.4-6.4-1C891.5,54.1,890.9,48.8,888.5,34.4z"/>
	</g>
</g>
</svg>
