<?xml version="1.0" encoding="iso-8859-1"?>
<!-- Generator: Adobe Illustrator 19.0.0, SVG Export Plug-In . SVG Version: 6.00 Build 0)  -->
<svg xmlns="http://www.w3.org/2000/svg" xmlns:xlink="http://www.w3.org/1999/xlink" version="1.1" id="Layer_1" x="0px" y="0px" viewBox="0 0 512 512" style="enable-background:new 0 0 512 512;" xml:space="preserve" width="512" height="512">
<g>
	<g>
		<path d="M256,223.652c-25.077,0-45.479,20.402-45.479,45.479c0,25.078,20.402,45.48,45.479,45.48s45.479-20.402,45.479-45.48    C301.479,244.054,281.077,223.652,256,223.652z M256,299.612c-16.807,0-30.479-13.674-30.479-30.48s13.673-30.479,30.479-30.479    s30.479,13.673,30.479,30.479S272.807,299.612,256,299.612z"/>
		<path d="M67.964,343.58h53.468c8.521,0,15.455-6.933,15.455-15.454v-53.468c0-8.521-6.934-15.455-15.455-15.455H67.964    c-8.521,0-15.454,6.934-15.454,15.455v53.468C52.51,336.648,59.443,343.58,67.964,343.58z M121.887,274.659v53.468    c0,0.25-0.204,0.454-0.455,0.454h-19.233v-54.377h19.233C121.683,274.204,121.887,274.408,121.887,274.659z M67.51,274.659    c0-0.251,0.204-0.455,0.454-0.455h19.234v54.377H67.964c-0.25,0-0.454-0.204-0.454-0.454V274.659z"/>
		<path d="M459.49,274.659c0-8.521-6.933-15.455-15.454-15.455h-53.468c-8.521,0-15.455,6.934-15.455,15.455v53.468    c0,8.521,6.934,15.454,15.455,15.454h53.468c8.521,0,15.454-6.933,15.454-15.454V274.659z M390.113,328.126v-53.468    c0-0.251,0.204-0.455,0.455-0.455h19.233v54.377h-19.233C390.317,328.58,390.113,328.376,390.113,328.126z M444.49,328.126    c0,0.25-0.204,0.454-0.454,0.454h-19.234v-54.377h19.234c0.25,0,0.454,0.204,0.454,0.455V328.126z"/>
		<path d="M52.51,437.346c0,8.521,6.933,15.454,15.454,15.454h53.468c8.521,0,15.455-6.933,15.455-15.454v-53.468    c0-8.521-6.934-15.455-15.455-15.455H67.964c-8.521,0-15.454,6.934-15.454,15.455V437.346z M121.887,383.878v53.468    c0,0.25-0.204,0.454-0.455,0.454h-19.233v-54.377h19.233C121.683,383.423,121.887,383.627,121.887,383.878z M67.51,383.878    c0-0.251,0.204-0.455,0.454-0.455h19.234V437.8H67.964c-0.25,0-0.454-0.204-0.454-0.454V383.878z"/>
		<path d="M444.036,368.423h-53.468c-8.521,0-15.455,6.934-15.455,15.455v53.468c0,8.521,6.934,15.454,15.455,15.454h53.468    c8.521,0,15.454-6.933,15.454-15.454v-53.468C459.49,375.357,452.557,368.423,444.036,368.423z M390.113,437.346v-53.468    c0-0.251,0.204-0.455,0.455-0.455h19.233V437.8h-19.233C390.317,437.8,390.113,437.596,390.113,437.346z M444.49,437.346    c0,0.25-0.204,0.454-0.454,0.454h-19.234v-54.377h19.234c0.25,0,0.454,0.204,0.454,0.455V437.346z"/>
		<path d="M511.582,213.34v-14.59c0-8.206-6.677-14.883-14.883-14.883h-15.879l-39.713-58.727    c-3.941-5.83-10.497-9.311-17.535-9.311H316.126l-46.868-37.653c-1.764-1.418-3.711-2.51-5.758-3.276v-14.53l52.109-19.373    c4.084-1.517,6.723-5.312,6.723-9.668s-2.639-8.151-6.721-9.668L258.764,0.527c-0.475-0.189-0.975-0.33-1.492-0.418    c-0.68-0.118-1.363-0.138-2.03-0.07c-0.009,0.001-0.018,0.002-0.027,0.003c-0.044,0.005-0.089,0.01-0.133,0.015    c-0.034,0.004-0.067,0.009-0.1,0.013c-0.018,0.002-0.036,0.005-0.054,0.008c-1.34,0.192-2.566,0.738-3.579,1.54    c-0.013,0.01-0.025,0.02-0.038,0.031c-0.03,0.024-0.06,0.048-0.09,0.073c-0.043,0.035-0.085,0.071-0.127,0.107    c0,0-0.001,0.001-0.001,0.001c-0.533,0.46-1.005,1-1.397,1.609c-0.008,0.012-0.016,0.025-0.024,0.037    c-0.02,0.032-0.04,0.064-0.06,0.096c-0.017,0.027-0.034,0.055-0.05,0.082c-0.011,0.018-0.022,0.037-0.032,0.055    c-0.026,0.044-0.052,0.089-0.077,0.134c-0.001,0.002-0.002,0.004-0.004,0.006c-0.377,0.675-0.652,1.414-0.806,2.197    c-0.108,0.544-0.154,1.089-0.141,1.629v47.308c-0.003,0.114-0.003,0.228,0,0.343v19.576c-2.046,0.766-3.994,1.858-5.758,3.275    l-46.868,37.653H88.427c-7.038,0-13.594,3.48-17.535,9.311l-39.713,58.727H15.3c-8.206,0-14.883,6.677-14.883,14.883v14.59    c0,8.206,6.677,14.883,14.883,14.883h136.022v239.421H38.169V249.102c0-4.143-3.357-7.5-7.5-7.5s-7.5,3.357-7.5,7.5v218.543H15.3    c-8.206,0-14.883,6.677-14.883,14.883v14.59C0.418,505.323,7.094,512,15.3,512H496.7c8.206,0,14.883-6.677,14.883-14.883v-14.59    c0-8.206-6.677-14.883-14.883-14.883h-7.869V249.102c0-4.143-3.357-7.5-7.5-7.5c-4.143,0-7.5,3.357-7.5,7.5v218.543H360.678    V228.223H496.7C504.906,228.223,511.582,221.546,511.582,213.34z M496.7,497C496.7,497,496.7,497,496.7,497v7.5V497z     M423.573,130.83c2.051,0,3.961,1.014,5.109,2.713l34.031,50.325h-61.898l-66.018-53.038H423.573z M263.5,44.367V18.291    l35.07,13.038L263.5,44.367z M252.138,89.87c0.936-0.753,2.05-1.191,3.194-1.313c0.22,0.02,0.443,0.03,0.669,0.03    s0.448-0.01,0.668-0.03c1.143,0.123,2.258,0.56,3.195,1.313l117.002,93.998h-241.73L252.138,89.87z M83.318,133.543    c1.148-1.699,3.059-2.713,5.109-2.713h88.776l-66.018,53.038H49.287L83.318,133.543z M15.417,213.223v-14.355h135.905v14.355    H15.417z M496.583,497H15.417v-14.355h481.165V497z M304.852,467.645H263.5V363.882h35.288c3.344,0,6.064,2.721,6.064,6.064    V467.645z M248.5,467.645h-41.352v-97.698c0-3.344,2.721-6.064,6.064-6.064H248.5V467.645z M319.852,467.645v-97.698    c0-11.615-9.449-21.064-21.064-21.064h-85.576c-11.615,0-21.064,9.449-21.064,21.064v97.698h-25.825V198.868h179.355v268.777    H319.852z M496.583,213.223H360.678v-14.355h135.905V213.223z"/>
	</g>
</g>
</svg>
