<?xml version="1.0" encoding="iso-8859-1"?>
<!-- Generator: Adobe Illustrator 19.0.0, SVG Export Plug-In . SVG Version: 6.00 Build 0)  -->
<svg xmlns="http://www.w3.org/2000/svg" xmlns:xlink="http://www.w3.org/1999/xlink" version="1.1" id="Layer_1" x="0px" y="0px" viewBox="0 0 512 512" style="enable-background:new 0 0 512 512;" xml:space="preserve" width="512" height="512">
<g>
	<g>
		<path d="M463.022,241.019c13.533-14.307,24.398-33.705,32.294-57.657c13.945-42.304,15.567-89.276,15.293-113.511    c-0.05-4.355-2.731-8.111-6.833-9.567c-4.116-1.463-8.576-0.232-11.37,3.126c-12.765,15.35-26.945,17.521-43.351,6.64    c-21.687-14.384-43.337-20.337-66.182-18.205c-19.518,1.823-36.622,9.222-51.714,15.749c-5.888,2.547-11.45,4.953-16.694,6.827    c-1.763,0.633-3.667,0.368-5.221-0.728c-1.6-1.127-2.518-2.892-2.518-4.842v-0.238c0-27.348-16.562-40.287-29.869-50.685    c-6.03-4.711-11.726-9.161-14.217-13.911C261.347,1.547,258.789,0,256,0s-5.347,1.547-6.642,4.017    c-2.491,4.75-8.187,9.2-14.217,13.911c-13.308,10.397-29.869,23.337-29.869,50.685v0.238c0,1.95-0.918,3.715-2.518,4.842    c-1.553,1.095-3.456,1.357-5.222,0.728c-5.243-1.874-10.806-4.28-16.693-6.827c-15.092-6.527-32.196-13.926-51.714-15.749    c-22.843-2.129-44.496,3.821-66.182,18.205C46.537,80.93,32.357,78.757,19.594,63.41c-2.793-3.36-7.258-4.59-11.37-3.127    c-4.102,1.456-6.783,5.212-6.833,9.567c-0.274,24.234,1.348,71.207,15.293,113.511c7.896,23.952,18.761,43.351,32.294,57.657    c16.461,17.401,36.94,27.43,60.87,29.806c63.472,6.302,99.033,22.451,117.689,34.889c8.442,5.629,18.285,8.604,28.463,8.604    s20.021-2.975,28.463-8.604c18.656-12.438,54.218-28.587,117.689-34.889C426.082,268.448,446.562,258.42,463.022,241.019z     M400.67,255.898c-66.55,6.607-104.451,23.949-124.527,37.334c-5.971,3.98-12.936,6.084-20.143,6.084s-14.172-2.104-20.143-6.084    c-20.076-13.385-57.978-30.727-124.527-37.334c-37.69-3.743-64.741-29.728-80.4-77.232    c-11.346-34.418-14.112-72.394-14.511-97.242c5.192,4.303,10.736,7.302,16.572,8.954c12.298,3.483,25.163,0.848,38.244-7.829    c41.998-27.857,74.751-13.688,103.649-1.188c6.118,2.646,11.897,5.146,17.599,7.185c6.329,2.261,13.397,1.294,18.91-2.589    c5.56-3.917,8.879-10.312,8.879-17.105v-0.238c0-20.031,11.709-29.18,24.104-38.865c4.159-3.249,8.187-6.396,11.623-9.897    c3.437,3.502,7.464,6.648,11.623,9.897c12.396,9.686,24.104,18.834,24.104,38.865v0.238c0,6.794,3.319,13.188,8.879,17.105    c5.513,3.883,12.584,4.85,18.909,2.589c5.702-2.038,11.481-4.538,17.6-7.185c28.897-12.499,61.649-26.668,103.649,1.188    c13.081,8.677,25.946,11.309,38.244,7.829c5.836-1.652,11.38-4.651,16.572-8.955c-0.398,24.85-3.165,62.825-14.511,97.243    C465.411,226.171,438.36,252.155,400.67,255.898z"/>
		<path d="M200.219,140.227c-13.248-10.799-29.873-14.992-49.408-12.452c-48.943,6.351-65.131-6.179-66.339-7.188    c-2.289-2.547-5.889-3.075-8.933-1.474c-3.073,1.617-4.497,5.28-3.636,8.645c10.056,39.302,29.16,66.181,56.78,79.89    c15.428,7.656,31.469,10.18,45.925,10.18c27.08,0,48.58-8.863,49.938-9.436c2.967-1.25,4.804-4.255,4.566-7.465    C228.994,199.313,225.892,161.153,200.219,140.227z M135.353,194.211c-19.676-9.766-34.405-27.868-43.923-53.927    c12.153,3.686,31.574,6.227,61.313,2.365c15.256-1.978,28.024,1.101,37.943,9.159c15.528,12.615,20.958,34.459,22.708,44.669    C200.378,200.703,165.816,209.33,135.353,194.211z"/>
		<path d="M436.461,119.113c-3.043-1.603-6.644-1.072-8.933,1.474c-1.208,1.009-17.398,13.543-66.339,7.188    c-19.534-2.538-36.16,1.653-49.408,12.452c-25.673,20.927-28.775,59.086-28.895,60.7c-0.237,3.21,1.6,6.215,4.566,7.465    c1.358,0.572,22.854,9.436,49.938,9.436c14.454,0,30.5-2.524,45.925-10.18c27.62-13.709,46.725-40.588,56.78-79.89    C440.958,124.394,439.534,120.73,436.461,119.113z M376.744,194.163c-30.379,15.129-65.098,6.506-78.149,2.296    c1.727-10.188,7.106-31.924,22.664-44.605c9.926-8.092,22.71-11.188,37.999-9.204c29.746,3.864,49.16,1.32,61.313-2.366    C411.068,166.298,396.371,184.388,376.744,194.163z"/>
		<path d="M494.972,336.714v-110.71c0-4.143-3.357-7.5-7.5-7.5s-7.5,3.357-7.5,7.5v108.28h-10.856v-69.035    c0-4.143-3.357-7.5-7.5-7.5s-7.5,3.357-7.5,7.5v71.465c-5.678,3.223-9.517,9.325-9.517,16.307v140.243    c0,10.331,8.405,18.736,18.736,18.736h22.417c10.331,0,18.736-8.405,18.736-18.736V353.021    C504.488,346.039,500.649,339.937,494.972,336.714z M489.488,493.264c0,2.061-1.676,3.736-3.736,3.736h-22.417    c-2.061,0-3.736-1.676-3.736-3.736V353.021c0-2.061,1.676-3.736,3.736-3.736h22.417c2.061,0,3.736,1.676,3.736,3.736V493.264z"/>
		<path d="M271.605,58.801c-5.451-6.46-10.94-10.512-11.172-10.681c-2.639-1.936-6.229-1.936-8.867,0    c-0.231,0.169-5.721,4.221-11.172,10.681c-7.616,9.024-11.642,18.602-11.642,27.695s4.025,18.671,11.642,27.695    c5.451,6.46,10.94,10.512,11.172,10.681c1.319,0.968,2.877,1.451,4.434,1.451s3.114-0.483,4.434-1.451    c0.231-0.169,5.721-4.221,11.172-10.681c7.616-9.024,11.642-18.602,11.642-27.695S279.222,67.825,271.605,58.801z     M256.021,108.932c-4.942-4.751-12.269-13.331-12.269-22.436c0-8.628,6.868-17.252,12.226-22.436    c4.942,4.751,12.269,13.331,12.269,22.436C268.247,95.124,261.379,103.748,256.021,108.932z"/>
	</g>
</g>
</svg>
